<svg xmlns="http://www.w3.org/2000/svg" width="322.04229736328125" height="322.34771728515625" viewBox="-61.072872161865234 -61.26544189453125 322.04229736328125 322.34771728515625"><title>Neo4j Graph Visualization</title><desc>Created using Neo4j (http://www.neo4j.com/)</desc><g class="layer relationships"><g class="relationship" transform="translate(115.34774613408742 224.5822932987367) rotate(262.97688044025205)"><path class="outline" fill="#A5ABB6" stroke="none" d="M 32.5 0.5 L 40.23053312290547 0.5 L 40.23053312290547 -0.5 L 32.5 -0.5 Z M 85.79303312290547 0.5 L 93.52356624581094 0.5 L 93.52356624581094 3.5 L 100.52356624581094 0 L 93.52356624581094 -3.5 L 93.52356624581094 -0.5 L 85.79303312290547 -0.5 Z"/><text text-anchor="middle" pointer-events="none" font-size="8px" fill="#000000" x="63.01178312290547" y="3" transform="rotate(180 63.01178312290547 0)" font-family="sans-serif">ACTED_IN</text></g><g class="relationship" transform="translate(200.05294139693163 175.91430858027817) rotate(217.18889839093674)"><path class="outline" fill="#A5ABB6" stroke="none" d="M 32.5 0.5 L 40.26502935632295 0.5 L 40.26502935632295 -0.5 L 32.5 -0.5 Z M 85.82752935632294 0.5 L 93.5925587126459 0.5 L 93.5925587126459 3.5 L 100.5925587126459 0 L 93.5925587126459 -3.5 L 93.5925587126459 -0.5 L 85.82752935632294 -0.5 Z"/><text text-anchor="middle" pointer-events="none" font-size="8px" fill="#000000" x="63.04627935632295" y="3" transform="rotate(180 63.04627935632295 0)" font-family="sans-serif">ACTED_IN</text></g><g class="relationship" transform="translate(224.46942498472018 83.66325914095746) rotate(532.5223654273109)"><path class="outline" fill="#A5ABB6" stroke="none" d="M 32.5 0.5 L 40.237262443998794 0.5 L 40.237262443998794 -0.5 L 32.5 -0.5 Z M 85.79976244399879 0.5 L 93.53702488799759 0.5 L 93.53702488799759 3.5 L 100.53702488799759 0 L 93.53702488799759 -3.5 L 93.53702488799759 -0.5 L 85.79976244399879 -0.5 Z"/><text text-anchor="middle" pointer-events="none" font-size="8px" fill="#000000" x="63.018512443998794" y="3" transform="rotate(180 63.018512443998794 0)" font-family="sans-serif">ACTED_IN</text></g><g class="relationship" transform="translate(177.7184000145673 1.4540335159379034) rotate(488.26096896216364)"><path class="outline" fill="#A5ABB6" stroke="none" d="M 32.5 0.5 L 40.221368152070156 0.5 L 40.221368152070156 -0.5 L 32.5 -0.5 Z M 85.78386815207016 0.5 L 93.50523630414031 0.5 L 93.50523630414031 3.5 L 100.50523630414031 0 L 93.50523630414031 -3.5 L 93.50523630414031 -0.5 L 85.78386815207016 -0.5 Z"/><text text-anchor="middle" pointer-events="none" font-size="8px" fill="#000000" x="63.002618152070156" y="3" transform="rotate(180 63.002618152070156 0)" font-family="sans-serif">ACTED_IN</text></g><g class="relationship" transform="translate(87.00462492496615 -24.765443225305265) rotate(444.0536284408878)"><path class="outline" fill="#A5ABB6" stroke="none" d="M 32.5 0.5 L 39.52516108746071 0.5 L 39.52516108746071 -0.5 L 32.5 -0.5 Z M 86.4157860874607 0.5 L 93.44094717492142 0.5 L 93.44094717492142 3.5 L 100.44094717492142 0 L 93.44094717492142 -3.5 L 93.44094717492142 -0.5 L 86.4157860874607 -0.5 Z"/><text text-anchor="middle" pointer-events="none" font-size="8px" fill="#000000" x="62.97047358746071" y="3" font-family="sans-serif">DIRECTED</text></g><g class="relationship" transform="translate(2.3481343677834965 21.371177508450177) rotate(398.84104737978276)"><path class="outline" fill="#A5ABB6" stroke="none" d="M 32.5 0.5 L 39.4913369255012 0.5 L 39.4913369255012 -0.5 L 32.5 -0.5 Z M 86.3819619255012 0.5 L 93.3732988510024 0.5 L 93.3732988510024 3.5 L 100.3732988510024 0 L 93.3732988510024 -3.5 L 93.3732988510024 -0.5 L 86.3819619255012 -0.5 Z"/><text text-anchor="middle" pointer-events="none" font-size="8px" fill="#000000" x="62.9366494255012" y="3" font-family="sans-serif">DIRECTED</text></g><g class="relationship" transform="translate(-24.572871444112483 113.43226358986452) rotate(353.8460179457293)"><path class="outline" fill="#A5ABB6" stroke="none" d="M 32.5 0.5 L 37.006823877012295 0.5 L 37.006823877012295 -0.5 L 32.5 -0.5 Z M 88.7880738770123 0.5 L 93.29489775402459 0.5 L 93.29489775402459 3.5 L 100.29489775402459 0 L 93.29489775402459 -3.5 L 93.29489775402459 -0.5 L 88.7880738770123 -0.5 Z"/><text text-anchor="middle" pointer-events="none" font-size="8px" fill="#000000" x="62.897448877012295" y="3" font-family="sans-serif">PRODUCED</text></g><g class="relationship" transform="translate(22.027884689043027 198.13819335990934) rotate(308.46776882830676)"><path class="outline" fill="#A5ABB6" stroke="none" d="M 32.5 0.5 L 40.13981405118969 0.5 L 40.13981405118969 -0.5 L 32.5 -0.5 Z M 85.70231405118969 0.5 L 93.34212810237938 0.5 L 93.34212810237938 3.5 L 100.34212810237938 0 L 93.34212810237938 -3.5 L 93.34212810237938 -0.5 L 85.70231405118969 -0.5 Z"/><text text-anchor="middle" pointer-events="none" font-size="8px" fill="#000000" x="62.92106405118969" y="3" font-family="sans-serif">ACTED_IN</text></g></g><g class="layer nodes"><g class="node" transform="translate(100,100.00054354513075)"><circle class="outline" cx="0" cy="0" r="25" fill="#68BDF6" stroke="#5CA8DB" stroke-width="2px"/><text text-anchor="middle" pointer-events="none" y="0" font-size="10px" fill="#FFFFFF" font-family="sans-serif"> The</text><text text-anchor="middle" pointer-events="none" y="10" font-size="10px" fill="#FFFFFF" font-family="sans-serif"> Matrix</text></g><g class="node" transform="translate(115.34774613408742,224.5822932987367)"><circle class="outline" cx="0" cy="0" r="32.5" fill="#6DCE9E" stroke="#60B58B" stroke-width="2px"/><text text-anchor="middle" pointer-events="none" y="0" font-size="10px" fill="#FFFFFF" font-family="sans-serif"> Keanu</text><text text-anchor="middle" pointer-events="none" y="10" font-size="10px" fill="#FFFFFF" font-family="sans-serif"> Reeves</text></g><g class="node" transform="translate(200.05294139693163,175.91430858027817)"><circle class="outline" cx="0" cy="0" r="32.5" fill="#6DCE9E" stroke="#60B58B" stroke-width="2px"/><text text-anchor="middle" pointer-events="none" y="0" font-size="10px" fill="#FFFFFF" font-family="sans-serif"> Carrie-Anne</text><text text-anchor="middle" pointer-events="none" y="10" font-size="10px" fill="#FFFFFF" font-family="sans-serif"> Moss</text></g><g class="node" transform="translate(224.46942498472018,83.66325914095746)"><circle class="outline" cx="0" cy="0" r="32.5" fill="#6DCE9E" stroke="#60B58B" stroke-width="2px"/><text text-anchor="middle" pointer-events="none" y="0" font-size="10px" fill="#FFFFFF" font-family="sans-serif"> Laurence</text><text text-anchor="middle" pointer-events="none" y="10" font-size="10px" fill="#FFFFFF" font-family="sans-serif"> Fishburne</text></g><g class="node" transform="translate(177.7184000145673,1.4540335159379034)"><circle class="outline" cx="0" cy="0" r="32.5" fill="#6DCE9E" stroke="#60B58B" stroke-width="2px"/><text text-anchor="middle" pointer-events="none" y="0" font-size="10px" fill="#FFFFFF" font-family="sans-serif"> Hugo</text><text text-anchor="middle" pointer-events="none" y="10" font-size="10px" fill="#FFFFFF" font-family="sans-serif"> Weaving</text></g><g class="node" transform="translate(87.00462492496615,-24.765443225305265)"><circle class="outline" cx="0" cy="0" r="32.5" fill="#6DCE9E" stroke="#60B58B" stroke-width="2px"/><text text-anchor="middle" pointer-events="none" y="0" font-size="10px" fill="#FFFFFF" font-family="sans-serif"> Andy</text><text text-anchor="middle" pointer-events="none" y="10" font-size="10px" fill="#FFFFFF" font-family="sans-serif"> Wachowski</text></g><g class="node" transform="translate(2.3481343677834965,21.371177508450177)"><circle class="outline" cx="0" cy="0" r="32.5" fill="#6DCE9E" stroke="#60B58B" stroke-width="2px"/><text text-anchor="middle" pointer-events="none" y="0" font-size="10px" fill="#FFFFFF" font-family="sans-serif"> Lana</text><text text-anchor="middle" pointer-events="none" y="10" font-size="10px" fill="#FFFFFF" font-family="sans-serif"> Wachowski</text></g><g class="node" transform="translate(-24.572871444112483,113.43226358986452)"><circle class="outline" cx="0" cy="0" r="32.5" fill="#6DCE9E" stroke="#60B58B" stroke-width="2px"/><text text-anchor="middle" pointer-events="none" y="5" font-size="10px" fill="#FFFFFF" font-family="sans-serif"> Joel Silver</text></g><g class="node" transform="translate(22.027884689043027,198.13819335990934)"><circle class="outline" cx="0" cy="0" r="32.5" fill="#6DCE9E" stroke="#60B58B" stroke-width="2px"/><text text-anchor="middle" pointer-events="none" y="5" font-size="10px" fill="#FFFFFF" font-family="sans-serif"> Emil Eifrem</text></g></g></svg>