<svg xmlns="http://www.w3.org/2000/svg" width="515.682861328125" height="447.56353759765625" viewBox="-122.20606994628906 -147.5933074951172 515.682861328125 447.56353759765625"><title>Neo4j Graph Visualization</title><desc>Created using Neo4j (http://www.neo4j.com/)</desc><g class="layer relationships"><g class="relationship" transform="translate(209.6913061202514 263.4702154433909) rotate(290.0442966673024)"><path class="outline" fill="#A5ABB6" stroke="none" d="M 32.5 0.5 L 36.27737381815984 0.5 L 36.27737381815984 -0.5 L 32.5 -0.5 Z M 81.83987381815984 0.5 L 85.61724763631968 0.5 L 85.61724763631968 3.5 L 92.61724763631968 0 L 85.61724763631968 -3.5 L 85.61724763631968 -0.5 L 81.83987381815984 -0.5 Z"/><text text-anchor="middle" pointer-events="none" font-size="8px" fill="#000000" x="59.05862381815984" y="3" font-family="sans-serif">ACTED_IN</text></g><g class="relationship" transform="translate(141.05650156217177 94.17191173803533) rotate(388.35830197363214)"><path class="outline" fill="#A5ABB6" stroke="none" d="M 32.5 0.5 L 39.37124545534393 0.5 L 39.37124545534393 -0.5 L 32.5 -0.5 Z M 84.93374545534394 0.5 L 91.80499091068786 0.5 L 91.80499091068786 3.5 L 98.80499091068786 0 L 91.80499091068786 -3.5 L 91.80499091068786 -0.5 L 84.93374545534394 -0.5 Z"/><text text-anchor="middle" pointer-events="none" font-size="8px" fill="#000000" x="62.15249545534393" y="3" font-family="sans-serif">ACTED_IN</text></g><g class="relationship" transform="translate(356.97678372612427 224.80263172328) rotate(213.87887215289174)"><path class="outline" fill="#A5ABB6" stroke="none" d="M 31.26317983184346,8.894581878976458 L 31.52199887694598,7.92865605268739 A 127.60862996798272 127.60862996798272 0 0 0 42.103244985802384,10.287156860270102 L 41.92734545885088,11.271564985195042 A 128.60862996798272 128.60862996798272 0 0 1 31.26317983184346,8.894581878976458 Z M 87.42695905097025,11.225695431603157 L 87.24907505963495,10.241643966675326 A 127.60862996798272 127.60862996798272 0 0 0 97.82554431157092,7.861813418419996 L 97.043246084065,4.965607368560786 L 104.71374146582673,6.519151895882708 L 98.86860861491215,11.723421484898942 L 98.08631038740623,8.827215435039733 A 128.60862996798272 128.60862996798272 0 0 1 87.42695905097025,11.225695431603157"/><text text-anchor="middle" pointer-events="none" font-size="8px" fill="#000000" x="64.6786927988349" y="15.776749577128214" transform="rotate(180 64.6786927988349 12.776749577128214)" font-family="sans-serif">ACTED_IN</text></g><g class="relationship" transform="translate(239.73607929636967 -84.13977680103554) rotate(507.8687257797715)"><path class="outline" fill="#A5ABB6" stroke="none" d="M 32.5 0.5 L 34.17867924233153 0.5 L 34.17867924233153 -0.5 L 32.5 -0.5 Z M 79.74117924233153 0.5 L 81.41985848466307 0.5 L 81.41985848466307 3.5 L 88.41985848466307 0 L 81.41985848466307 -3.5 L 81.41985848466307 -0.5 L 79.74117924233153 -0.5 Z"/><text text-anchor="middle" pointer-events="none" font-size="8px" fill="#000000" x="56.95992924233153" y="3" transform="rotate(180 56.95992924233153 0)" font-family="sans-serif">ACTED_IN</text></g><g class="relationship" transform="translate(141.05650156217177 94.17191173803533) rotate(271.2779244900039)"><path class="outline" fill="#A5ABB6" stroke="none" d="M 32.5 0.5 L 36.47747759822548 0.5 L 36.47747759822548 -0.5 L 32.5 -0.5 Z M 82.03997759822548 0.5 L 86.01745519645095 0.5 L 86.01745519645095 3.5 L 93.01745519645095 0 L 86.01745519645095 -3.5 L 86.01745519645095 -0.5 L 82.03997759822548 -0.5 Z"/><text text-anchor="middle" pointer-events="none" font-size="8px" fill="#000000" x="59.25872759822548" y="3" font-family="sans-serif">ACTED_IN</text></g><g class="relationship" transform="translate(67.12135032033751 -111.09330788586794) rotate(408.7399025875594)"><path class="outline" fill="#A5ABB6" stroke="none" d="M 32.5 0.5 L 35.520085944078964 0.5 L 35.520085944078964 -0.5 L 32.5 -0.5 Z M 81.08258594407897 0.5 L 84.10267188815793 0.5 L 84.10267188815793 3.5 L 91.10267188815793 0 L 84.10267188815793 -3.5 L 84.10267188815793 -0.5 L 81.08258594407897 -0.5 Z"/><text text-anchor="middle" pointer-events="none" font-size="8px" fill="#000000" x="58.301335944078964" y="3" font-family="sans-serif">ACTED_IN</text></g><g class="relationship" transform="translate(-59.452636507239404 43.42470104950911) rotate(404.54295099069816)"><path class="outline" fill="#A5ABB6" stroke="none" d="M 32.5 0.5 L 36.92580289937029 0.5 L 36.92580289937029 -0.5 L 32.5 -0.5 Z M 82.4883028993703 0.5 L 86.91410579874058 0.5 L 86.91410579874058 3.5 L 93.91410579874058 0 L 86.91410579874058 -3.5 L 86.91410579874058 -0.5 L 82.4883028993703 -0.5 Z"/><text text-anchor="middle" pointer-events="none" font-size="8px" fill="#000000" x="59.70705289937029" y="3" font-family="sans-serif">ACTED_IN</text></g><g class="relationship" transform="translate(141.05650156217177 94.17191173803533) rotate(524.2418630496267)"><path class="outline" fill="#A5ABB6" stroke="none" d="M 32.5 0.5 L 37.60699670843314 0.5 L 37.60699670843314 -0.5 L 32.5 -0.5 Z M 83.16949670843314 0.5 L 88.27649341686627 0.5 L 88.27649341686627 3.5 L 95.27649341686627 0 L 88.27649341686627 -3.5 L 88.27649341686627 -0.5 L 83.16949670843314 -0.5 Z"/><text text-anchor="middle" pointer-events="none" font-size="8px" fill="#000000" x="60.38824670843314" y="3" transform="rotate(180 60.38824670843314 0)" font-family="sans-serif">ACTED_IN</text></g><g class="relationship" transform="translate(-85.70607093216023 168.5058092679914) rotate(339.424894376102)"><path class="outline" fill="#A5ABB6" stroke="none" d="M 32.5 0.5 L 36.75362965996388 0.5 L 36.75362965996388 -0.5 L 32.5 -0.5 Z M 82.31612965996388 0.5 L 86.56975931992775 0.5 L 86.56975931992775 3.5 L 93.56975931992775 0 L 86.56975931992775 -3.5 L 86.56975931992775 -0.5 L 82.31612965996388 -0.5 Z"/><text text-anchor="middle" pointer-events="none" font-size="8px" fill="#000000" x="59.53487965996388" y="3" font-family="sans-serif">ACTED_IN</text></g><g class="relationship" transform="translate(10.660646735210037 244.634321121217) rotate(277.0843025836767)"><path class="outline" fill="#A5ABB6" stroke="none" d="M 32.5 0.5 L 36.82089039424774 0.5 L 36.82089039424774 -0.5 L 32.5 -0.5 Z M 82.38339039424774 0.5 L 86.70428078849548 0.5 L 86.70428078849548 3.5 L 93.70428078849548 0 L 86.70428078849548 -3.5 L 86.70428078849548 -0.5 L 82.38339039424774 -0.5 Z"/><text text-anchor="middle" pointer-events="none" font-size="8px" fill="#000000" x="59.60214039424774" y="3" font-family="sans-serif">ACTED_IN</text></g><g class="relationship" transform="translate(356.97678372612427 224.80263172328) rotate(213.87887215289174)"><path class="outline" fill="#A5ABB6" stroke="none" d="M 31.26317983184346,-8.894581878976458 L 31.52199887694598,-7.92865605268739 A 127.60862996798272 127.60862996798272 0 0 1 41.45239232581745,-10.169117335401992 L 41.271392417644485,-11.152600448241955 A 128.60862996798272 128.60862996798272 0 0 0 31.26317983184346,-8.894581878976458 Z M 88.08267089551128,-11.105408565117543 L 87.89968839838593,-10.122292394084965 A 127.60862996798272 127.60862996798272 0 0 1 97.82554431157092,-7.861813418419996 L 97.043246084065,-4.965607368560786 L 104.71374146582673,-6.519151895882708 L 98.86860861491215,-11.723421484898942 L 98.08631038740623,-8.827215435039733 A 128.60862996798272 128.60862996798272 0 0 0 88.08267089551128,-11.105408565117543"/><text text-anchor="middle" pointer-events="none" font-size="8px" fill="#000000" x="64.67869279883487" y="-9.776749577128214" transform="rotate(180 64.67869279883487 -12.776749577128214)" font-family="sans-serif">DIRECTED</text></g></g><g class="layer nodes"><g class="node" transform="translate(250.00421064209047,152.9772895587152)"><circle class="outline" cx="0" cy="0" r="25" fill="#68BDF6" stroke="#5CA8DB" stroke-width="2px"/><text text-anchor="middle" pointer-events="none" y="5" font-size="10px" fill="#FFFFFF" font-family="sans-serif"> Unforgiv…</text></g><g class="node" transform="translate(209.6913061202514,263.4702154433909)"><circle class="outline" cx="0" cy="0" r="32.5" fill="#6DCE9E" stroke="#60B58B" stroke-width="2px"/><text text-anchor="middle" pointer-events="none" y="0" font-size="10px" fill="#FFFFFF" font-family="sans-serif"> Richard</text><text text-anchor="middle" pointer-events="none" y="10" font-size="10px" fill="#FFFFFF" font-family="sans-serif"> Harris</text></g><g class="node" transform="translate(141.05650156217177,94.17191173803533)"><circle class="outline" cx="0" cy="0" r="32.5" fill="#6DCE9E" stroke="#60B58B" stroke-width="2px"/><text text-anchor="middle" pointer-events="none" y="0" font-size="10px" fill="#FFFFFF" font-family="sans-serif"> Gene</text><text text-anchor="middle" pointer-events="none" y="10" font-size="10px" fill="#FFFFFF" font-family="sans-serif"> Hackman</text></g><g class="node" transform="translate(356.97678372612427,224.80263172328)"><circle class="outline" cx="0" cy="0" r="32.5" fill="#6DCE9E" stroke="#60B58B" stroke-width="2px"/><text text-anchor="middle" pointer-events="none" y="0" font-size="10px" fill="#FFFFFF" font-family="sans-serif"> Clint</text><text text-anchor="middle" pointer-events="none" y="10" font-size="10px" fill="#FFFFFF" font-family="sans-serif"> Eastwood</text></g><g class="node" transform="translate(239.73607929636967,-84.13977680103554)"><circle class="outline" cx="0" cy="0" r="32.5" fill="#6DCE9E" stroke="#60B58B" stroke-width="2px"/><text text-anchor="middle" pointer-events="none" y="0" font-size="10px" fill="#FFFFFF" font-family="sans-serif"> Robin</text><text text-anchor="middle" pointer-events="none" y="10" font-size="10px" fill="#FFFFFF" font-family="sans-serif"> Williams</text></g><g class="node" transform="translate(143.68854345715081,-23.816189723550103)"><circle class="outline" cx="0" cy="0" r="25" fill="#68BDF6" stroke="#5CA8DB" stroke-width="2px"/><text text-anchor="middle" pointer-events="none" y="0" font-size="10px" fill="#FFFFFF" font-family="sans-serif"> The</text><text text-anchor="middle" pointer-events="none" y="10" font-size="10px" fill="#FFFFFF" font-family="sans-serif"> Birdcage</text></g><g class="node" transform="translate(67.12135032033751,-111.09330788586794)"><circle class="outline" cx="0" cy="0" r="32.5" fill="#6DCE9E" stroke="#60B58B" stroke-width="2px"/><text text-anchor="middle" pointer-events="none" y="5" font-size="10px" fill="#FFFFFF" font-family="sans-serif"> Nathan Lane</text></g><g class="node" transform="translate(-59.452636507239404,43.42470104950911)"><circle class="outline" cx="0" cy="0" r="32.5" fill="#6DCE9E" stroke="#60B58B" stroke-width="2px"/><text text-anchor="middle" pointer-events="none" y="0" font-size="10px" fill="#FFFFFF" font-family="sans-serif"> Keanu</text><text text-anchor="middle" pointer-events="none" y="10" font-size="10px" fill="#FFFFFF" font-family="sans-serif"> Reeves</text></g><g class="node" transform="translate(25.30039836190306,126.83625683396856)"><circle class="outline" cx="0" cy="0" r="25" fill="#68BDF6" stroke="#5CA8DB" stroke-width="2px"/><text text-anchor="middle" pointer-events="none" y="0" font-size="10px" fill="#FFFFFF" font-family="sans-serif"> The</text><text text-anchor="middle" pointer-events="none" y="10" font-size="10px" fill="#FFFFFF" font-family="sans-serif"> Replac…</text></g><g class="node" transform="translate(-85.70607093216023,168.5058092679914)"><circle class="outline" cx="0" cy="0" r="32.5" fill="#6DCE9E" stroke="#60B58B" stroke-width="2px"/><text text-anchor="middle" pointer-events="none" y="0" font-size="10px" fill="#FFFFFF" font-family="sans-serif"> Brooke</text><text text-anchor="middle" pointer-events="none" y="10" font-size="10px" fill="#FFFFFF" font-family="sans-serif"> Langton</text></g><g class="node" transform="translate(10.660646735210037,244.634321121217)"><circle class="outline" cx="0" cy="0" r="32.5" fill="#6DCE9E" stroke="#60B58B" stroke-width="2px"/><text text-anchor="middle" pointer-events="none" y="0" font-size="10px" fill="#FFFFFF" font-family="sans-serif"> Orlando</text><text text-anchor="middle" pointer-events="none" y="10" font-size="10px" fill="#FFFFFF" font-family="sans-serif"> Jones</text></g></g></svg>