<svg xmlns="http://www.w3.org/2000/svg" width="597.051025390625" height="314.31805419921875" viewBox="-131.34532165527344 -27.614681243896484 597.051025390625 314.31805419921875"><title>Neo4j Graph Visualization</title><desc>Created using Neo4j (http://www.neo4j.com/)</desc><g class="layer relationships"><g class="relationship" transform="translate(429.2057231208377 228.5402385278552) rotate(212.211383455428)"><path class="outline" fill="#A5ABB6" stroke="none" d="M 32.5 0.5 L 46.155080945264714 0.5 L 46.155080945264714 -0.5 L 32.5 -0.5 Z M 91.71758094526471 0.5 L 105.37266189052943 0.5 L 105.37266189052943 3.5 L 112.37266189052943 0 L 105.37266189052943 -3.5 L 105.37266189052943 -0.5 L 91.71758094526471 -0.5 Z"/><text text-anchor="middle" pointer-events="none" font-size="8px" fill="#000000" x="68.93633094526471" y="3" transform="rotate(180 68.93633094526471 0)" font-family="sans-serif">ACTED_IN</text></g><g class="relationship" transform="translate(163.3442710581163 150.45193023340215) rotate(360.3457817970829)"><path class="outline" fill="#A5ABB6" stroke="none" d="M 32.5 0.5 L 45.36332263855502 0.5 L 45.36332263855502 -0.5 L 32.5 -0.5 Z M 90.92582263855502 0.5 L 103.78914527711004 0.5 L 103.78914527711004 3.5 L 110.78914527711004 0 L 103.78914527711004 -3.5 L 103.78914527711004 -0.5 L 90.92582263855502 -0.5 Z"/><text text-anchor="middle" pointer-events="none" font-size="8px" fill="#000000" x="68.14457263855502" y="3" font-family="sans-serif">ACTED_IN</text></g><g class="relationship" transform="translate(390.2962390317449 26.154042868675088) rotate(483.7608955478298)"><path class="outline" fill="#A5ABB6" stroke="none" d="M 31.26317983184346,8.894581878976458 L 31.52199887694598,7.92865605268739 A 162.5831932926945 162.5831932926945 0 0 0 49.111440452774744,11.613461424180258 L 48.96080873761452,12.602051372737236 A 163.5831932926945 163.5831932926945 0 0 1 31.26317983184346,8.894581878976458 Z M 94.51148845839529,13.126648703449575 L 94.38366443000442,12.134851840293635 A 162.5831932926945 162.5831932926945 0 0 0 112.0533035851812,8.856117678895545 L 111.34378969708925,5.941226593004917 L 118.97296843360799,7.686400454329435 L 112.99932210263714,12.742639126749715 L 112.28980821454519,9.827748040859086 A 163.5831932926945 163.5831932926945 0 0 1 94.51148845839529,13.126648703449575"/><text text-anchor="middle" pointer-events="none" font-size="8px" fill="#000000" x="71.7235563805552" y="16.95772972275097" transform="rotate(180 71.7235563805552 13.957729722750969)" font-family="sans-serif">ACTED_IN</text></g><g class="relationship" transform="translate(-94.84532118215907 119.32335615938266) rotate(364.92212374542066)"><path class="outline" fill="#A5ABB6" stroke="none" d="M 32.5 0.5 L 33.69135524039412 0.5 L 33.69135524039412 -0.5 L 32.5 -0.5 Z M 79.25385524039412 0.5 L 80.44521048078823 0.5 L 80.44521048078823 3.5 L 87.44521048078823 0 L 80.44521048078823 -3.5 L 80.44521048078823 -0.5 L 79.25385524039412 -0.5 Z"/><text text-anchor="middle" pointer-events="none" font-size="8px" fill="#000000" x="56.47260524039412" y="3" font-family="sans-serif">ACTED_IN</text></g><g class="relationship" transform="translate(163.3442710581163 150.45193023340215) rotate(188.5445315399504)"><path class="outline" fill="#A5ABB6" stroke="none" d="M 32.5 0.5 L 43.84040791764896 0.5 L 43.84040791764896 -0.5 L 32.5 -0.5 Z M 89.40290791764896 0.5 L 100.74331583529792 0.5 L 100.74331583529792 3.5 L 107.74331583529792 0 L 100.74331583529792 -3.5 L 100.74331583529792 -0.5 L 89.40290791764896 -0.5 Z"/><text text-anchor="middle" pointer-events="none" font-size="8px" fill="#000000" x="66.62165791764896" y="3" transform="rotate(180 66.62165791764896 0)" font-family="sans-serif">ACTED_IN</text></g><g class="relationship" transform="translate(-7.374767724657514 8.885319427514824) rotate(435.14047940349303)"><path class="outline" fill="#A5ABB6" stroke="none" d="M 32.5 0.5 L 36.17211255917586 0.5 L 36.17211255917586 -0.5 L 32.5 -0.5 Z M 81.73461255917586 0.5 L 85.40672511835172 0.5 L 85.40672511835172 3.5 L 92.40672511835172 0 L 85.40672511835172 -3.5 L 85.40672511835172 -0.5 L 81.73461255917586 -0.5 Z"/><text text-anchor="middle" pointer-events="none" font-size="8px" fill="#000000" x="58.95336255917586" y="3" font-family="sans-serif">ACTED_IN</text></g><g class="relationship" transform="translate(18.602688324277874 250.20335973088157) rotate(272.87446540733737)"><path class="outline" fill="#A5ABB6" stroke="none" d="M 32.5 0.5 L 34.08896151001237 0.5 L 34.08896151001237 -0.5 L 32.5 -0.5 Z M 79.65146151001237 0.5 L 81.24042302002474 0.5 L 81.24042302002474 3.5 L 88.24042302002474 0 L 81.24042302002474 -3.5 L 81.24042302002474 -0.5 L 79.65146151001237 -0.5 Z"/><text text-anchor="middle" pointer-events="none" font-size="8px" fill="#000000" x="56.87021151001237" y="3" font-family="sans-serif">ACTED_IN</text></g><g class="relationship" transform="translate(390.2962390317449 26.154042868675088) rotate(483.7608955478298)"><path class="outline" fill="#A5ABB6" stroke="none" d="M 31.26317983184346,-8.894581878976458 L 31.52199887694598,-7.92865605268739 A 162.5831932926945 162.5831932926945 0 0 1 48.457172510969805,-11.512407026781432 L 48.302516591778684,-12.500375420334137 A 163.5831932926945 163.5831932926945 0 0 0 31.26317983184346,-8.894581878976458 Z M 95.17194764984569,-13.040160525096269 L 95.04008617006292,-12.048892372601955 A 162.5831932926945 162.5831932926945 0 0 1 112.0533035851812,-8.856117678895545 L 111.34378969708925,-5.941226593004917 L 118.97296843360799,-7.686400454329435 L 112.99932210263714,-12.742639126749715 L 112.28980821454519,-9.827748040859086 A 163.5831932926945 163.5831932926945 0 0 0 95.17194764984569,-13.040160525096269"/><text text-anchor="middle" pointer-events="none" font-size="8px" fill="#000000" x="71.72355638055518" y="-10.957729722750969" transform="rotate(180 71.72355638055518 -13.957729722750969)" font-family="sans-serif">DIRECTED</text></g></g><g class="layer nodes"><g class="node" transform="translate(306.63080693336633,151.3166793967065)"><circle class="outline" cx="0" cy="0" r="32.5" fill="#6DCE9E" stroke="#60B58B" stroke-width="2px"/><text text-anchor="middle" pointer-events="none" y="5" font-size="10px" fill="#FFFFFF" font-family="sans-serif"> Unforgiven</text></g><g class="node" transform="translate(429.2057231208377,228.5402385278552)"><circle class="outline" cx="0" cy="0" r="32.5" fill="#68BDF6" stroke="#5CA8DB" stroke-width="2px"/><text text-anchor="middle" pointer-events="none" y="0" font-size="10px" fill="#FFFFFF" font-family="sans-serif"> Richard</text><text text-anchor="middle" pointer-events="none" y="10" font-size="10px" fill="#FFFFFF" font-family="sans-serif"> Harris</text></g><g class="node" transform="translate(163.3442710581163,150.45193023340215)"><circle class="outline" cx="0" cy="0" r="32.5" fill="#68BDF6" stroke="#5CA8DB" stroke-width="2px"/><text text-anchor="middle" pointer-events="none" y="0" font-size="10px" fill="#FFFFFF" font-family="sans-serif"> Gene</text><text text-anchor="middle" pointer-events="none" y="10" font-size="10px" fill="#FFFFFF" font-family="sans-serif"> Hackman</text></g><g class="node" transform="translate(145.20291556856722,11.270156360648897)"><circle class="outline" cx="0" cy="0" r="32.5" fill="#68BDF6" stroke="#5CA8DB" stroke-width="2px"/><text text-anchor="middle" pointer-events="none" y="0" font-size="10px" fill="#FFFFFF" font-family="sans-serif"> Robin</text><text text-anchor="middle" pointer-events="none" y="10" font-size="10px" fill="#FFFFFF" font-family="sans-serif"> Williams</text></g><g class="node" transform="translate(390.2962390317449,26.154042868675088)"><circle class="outline" cx="0" cy="0" r="32.5" fill="#68BDF6" stroke="#5CA8DB" stroke-width="2px"/><text text-anchor="middle" pointer-events="none" y="0" font-size="10px" fill="#FFFFFF" font-family="sans-serif"> Clint</text><text text-anchor="middle" pointer-events="none" y="10" font-size="10px" fill="#FFFFFF" font-family="sans-serif"> Eastwood</text></g><g class="node" transform="translate(-94.84532118215907,119.32335615938266)"><circle class="outline" cx="0" cy="0" r="32.5" fill="#68BDF6" stroke="#5CA8DB" stroke-width="2px"/><text text-anchor="middle" pointer-events="none" y="0" font-size="10px" fill="#FFFFFF" font-family="sans-serif"> Keanu</text><text text-anchor="middle" pointer-events="none" y="10" font-size="10px" fill="#FFFFFF" font-family="sans-serif"> Reeves</text></g><g class="node" transform="translate(24.65756011212214,129.61485166030593)"><circle class="outline" cx="0" cy="0" r="32.5" fill="#6DCE9E" stroke="#60B58B" stroke-width="2px"/><text text-anchor="middle" pointer-events="none" y="0" font-size="10px" fill="#FFFFFF" font-family="sans-serif"> The</text><text text-anchor="middle" pointer-events="none" y="10" font-size="10px" fill="#FFFFFF" font-family="sans-serif"> Replaceme…</text></g><g class="node" transform="translate(-7.374767724657514,8.885319427514824)"><circle class="outline" cx="0" cy="0" r="32.5" fill="#68BDF6" stroke="#5CA8DB" stroke-width="2px"/><text text-anchor="middle" pointer-events="none" y="0" font-size="10px" fill="#FFFFFF" font-family="sans-serif"> Brooke</text><text text-anchor="middle" pointer-events="none" y="10" font-size="10px" fill="#FFFFFF" font-family="sans-serif"> Langton</text></g><g class="node" transform="translate(18.602688324277874,250.20335973088157)"><circle class="outline" cx="0" cy="0" r="32.5" fill="#68BDF6" stroke="#5CA8DB" stroke-width="2px"/><text text-anchor="middle" pointer-events="none" y="0" font-size="10px" fill="#FFFFFF" font-family="sans-serif"> Orlando</text><text text-anchor="middle" pointer-events="none" y="10" font-size="10px" fill="#FFFFFF" font-family="sans-serif"> Jones</text></g></g></svg>