<svg xmlns="http://www.w3.org/2000/svg" width="591.5953369140625" height="546.7821044921875" viewBox="-188.38238525390625 -173.20204162597656 591.5953369140625 546.7821044921875"><title>Neo4j Graph Visualization</title><desc>Created using Neo4j (http://www.neo4j.com/)</desc><g class="layer relationships"><g class="relationship" transform="translate(109.56702581827976 100.7952831143118) rotate(418.9152457011964)"><path class="outline" fill="#A5ABB6" stroke="none" d="M 32.5 0.5 L 42.57868622815761 0.5 L 42.57868622815761 -0.5 L 32.5 -0.5 Z M 88.14118622815761 0.5 L 98.21987245631522 0.5 L 98.21987245631522 3.5 L 105.21987245631522 0 L 98.21987245631522 -3.5 L 98.21987245631522 -0.5 L 88.14118622815761 -0.5 Z"/><text text-anchor="middle" pointer-events="none" font-size="8px" fill="#000000" x="65.35993622815761" y="3" font-family="sans-serif">ACTED_IN</text></g><g class="relationship" transform="translate(207.10931508552196 334.72553673551704) rotate(256.093031211395)"><path class="outline" fill="#A5ABB6" stroke="none" d="M 32.5 0.5 L 40.52168927227464 0.5 L 40.52168927227464 -0.5 L 32.5 -0.5 Z M 86.08418927227464 0.5 L 94.10587854454928 0.5 L 94.10587854454928 3.5 L 101.10587854454928 0 L 94.10587854454928 -3.5 L 94.10587854454928 -0.5 L 86.08418927227464 -0.5 Z"/><text text-anchor="middle" pointer-events="none" font-size="8px" fill="#000000" x="63.30293927227464" y="3" transform="rotate(180 63.30293927227464 0)" font-family="sans-serif">ACTED_IN</text></g><g class="relationship" transform="translate(296.25276245236364 211.14174693524288) rotate(539.4367035122834)"><path class="outline" fill="#A5ABB6" stroke="none" d="M 32.5 0.5 L 37.197888758011686 0.5 L 37.197888758011686 -0.5 L 32.5 -0.5 Z M 82.76038875801169 0.5 L 87.45827751602337 0.5 L 87.45827751602337 3.5 L 94.45827751602337 0 L 87.45827751602337 -3.5 L 87.45827751602337 -0.5 L 82.76038875801169 -0.5 Z"/><text text-anchor="middle" pointer-events="none" font-size="8px" fill="#000000" x="59.979138758011686" y="3" transform="rotate(180 59.979138758011686 0)" font-family="sans-serif">ACTED_IN</text></g><g class="relationship" transform="translate(109.56702581827976 100.7952831143118) rotate(360.141832080719)"><path class="outline" fill="#A5ABB6" stroke="none" d="M 32.5 0.5 L 43.23405975434014 0.5 L 43.23405975434014 -0.5 L 32.5 -0.5 Z M 88.79655975434014 0.5 L 99.53061950868027 0.5 L 99.53061950868027 3.5 L 106.53061950868027 0 L 99.53061950868027 -3.5 L 99.53061950868027 -0.5 L 88.79655975434014 -0.5 Z"/><text text-anchor="middle" pointer-events="none" font-size="8px" fill="#000000" x="66.01530975434014" y="3" font-family="sans-serif">ACTED_IN</text></g><g class="relationship" transform="translate(366.7129515661792 91.45720904703857) rotate(535.6008763022328)"><path class="outline" fill="#A5ABB6" stroke="none" d="M 32.5 0.5 L 40.46218798006564 0.5 L 40.46218798006564 -0.5 L 32.5 -0.5 Z M 86.02468798006564 0.5 L 93.98687596013129 0.5 L 93.98687596013129 3.5 L 100.98687596013129 0 L 93.98687596013129 -3.5 L 93.98687596013129 -0.5 L 86.02468798006564 -0.5 Z"/><text text-anchor="middle" pointer-events="none" font-size="8px" fill="#000000" x="63.24343798006564" y="3" transform="rotate(180 63.24343798006564 0)" font-family="sans-serif">ACTED_IN</text></g><g class="relationship" transform="translate(296.25276245236364 211.14174693524288) rotate(243.3745353767696)"><path class="outline" fill="#A5ABB6" stroke="none" d="M 32.5 0.5 L 39.00476158543826 0.5 L 39.00476158543826 -0.5 L 32.5 -0.5 Z M 84.56726158543826 0.5 L 91.07202317087652 0.5 L 91.07202317087652 3.5 L 98.07202317087652 0 L 91.07202317087652 -3.5 L 91.07202317087652 -0.5 L 84.56726158543826 -0.5 Z"/><text text-anchor="middle" pointer-events="none" font-size="8px" fill="#000000" x="61.78601158543826" y="3" transform="rotate(180 61.78601158543826 0)" font-family="sans-serif">ACTED_IN</text></g><g class="relationship" transform="translate(270.9184466571774 -15.675636476309114) rotate(464.3230964771052)"><path class="outline" fill="#A5ABB6" stroke="none" d="M 32.5 0.5 L 37.740489111244756 0.5 L 37.740489111244756 -0.5 L 32.5 -0.5 Z M 83.30298911124476 0.5 L 88.54347822248951 0.5 L 88.54347822248951 3.5 L 95.54347822248951 0 L 88.54347822248951 -3.5 L 88.54347822248951 -0.5 L 83.30298911124476 -0.5 Z"/><text text-anchor="middle" pointer-events="none" font-size="8px" fill="#000000" x="60.521739111244756" y="3" transform="rotate(180 60.521739111244756 0)" font-family="sans-serif">ACTED_IN</text></g><g class="relationship" transform="translate(109.56702581827976 100.7952831143118) rotate(288.31597905996153)"><path class="outline" fill="#A5ABB6" stroke="none" d="M 32.5 0.5 L 42.65109274513263 0.5 L 42.65109274513263 -0.5 L 32.5 -0.5 Z M 88.21359274513263 0.5 L 98.36468549026526 0.5 L 98.36468549026526 3.5 L 105.36468549026526 0 L 98.36468549026526 -3.5 L 98.36468549026526 -0.5 L 88.21359274513263 -0.5 Z"/><text text-anchor="middle" pointer-events="none" font-size="8px" fill="#000000" x="65.43234274513263" y="3" font-family="sans-serif">ACTED_IN</text></g><g class="relationship" transform="translate(204.36318126038356 -136.70204441018927) rotate(475.3266697153142)"><path class="outline" fill="#A5ABB6" stroke="none" d="M 32.5 0.5 L 40.38459640726754 0.5 L 40.38459640726754 -0.5 L 32.5 -0.5 Z M 85.94709640726754 0.5 L 93.83169281453507 0.5 L 93.83169281453507 3.5 L 100.83169281453507 0 L 93.83169281453507 -3.5 L 93.83169281453507 -0.5 L 85.94709640726754 -0.5 Z"/><text text-anchor="middle" pointer-events="none" font-size="8px" fill="#000000" x="63.16584640726754" y="3" transform="rotate(180 63.16584640726754 0)" font-family="sans-serif">ACTED_IN</text></g><g class="relationship" transform="translate(94.02728504063252 -135.89817702827753) rotate(423.4182610310333)"><path class="outline" fill="#A5ABB6" stroke="none" d="M 32.5 0.5 L 40.60959680852381 0.5 L 40.60959680852381 -0.5 L 32.5 -0.5 Z M 86.1720968085238 0.5 L 94.28169361704762 0.5 L 94.28169361704762 3.5 L 101.28169361704762 0 L 94.28169361704762 -3.5 L 94.28169361704762 -0.5 L 86.1720968085238 -0.5 Z"/><text text-anchor="middle" pointer-events="none" font-size="8px" fill="#000000" x="63.39084680852381" y="3" font-family="sans-serif">ACTED_IN</text></g><g class="relationship" transform="translate(270.9184466571774 -15.675636476309114) rotate(183.46502901885367)"><path class="outline" fill="#A5ABB6" stroke="none" d="M 32.5 0.5 L 37.77067770116364 0.5 L 37.77067770116364 -0.5 L 32.5 -0.5 Z M 83.33317770116363 0.5 L 88.60385540232728 0.5 L 88.60385540232728 3.5 L 95.60385540232728 0 L 88.60385540232728 -3.5 L 88.60385540232728 -0.5 L 83.33317770116363 -0.5 Z"/><text text-anchor="middle" pointer-events="none" font-size="8px" fill="#000000" x="60.55192770116364" y="3" transform="rotate(180 60.55192770116364 0)" font-family="sans-serif">ACTED_IN</text></g><g class="relationship" transform="translate(109.56702581827976 100.7952831143118) rotate(223.950314880002)"><path class="outline" fill="#A5ABB6" stroke="none" d="M 32.5 0.5 L 43.7118604430967 0.5 L 43.7118604430967 -0.5 L 32.5 -0.5 Z M 89.2743604430967 0.5 L 100.4862208861934 0.5 L 100.4862208861934 3.5 L 107.4862208861934 0 L 100.4862208861934 -3.5 L 100.4862208861934 -0.5 L 89.2743604430967 -0.5 Z"/><text text-anchor="middle" pointer-events="none" font-size="8px" fill="#000000" x="66.4931104430967" y="3" transform="rotate(180 66.4931104430967 0)" font-family="sans-serif">ACTED_IN</text></g><g class="relationship" transform="translate(-83.12538549732163 -75.42130074390623) rotate(400.89125595441647)"><path class="outline" fill="#A5ABB6" stroke="none" d="M 32.5 0.5 L 41.83120272529602 0.5 L 41.83120272529602 -0.5 L 32.5 -0.5 Z M 87.39370272529602 0.5 L 96.72490545059205 0.5 L 96.72490545059205 3.5 L 103.72490545059205 0 L 96.72490545059205 -3.5 L 96.72490545059205 -0.5 L 87.39370272529602 -0.5 Z"/><text text-anchor="middle" pointer-events="none" font-size="8px" fill="#000000" x="64.61245272529602" y="3" font-family="sans-serif">ACTED_IN</text></g><g class="relationship" transform="translate(109.56702581827976 100.7952831143118) rotate(537.1308011611045)"><path class="outline" fill="#A5ABB6" stroke="none" d="M 32.5 0.5 L 44.23050618206928 0.5 L 44.23050618206928 -0.5 L 32.5 -0.5 Z M 89.79300618206928 0.5 L 101.52351236413855 0.5 L 101.52351236413855 3.5 L 108.52351236413855 0 L 101.52351236413855 -3.5 L 101.52351236413855 -0.5 L 89.79300618206928 -0.5 Z"/><text text-anchor="middle" pointer-events="none" font-size="8px" fill="#000000" x="67.01175618206928" y="3" transform="rotate(180 67.01175618206928 0)" font-family="sans-serif">ACTED_IN</text></g><g class="relationship" transform="translate(-151.88238013430484 107.09776150423453) rotate(360.1705002119859)"><path class="outline" fill="#A5ABB6" stroke="none" d="M 32.5 0.5 L 41.51567219486084 0.5 L 41.51567219486084 -0.5 L 32.5 -0.5 Z M 87.07817219486084 0.5 L 96.09384438972168 0.5 L 96.09384438972168 3.5 L 103.09384438972168 0 L 96.09384438972168 -3.5 L 96.09384438972168 -0.5 L 87.07817219486084 -0.5 Z"/><text text-anchor="middle" pointer-events="none" font-size="8px" fill="#000000" x="64.29692219486084" y="3" font-family="sans-serif">ACTED_IN</text></g><g class="relationship" transform="translate(109.56702581827976 100.7952831143118) rotate(482.3169634154726)"><path class="outline" fill="#A5ABB6" stroke="none" d="M 32.5 0.5 L 43.46521447721973 0.5 L 43.46521447721973 -0.5 L 32.5 -0.5 Z M 89.02771447721973 0.5 L 99.99292895443946 0.5 L 99.99292895443946 3.5 L 106.99292895443946 0 L 99.99292895443946 -3.5 L 99.99292895443946 -0.5 L 89.02771447721973 -0.5 Z"/><text text-anchor="middle" pointer-events="none" font-size="8px" fill="#000000" x="66.24646447721973" y="3" transform="rotate(180 66.24646447721973 0)" font-family="sans-serif">ACTED_IN</text></g><g class="relationship" transform="translate(-70.62752253864898 276.7815082916533) rotate(329.5539394467265)"><path class="outline" fill="#A5ABB6" stroke="none" d="M 32.5 0.5 L 41.05183226533953 0.5 L 41.05183226533953 -0.5 L 32.5 -0.5 Z M 86.61433226533953 0.5 L 95.16616453067905 0.5 L 95.16616453067905 3.5 L 102.16616453067905 0 L 95.16616453067905 -3.5 L 95.16616453067905 -0.5 L 86.61433226533953 -0.5 Z"/><text text-anchor="middle" pointer-events="none" font-size="8px" fill="#000000" x="63.83308226533953" y="3" font-family="sans-serif">ACTED_IN</text></g><g class="relationship" transform="translate(18.988353307828874 337.0800389961941) rotate(279.11579585637134)"><path class="outline" fill="#A5ABB6" stroke="none" d="M 32.5 0.5 L 40.63505871322788 0.5 L 40.63505871322788 -0.5 L 32.5 -0.5 Z M 86.19755871322788 0.5 L 94.33261742645576 0.5 L 94.33261742645576 3.5 L 101.33261742645576 0 L 94.33261742645576 -3.5 L 94.33261742645576 -0.5 L 86.19755871322788 -0.5 Z"/><text text-anchor="middle" pointer-events="none" font-size="8px" fill="#000000" x="63.41630871322788" y="3" font-family="sans-serif">ACTED_IN</text></g></g><g class="layer nodes"><g class="node" transform="translate(176.8002580695208,212.3161675422506)"><circle class="outline" cx="0" cy="0" r="25" fill="#68BDF6" stroke="#5CA8DB" stroke-width="2px"/><text text-anchor="middle" pointer-events="none" y="-10" font-size="10px" fill="#FFFFFF" font-family="sans-serif"> A</text><text text-anchor="middle" pointer-events="none" y="0" font-size="10px" fill="#FFFFFF" font-family="sans-serif"> League</text><text text-anchor="middle" pointer-events="none" y="10" font-size="10px" fill="#FFFFFF" font-family="sans-serif"> of Their</text><text text-anchor="middle" pointer-events="none" y="20" font-size="10px" fill="#FFFFFF" font-family="sans-serif"> Own</text></g><g class="node" transform="translate(207.10931508552196,334.72553673551704)"><circle class="outline" cx="0" cy="0" r="32.5" fill="#6DCE9E" stroke="#60B58B" stroke-width="2px"/><text text-anchor="middle" pointer-events="none" y="5" font-size="10px" fill="#FFFFFF" font-family="sans-serif"> Madonna</text></g><g class="node" transform="translate(109.56702581827976,100.7952831143118)"><circle class="outline" cx="0" cy="0" r="32.5" fill="#6DCE9E" stroke="#60B58B" stroke-width="2px"/><text text-anchor="middle" pointer-events="none" y="5" font-size="10px" fill="#FFFFFF" font-family="sans-serif"> Tom Hanks</text></g><g class="node" transform="translate(296.25276245236364,211.14174693524288)"><circle class="outline" cx="0" cy="0" r="32.5" fill="#6DCE9E" stroke="#60B58B" stroke-width="2px"/><text text-anchor="middle" pointer-events="none" y="5" font-size="10px" fill="#FFFFFF" font-family="sans-serif"> Bill Paxton</text></g><g class="node" transform="translate(241.0972423313347,101.12087851678537)"><circle class="outline" cx="0" cy="0" r="25" fill="#68BDF6" stroke="#5CA8DB" stroke-width="2px"/><text text-anchor="middle" pointer-events="none" y="5" font-size="10px" fill="#FFFFFF" font-family="sans-serif"> Apollo 13</text></g><g class="node" transform="translate(366.7129515661792,91.45720904703857)"><circle class="outline" cx="0" cy="0" r="32.5" fill="#6DCE9E" stroke="#60B58B" stroke-width="2px"/><text text-anchor="middle" pointer-events="none" y="5" font-size="10px" fill="#FFFFFF" font-family="sans-serif"> Ed Harris</text></g><g class="node" transform="translate(270.9184466571774,-15.675636476309114)"><circle class="outline" cx="0" cy="0" r="32.5" fill="#6DCE9E" stroke="#60B58B" stroke-width="2px"/><text text-anchor="middle" pointer-events="none" y="5" font-size="10px" fill="#FFFFFF" font-family="sans-serif"> Gary Sinise</text></g><g class="node" transform="translate(150.5350702975028,-22.96485002445054)"><circle class="outline" cx="0" cy="0" r="25" fill="#68BDF6" stroke="#5CA8DB" stroke-width="2px"/><text text-anchor="middle" pointer-events="none" y="-5" font-size="10px" fill="#FFFFFF" font-family="sans-serif"> The</text><text text-anchor="middle" pointer-events="none" y="5" font-size="10px" fill="#FFFFFF" font-family="sans-serif"> Green</text><text text-anchor="middle" pointer-events="none" y="15" font-size="10px" fill="#FFFFFF" font-family="sans-serif"> Mile</text></g><g class="node" transform="translate(204.36318126038356,-136.70204441018927)"><circle class="outline" cx="0" cy="0" r="32.5" fill="#6DCE9E" stroke="#60B58B" stroke-width="2px"/><text text-anchor="middle" pointer-events="none" y="5" font-size="10px" fill="#FFFFFF" font-family="sans-serif"> David Morse</text></g><g class="node" transform="translate(94.02728504063252,-135.89817702827753)"><circle class="outline" cx="0" cy="0" r="32.5" fill="#6DCE9E" stroke="#60B58B" stroke-width="2px"/><text text-anchor="middle" pointer-events="none" y="0" font-size="10px" fill="#FFFFFF" font-family="sans-serif"> James</text><text text-anchor="middle" pointer-events="none" y="10" font-size="10px" fill="#FFFFFF" font-family="sans-serif"> Cromwell</text></g><g class="node" transform="translate(14.184642115709961,8.84529886243182)"><circle class="outline" cx="0" cy="0" r="25" fill="#68BDF6" stroke="#5CA8DB" stroke-width="2px"/><text text-anchor="middle" pointer-events="none" y="-5" font-size="10px" fill="#FFFFFF" font-family="sans-serif"> The Da</text><text text-anchor="middle" pointer-events="none" y="5" font-size="10px" fill="#FFFFFF" font-family="sans-serif"> Vinci</text><text text-anchor="middle" pointer-events="none" y="15" font-size="10px" fill="#FFFFFF" font-family="sans-serif"> Code</text></g><g class="node" transform="translate(-83.12538549732163,-75.42130074390623)"><circle class="outline" cx="0" cy="0" r="32.5" fill="#6DCE9E" stroke="#60B58B" stroke-width="2px"/><text text-anchor="middle" pointer-events="none" y="5" font-size="10px" fill="#FFFFFF" font-family="sans-serif"> Ian McKellen</text></g><g class="node" transform="translate(-23.789102900576303,107.47894133239502)"><circle class="outline" cx="0" cy="0" r="25" fill="#68BDF6" stroke="#5CA8DB" stroke-width="2px"/><text text-anchor="middle" pointer-events="none" y="0" font-size="10px" fill="#FFFFFF" font-family="sans-serif"> Cloud</text><text text-anchor="middle" pointer-events="none" y="10" font-size="10px" fill="#FFFFFF" font-family="sans-serif"> Atlas</text></g><g class="node" transform="translate(-151.88238013430484,107.09776150423453)"><circle class="outline" cx="0" cy="0" r="32.5" fill="#6DCE9E" stroke="#60B58B" stroke-width="2px"/><text text-anchor="middle" pointer-events="none" y="0" font-size="10px" fill="#FFFFFF" font-family="sans-serif"> Jim</text><text text-anchor="middle" pointer-events="none" y="10" font-size="10px" fill="#FFFFFF" font-family="sans-serif"> Broadbent</text></g><g class="node" transform="translate(39.00326539357535,212.34298147109826)"><circle class="outline" cx="0" cy="0" r="25" fill="#68BDF6" stroke="#5CA8DB" stroke-width="2px"/><text text-anchor="middle" pointer-events="none" y="5" font-size="10px" fill="#FFFFFF" font-family="sans-serif"> Sleepless</text></g><g class="node" transform="translate(-70.62752253864898,276.7815082916533)"><circle class="outline" cx="0" cy="0" r="32.5" fill="#6DCE9E" stroke="#60B58B" stroke-width="2px"/><text text-anchor="middle" pointer-events="none" y="5" font-size="10px" fill="#FFFFFF" font-family="sans-serif"> Bill Pullman</text></g><g class="node" transform="translate(18.988353307828874,337.0800389961941)"><circle class="outline" cx="0" cy="0" r="32.5" fill="#6DCE9E" stroke="#60B58B" stroke-width="2px"/><text text-anchor="middle" pointer-events="none" y="5" font-size="10px" fill="#FFFFFF" font-family="sans-serif"> Victor Garber</text></g></g></svg>