<svg xmlns="http://www.w3.org/2000/svg" width="353.2653503417969" height="117.91031646728516" viewBox="-33.55975341796875 72.3855972290039 353.2653503417969 117.91031646728516"><title>Neo4j Graph Visualization</title><desc>Created using Neo4j (http://www.neo4j.com/)</desc><g class="layer relationships"><g class="relationship" transform="translate(283.20560329643797 108.88559897441544) rotate(537.2113779429642)"><path class="outline" fill="#A5ABB6" stroke="none" d="M 31.26317983184346,8.894581878976458 L 31.52199887694598,7.92865605268739 A 156.8502299630431 156.8502299630431 0 0 0 47.66879746929627,11.355984766126738 L 47.51292247850694,12.34376155632097 A 157.8502299630431 157.8502299630431 0 0 1 31.26317983184346,8.894581878976458 Z M 93.05755391449455,12.87814656841033 L 92.92489824272704,11.886984385542206 A 156.8502299630431 156.8502299630431 0 0 0 109.14766774784157,8.839454816232573 L 108.439415509962,5.92425692114233 L 116.06783820936539,7.672732577028626 L 110.09200406501432,12.726385343019565 L 109.38375182713476,9.811187447929322 A 157.8502299630431 157.8502299630431 0 0 1 93.05755391449455,12.87814656841033"/><text text-anchor="middle" pointer-events="none" font-size="8px" fill="#000000" x="70.27172840679123" y="16.762368078810283" transform="rotate(180 70.27172840679123 13.762368078810283)" font-family="sans-serif">ACTED_IN</text></g><g class="relationship" transform="translate(2.9402481438553068 153.79591602648446) rotate(344.1397371218043)"><path class="outline" fill="#A5ABB6" stroke="none" d="M 32.5 0.5 L 42.74191208556921 0.5 L 42.74191208556921 -0.5 L 32.5 -0.5 Z M 88.30441208556921 0.5 L 98.54632417113842 0.5 L 98.54632417113842 3.5 L 105.54632417113842 0 L 98.54632417113842 -3.5 L 98.54632417113842 -0.5 L 88.30441208556921 -0.5 Z"/><text text-anchor="middle" pointer-events="none" font-size="8px" fill="#000000" x="65.52316208556921" y="3" font-family="sans-serif">ACTED_IN</text></g><g class="relationship" transform="translate(283.20560329643797 108.88559897441544) rotate(537.2113779429642)"><path class="outline" fill="#A5ABB6" stroke="none" d="M 31.26317983184346,-8.894581878976458 L 31.52199887694598,-7.92865605268739 A 156.8502299630431 156.8502299630431 0 0 1 47.01515596222838,-11.251423517080013 L 46.855113674347905,-12.238533676125087 A 157.8502299630431 157.8502299630431 0 0 0 31.26317983184346,-8.894581878976458 Z M 93.71765060771767,-12.78838195848246 L 93.58081314480943,-11.79778844510534 A 156.8502299630431 156.8502299630431 0 0 1 109.14766774784157,-8.839454816232573 L 108.439415509962,-5.92425692114233 L 116.06783820936539,-7.672732577028626 L 110.09200406501432,-12.726385343019565 L 109.38375182713476,-9.811187447929322 A 157.8502299630431 157.8502299630431 0 0 0 93.71765060771767,-12.78838195848246"/><text text-anchor="middle" pointer-events="none" font-size="8px" fill="#000000" x="70.27172840679121" y="-10.762368078810283" transform="rotate(180 70.27172840679121 -13.762368078810283)" font-family="sans-serif">DIRECTED</text></g></g><g class="layer nodes"><g class="node" transform="translate(135.73129796801732,116.06894021659537)"><circle class="outline" cx="0" cy="0" r="32.5" fill="#6DCE9E" stroke="#60B58B" stroke-width="2px"/><text text-anchor="middle" pointer-events="none" y="5" font-size="10px" fill="#FFFFFF" font-family="sans-serif"> Unforgiven</text></g><g class="node" transform="translate(283.20560329643797,108.88559897441544)"><circle class="outline" cx="0" cy="0" r="32.5" fill="#68BDF6" stroke="#5CA8DB" stroke-width="2px"/><text text-anchor="middle" pointer-events="none" y="0" font-size="10px" fill="#FFFFFF" font-family="sans-serif"> Clint</text><text text-anchor="middle" pointer-events="none" y="10" font-size="10px" fill="#FFFFFF" font-family="sans-serif"> Eastwood</text></g><g class="node" transform="translate(2.9402481438553068,153.79591602648446)"><circle class="outline" cx="0" cy="0" r="32.5" fill="#68BDF6" stroke="#5CA8DB" stroke-width="2px"/><text text-anchor="middle" pointer-events="none" y="0" font-size="10px" fill="#FFFFFF" font-family="sans-serif"> Gene</text><text text-anchor="middle" pointer-events="none" y="10" font-size="10px" fill="#FFFFFF" font-family="sans-serif"> Hackman</text></g></g></svg>