<svg xmlns="http://www.w3.org/2000/svg" width="277.464599609375" height="191.95277404785156" viewBox="-30.086380004882812 22.455455780029297 277.464599609375 191.95277404785156"><title>Neo4j Graph Visualization</title><desc>Created using Neo4j (http://www.neo4j.com/)</desc><g class="layer relationships"><g class="relationship" transform="translate(124.35991870620622 177.9082391678284) rotate(316.78747712293193)"><path class="outline" fill="#A5ABB6" stroke="none" d="M 32.5 0.5 L 33.073865523200475 0.5 L 33.073865523200475 -0.5 L 32.5 -0.5 Z M 78.63636552320048 0.5 L 79.21023104640095 0.5 L 79.21023104640095 3.5 L 86.21023104640095 0 L 79.21023104640095 -3.5 L 79.21023104640095 -0.5 L 78.63636552320048 -0.5 Z"/><text text-anchor="middle" pointer-events="none" font-size="8px" fill="#000000" x="55.855115523200475" y="3" font-family="sans-serif">ACTED_IN</text></g><g class="relationship" transform="translate(124.35991870620622 177.9082391678284) rotate(252.51005006929)"><path class="outline" fill="#A5ABB6" stroke="none" d="M 32.5 0.5 L 36.07803029476844 0.5 L 36.07803029476844 -0.5 L 32.5 -0.5 Z M 81.64053029476844 0.5 L 85.21856058953688 0.5 L 85.21856058953688 3.5 L 92.21856058953688 0 L 85.21856058953688 -3.5 L 85.21856058953688 -0.5 L 81.64053029476844 -0.5 Z"/><text text-anchor="middle" pointer-events="none" font-size="8px" fill="#000000" x="58.85928029476844" y="3" transform="rotate(180 58.85928029476844 0)" font-family="sans-serif">ACTED_IN</text></g><g class="relationship" transform="translate(124.35991870620622 177.9082391678284) rotate(187.2192750966916)"><path class="outline" fill="#A5ABB6" stroke="none" d="M 32.5 0.5 L 33.163145629000724 0.5 L 33.163145629000724 -0.5 L 32.5 -0.5 Z M 78.72564562900072 0.5 L 79.38879125800145 0.5 L 79.38879125800145 3.5 L 86.38879125800145 0 L 79.38879125800145 -3.5 L 79.38879125800145 -0.5 L 78.72564562900072 -0.5 Z"/><text text-anchor="middle" pointer-events="none" font-size="8px" fill="#000000" x="55.944395629000724" y="3" transform="rotate(180 55.944395629000724 0)" font-family="sans-serif">ACTED_IN</text></g></g><g class="layer nodes"><g class="node" transform="translate(124.35991870620622,177.9082391678284)"><circle class="outline" cx="0" cy="0" r="32.5" fill="#68BDF6" stroke="#5CA8DB" stroke-width="2px"/><text text-anchor="middle" pointer-events="none" y="0" font-size="10px" fill="#FFFFFF" font-family="sans-serif"> Keanu</text><text text-anchor="middle" pointer-events="none" y="10" font-size="10px" fill="#FFFFFF" font-family="sans-serif"> Reeves</text></g><g class="node" transform="translate(210.8781895988027,96.62658221593558)"><circle class="outline" cx="0" cy="0" r="32.5" fill="#6DCE9E" stroke="#60B58B" stroke-width="2px"/><text text-anchor="middle" pointer-events="none" y="0" font-size="10px" fill="#FFFFFF" font-family="sans-serif"> The Matrix</text><text text-anchor="middle" pointer-events="none" y="10" font-size="10px" fill="#FFFFFF" font-family="sans-serif"> Revolutions</text></g><g class="node" transform="translate(86.87718878109287,58.95545730507837)"><circle class="outline" cx="0" cy="0" r="32.5" fill="#6DCE9E" stroke="#60B58B" stroke-width="2px"/><text text-anchor="middle" pointer-events="none" y="0" font-size="10px" fill="#FFFFFF" font-family="sans-serif"> The Matrix</text><text text-anchor="middle" pointer-events="none" y="10" font-size="10px" fill="#FFFFFF" font-family="sans-serif"> Reloaded</text></g><g class="node" transform="translate(6.413620560282012,162.96784290596844)"><circle class="outline" cx="0" cy="0" r="32.5" fill="#6DCE9E" stroke="#60B58B" stroke-width="2px"/><text text-anchor="middle" pointer-events="none" y="5" font-size="10px" fill="#FFFFFF" font-family="sans-serif"> The Matrix</text></g></g></svg>