<svg xmlns="http://www.w3.org/2000/svg" width="266.1793212890625" height="261.9472351074219" viewBox="-30.800094604492188 -15.89360237121582 266.1793212890625 261.9472351074219"><title>Neo4j Graph Visualization</title><desc>Created using Neo4j (http://www.neo4j.com/)</desc><g class="layer relationships"><g class="relationship" transform="translate(85.30196961107794 125.05577481729821) rotate(377.9134267047198)"><path class="outline" fill="#A5ABB6" stroke="none" d="M 32.5 0.5 L 33.40062584323636 0.5 L 33.40062584323636 -0.5 L 32.5 -0.5 Z M 78.96312584323636 0.5 L 79.86375168647272 0.5 L 79.86375168647272 3.5 L 86.86375168647272 0 L 79.86375168647272 -3.5 L 79.86375168647272 -0.5 L 78.96312584323636 -0.5 Z"/><text text-anchor="middle" pointer-events="none" font-size="8px" fill="#000000" x="56.18187584323636" y="3" font-family="sans-serif">ACTED_IN</text></g><g class="relationship" transform="translate(85.30196961107794 125.05577481729821) rotate(308.35440528508065)"><path class="outline" fill="#A5ABB6" stroke="none" d="M 32.5 0.5 L 34.10526088319016 0.5 L 34.10526088319016 -0.5 L 32.5 -0.5 Z M 79.66776088319017 0.5 L 81.27302176638032 0.5 L 81.27302176638032 3.5 L 88.27302176638032 0 L 81.27302176638032 -3.5 L 81.27302176638032 -0.5 L 79.66776088319017 -0.5 Z"/><text text-anchor="middle" pointer-events="none" font-size="8px" fill="#000000" x="56.88651088319016" y="3" font-family="sans-serif">ACTED_IN</text></g><g class="relationship" transform="translate(85.30196961107794 125.05577481729821) rotate(240.2229177219449)"><path class="outline" fill="#A5ABB6" stroke="none" d="M 32.5 0.5 L 33.88792577416513 0.5 L 33.88792577416513 -0.5 L 32.5 -0.5 Z M 79.45042577416513 0.5 L 80.83835154833027 0.5 L 80.83835154833027 3.5 L 87.83835154833027 0 L 80.83835154833027 -3.5 L 80.83835154833027 -0.5 L 79.45042577416513 -0.5 Z"/><text text-anchor="middle" pointer-events="none" font-size="8px" fill="#000000" x="56.66917577416513" y="3" transform="rotate(180 56.66917577416513 0)" font-family="sans-serif">ACTED_IN</text></g><g class="relationship" transform="translate(85.30196961107794 125.05577481729821) rotate(493.29112929851055)"><path class="outline" fill="#A5ABB6" stroke="none" d="M 32.5 0.5 L 33.98726117498894 0.5 L 33.98726117498894 -0.5 L 32.5 -0.5 Z M 75.10054242498893 0.5 L 76.58780359997787 0.5 L 76.58780359997787 3.5 L 83.58780359997787 0 L 76.58780359997787 -3.5 L 76.58780359997787 -0.5 L 75.10054242498893 -0.5 Z"/><text text-anchor="middle" pointer-events="none" font-size="8px" fill="#000000" x="54.54390179998894" y="3" transform="rotate(180 54.54390179998894 0)" font-family="sans-serif">ACTED…</text></g></g><g class="layer nodes"><g class="node" transform="translate(85.30196961107794,125.05577481729821)"><circle class="outline" cx="0" cy="0" r="32.5" fill="#68BDF6" stroke="#5CA8DB" stroke-width="2px"/><text text-anchor="middle" pointer-events="none" y="5" font-size="10px" fill="#FFFFFF" font-family="sans-serif"> Tom Hanks</text></g><g class="node" transform="translate(198.87924732814426,161.76963055393134)"><circle class="outline" cx="0" cy="0" r="32.5" fill="#6DCE9E" stroke="#60B58B" stroke-width="2px"/><text text-anchor="middle" pointer-events="none" y="5" font-size="10px" fill="#FFFFFF" font-family="sans-serif"> Cloud Atlas</text></g><g class="node" transform="translate(160.2445206500827,30.347080230429686)"><circle class="outline" cx="0" cy="0" r="32.5" fill="#6DCE9E" stroke="#60B58B" stroke-width="2px"/><text text-anchor="middle" pointer-events="none" y="0" font-size="10px" fill="#FFFFFF" font-family="sans-serif"> The Da Vinci</text><text text-anchor="middle" pointer-events="none" y="10" font-size="10px" fill="#FFFFFF" font-family="sans-serif"> Code</text></g><g class="node" transform="translate(25.538716272234776,20.60639758733684)"><circle class="outline" cx="0" cy="0" r="32.5" fill="#6DCE9E" stroke="#60B58B" stroke-width="2px"/><text text-anchor="middle" pointer-events="none" y="0" font-size="10px" fill="#FFFFFF" font-family="sans-serif"> Charlie</text><text text-anchor="middle" pointer-events="none" y="10" font-size="10px" fill="#FFFFFF" font-family="sans-serif"> Wilson's War</text></g><g class="node" transform="translate(5.699904605835613,209.55364101265377)"><circle class="outline" cx="0" cy="0" r="32.5" fill="#6DCE9E" stroke="#60B58B" stroke-width="2px"/><text text-anchor="middle" pointer-events="none" y="0" font-size="10px" fill="#FFFFFF" font-family="sans-serif"> The Polar</text><text text-anchor="middle" pointer-events="none" y="10" font-size="10px" fill="#FFFFFF" font-family="sans-serif"> Express</text></g></g></svg>