<svg xmlns="http://www.w3.org/2000/svg" width="324.23590087890625" height="320.18023681640625" viewBox="-55.33062744140625 -60.05342102050781 324.23590087890625 320.18023681640625"><title>Neo4j Graph Visualization</title><desc>Created using Neo4j (http://www.neo4j.com/)</desc><g class="layer relationships"><g class="relationship" transform="translate(108.5864601092775 104.96125136340284) rotate(428.6007291457588)"><path class="outline" fill="#A5ABB6" stroke="none" d="M 32.5 0.5 L 37.44476941808114 0.5 L 37.44476941808114 -0.5 L 32.5 -0.5 Z M 83.00726941808114 0.5 L 87.95203883616227 0.5 L 87.95203883616227 3.5 L 94.95203883616227 0 L 87.95203883616227 -3.5 L 87.95203883616227 -0.5 L 83.00726941808114 -0.5 Z"/><text text-anchor="middle" pointer-events="none" font-size="8px" fill="#000000" x="60.22601941808114" y="3" font-family="sans-serif">ACTED_IN</text></g><g class="relationship" transform="translate(108.5864601092775 104.96125136340284) rotate(374.4165863808322)"><path class="outline" fill="#A5ABB6" stroke="none" d="M 32.5 0.5 L 37.64100303726208 0.5 L 37.64100303726208 -0.5 L 32.5 -0.5 Z M 83.20350303726208 0.5 L 88.34450607452416 0.5 L 88.34450607452416 3.5 L 95.34450607452416 0 L 88.34450607452416 -3.5 L 88.34450607452416 -0.5 L 83.20350303726208 -0.5 Z"/><text text-anchor="middle" pointer-events="none" font-size="8px" fill="#000000" x="60.42225303726208" y="3" font-family="sans-serif">ACTED_IN</text></g><g class="relationship" transform="translate(108.5864601092775 104.96125136340284) rotate(320.65941995146414)"><path class="outline" fill="#A5ABB6" stroke="none" d="M 32.5 0.5 L 37.6894766096921 0.5 L 37.6894766096921 -0.5 L 32.5 -0.5 Z M 83.2519766096921 0.5 L 88.4414532193842 0.5 L 88.4414532193842 3.5 L 95.4414532193842 0 L 88.4414532193842 -3.5 L 88.4414532193842 -0.5 L 83.2519766096921 -0.5 Z"/><text text-anchor="middle" pointer-events="none" font-size="8px" fill="#000000" x="60.4707266096921" y="3" font-family="sans-serif">ACTED_IN</text></g><g class="relationship" transform="translate(108.5864601092775 104.96125136340284) rotate(220.36349623666945)"><path class="outline" fill="#A5ABB6" stroke="none" d="M 32.5 0.5 L 37.69152292076449 0.5 L 37.69152292076449 -0.5 L 32.5 -0.5 Z M 83.2540229207645 0.5 L 88.44554584152898 0.5 L 88.44554584152898 3.5 L 95.44554584152898 0 L 88.44554584152898 -3.5 L 88.44554584152898 -0.5 L 83.2540229207645 -0.5 Z"/><text text-anchor="middle" pointer-events="none" font-size="8px" fill="#000000" x="60.47277292076449" y="3" transform="rotate(180 60.47277292076449 0)" font-family="sans-serif">ACTED_IN</text></g><g class="relationship" transform="translate(108.5864601092775 104.96125136340284) rotate(533.0127664080036)"><path class="outline" fill="#A5ABB6" stroke="none" d="M 32.5 0.5 L 37.90397907108711 0.5 L 37.90397907108711 -0.5 L 32.5 -0.5 Z M 83.46647907108711 0.5 L 88.87045814217421 0.5 L 88.87045814217421 3.5 L 95.87045814217421 0 L 88.87045814217421 -3.5 L 88.87045814217421 -0.5 L 83.46647907108711 -0.5 Z"/><text text-anchor="middle" pointer-events="none" font-size="8px" fill="#000000" x="60.68522907108711" y="3" transform="rotate(180 60.68522907108711 0)" font-family="sans-serif">ACTED_IN</text></g><g class="relationship" transform="translate(108.5864601092775 104.96125136340284) rotate(267.6933794626171)"><path class="outline" fill="#A5ABB6" stroke="none" d="M 32.5 0.5 L 38.02819256241985 0.5 L 38.02819256241985 -0.5 L 32.5 -0.5 Z M 83.59069256241985 0.5 L 89.1188851248397 0.5 L 89.1188851248397 3.5 L 96.1188851248397 0 L 89.1188851248397 -3.5 L 89.1188851248397 -0.5 L 83.59069256241985 -0.5 Z"/><text text-anchor="middle" pointer-events="none" font-size="8px" fill="#000000" x="60.80944256241985" y="3" transform="rotate(180 60.80944256241985 0)" font-family="sans-serif">ACTED_IN</text></g><g class="relationship" transform="translate(108.5864601092775 104.96125136340284) rotate(481.7237698677381)"><path class="outline" fill="#A5ABB6" stroke="none" d="M 32.5 0.5 L 37.901794714586984 0.5 L 37.901794714586984 -0.5 L 32.5 -0.5 Z M 83.46429471458698 0.5 L 88.86608942917397 0.5 L 88.86608942917397 3.5 L 95.86608942917397 0 L 88.86608942917397 -3.5 L 88.86608942917397 -0.5 L 83.46429471458698 -0.5 Z"/><text text-anchor="middle" pointer-events="none" font-size="8px" fill="#000000" x="60.683044714586984" y="3" transform="rotate(180 60.683044714586984 0)" font-family="sans-serif">ACTED_IN</text></g></g><g class="layer nodes"><g class="node" transform="translate(108.5864601092775,104.96125136340284)"><circle class="outline" cx="0" cy="0" r="32.5" fill="#68BDF6" stroke="#5CA8DB" stroke-width="2px"/><text text-anchor="middle" pointer-events="none" y="0" font-size="10px" fill="#FFFFFF" font-family="sans-serif"> Keanu</text><text text-anchor="middle" pointer-events="none" y="10" font-size="10px" fill="#FFFFFF" font-family="sans-serif"> Reeves</text></g><g class="node" transform="translate(155.08924006370378,223.62680516906636)"><circle class="outline" cx="0" cy="0" r="32.5" fill="#6DCE9E" stroke="#60B58B" stroke-width="2px"/><text text-anchor="middle" pointer-events="none" y="0" font-size="10px" fill="#FFFFFF" font-family="sans-serif"> Something's</text><text text-anchor="middle" pointer-events="none" y="10" font-size="10px" fill="#FFFFFF" font-family="sans-serif"> Gotta Give</text></g><g class="node" transform="translate(232.40528690457404,136.79073242224825)"><circle class="outline" cx="0" cy="0" r="32.5" fill="#6DCE9E" stroke="#60B58B" stroke-width="2px"/><text text-anchor="middle" pointer-events="none" y="0" font-size="10px" fill="#FFFFFF" font-family="sans-serif"> Johnny</text><text text-anchor="middle" pointer-events="none" y="10" font-size="10px" fill="#FFFFFF" font-family="sans-serif"> Mnemonic</text></g><g class="node" transform="translate(207.53528231900793,23.8554806982089)"><circle class="outline" cx="0" cy="0" r="32.5" fill="#6DCE9E" stroke="#60B58B" stroke-width="2px"/><text text-anchor="middle" pointer-events="none" y="0" font-size="10px" fill="#FFFFFF" font-family="sans-serif"> The</text><text text-anchor="middle" pointer-events="none" y="10" font-size="10px" fill="#FFFFFF" font-family="sans-serif"> Replaceme…</text></g><g class="node" transform="translate(11.098213635207266,22.09929085016293)"><circle class="outline" cx="0" cy="0" r="32.5" fill="#6DCE9E" stroke="#60B58B" stroke-width="2px"/><text text-anchor="middle" pointer-events="none" y="0" font-size="10px" fill="#FFFFFF" font-family="sans-serif"> The Devil's</text><text text-anchor="middle" pointer-events="none" y="10" font-size="10px" fill="#FFFFFF" font-family="sans-serif"> Advocate</text></g><g class="node" transform="translate(-18.83062676685643,120.5772846507471)"><circle class="outline" cx="0" cy="0" r="32.5" fill="#6DCE9E" stroke="#60B58B" stroke-width="2px"/><text text-anchor="middle" pointer-events="none" y="0" font-size="10px" fill="#FFFFFF" font-family="sans-serif"> The Matrix</text><text text-anchor="middle" pointer-events="none" y="10" font-size="10px" fill="#FFFFFF" font-family="sans-serif"> Revolutions</text></g><g class="node" transform="translate(103.40990376825829,-23.553420465166873)"><circle class="outline" cx="0" cy="0" r="32.5" fill="#6DCE9E" stroke="#60B58B" stroke-width="2px"/><text text-anchor="middle" pointer-events="none" y="0" font-size="10px" fill="#FFFFFF" font-family="sans-serif"> The Matrix</text><text text-anchor="middle" pointer-events="none" y="10" font-size="10px" fill="#FFFFFF" font-family="sans-serif"> Reloaded</text></g><g class="node" transform="translate(41.0884156358452,214.14855331560443)"><circle class="outline" cx="0" cy="0" r="32.5" fill="#6DCE9E" stroke="#60B58B" stroke-width="2px"/><text text-anchor="middle" pointer-events="none" y="5" font-size="10px" fill="#FFFFFF" font-family="sans-serif"> The Matrix</text></g></g></svg>