<svg xmlns="http://www.w3.org/2000/svg" width="355.6226501464844" height="361.1967468261719" viewBox="-78.4564437866211 -81.3682632446289 355.6226501464844 361.1967468261719"><title>Neo4j Graph Visualization</title><desc>Created using Neo4j (http://www.neo4j.com/)</desc><g class="layer relationships"><g class="relationship" transform="translate(100.2355776287653 99.84454658729858) rotate(443.3700825441927)"><path class="outline" fill="#A5ABB6" stroke="none" d="M 32.5 0.5 L 45.94370791339898 0.5 L 45.94370791339898 -0.5 L 32.5 -0.5 Z M 91.50620791339898 0.5 L 104.94991582679796 0.5 L 104.94991582679796 3.5 L 111.94991582679796 0 L 104.94991582679796 -3.5 L 104.94991582679796 -0.5 L 91.50620791339898 -0.5 Z"/><text text-anchor="middle" pointer-events="none" font-size="8px" fill="#000000" x="68.72495791339898" y="3" font-family="sans-serif">ACTED_IN</text></g><g class="relationship" transform="translate(100.2355776287653 99.84454658729858) rotate(413.2928209108208)"><path class="outline" fill="#A5ABB6" stroke="none" d="M 32.5 0.5 L 45.96683618832232 0.5 L 45.96683618832232 -0.5 L 32.5 -0.5 Z M 91.52933618832232 0.5 L 104.99617237664464 0.5 L 104.99617237664464 3.5 L 111.99617237664464 0 L 104.99617237664464 -3.5 L 104.99617237664464 -0.5 L 91.52933618832232 -0.5 Z"/><text text-anchor="middle" pointer-events="none" font-size="8px" fill="#000000" x="68.74808618832232" y="3" font-family="sans-serif">ACTED_IN</text></g><g class="relationship" transform="translate(100.2355776287653 99.84454658729858) rotate(383.38103861581374)"><path class="outline" fill="#A5ABB6" stroke="none" d="M 32.5 0.5 L 46.556145342106774 0.5 L 46.556145342106774 -0.5 L 32.5 -0.5 Z M 92.11864534210677 0.5 L 106.17479068421355 0.5 L 106.17479068421355 3.5 L 113.17479068421355 0 L 106.17479068421355 -3.5 L 106.17479068421355 -0.5 L 92.11864534210677 -0.5 Z"/><text text-anchor="middle" pointer-events="none" font-size="8px" fill="#000000" x="69.33739534210677" y="3" font-family="sans-serif">ACTED_IN</text></g><g class="relationship" transform="translate(100.2355776287653 99.84454658729858) rotate(353.1883018603917)"><path class="outline" fill="#A5ABB6" stroke="none" d="M 32.5 0.5 L 44.43322121641627 0.5 L 44.43322121641627 -0.5 L 32.5 -0.5 Z M 89.99572121641627 0.5 L 101.92894243283254 0.5 L 101.92894243283254 3.5 L 108.92894243283254 0 L 101.92894243283254 -3.5 L 101.92894243283254 -0.5 L 89.99572121641627 -0.5 Z"/><text text-anchor="middle" pointer-events="none" font-size="8px" fill="#000000" x="67.21447121641627" y="3" font-family="sans-serif">ACTED_IN</text></g><g class="relationship" transform="translate(100.2355776287653 99.84454658729858) rotate(293.7845510101521)"><path class="outline" fill="#A5ABB6" stroke="none" d="M 32.5 0.5 L 44.39344957670498 0.5 L 44.39344957670498 -0.5 L 32.5 -0.5 Z M 89.95594957670498 0.5 L 101.84939915340996 0.5 L 101.84939915340996 3.5 L 108.84939915340996 0 L 101.84939915340996 -3.5 L 101.84939915340996 -0.5 L 89.95594957670498 -0.5 Z"/><text text-anchor="middle" pointer-events="none" font-size="8px" fill="#000000" x="67.17469957670498" y="3" font-family="sans-serif">ACTED_IN</text></g><g class="relationship" transform="translate(100.2355776287653 99.84454658729858) rotate(263.57769926170243)"><path class="outline" fill="#A5ABB6" stroke="none" d="M 32.5 0.5 L 46.53209851864598 0.5 L 46.53209851864598 -0.5 L 32.5 -0.5 Z M 92.09459851864598 0.5 L 106.12669703729196 0.5 L 106.12669703729196 3.5 L 113.12669703729196 0 L 106.12669703729196 -3.5 L 106.12669703729196 -0.5 L 92.09459851864598 -0.5 Z"/><text text-anchor="middle" pointer-events="none" font-size="8px" fill="#000000" x="69.31334851864598" y="3" transform="rotate(180 69.31334851864598 0)" font-family="sans-serif">ACTED_IN</text></g><g class="relationship" transform="translate(100.2355776287653 99.84454658729858) rotate(233.64650364917821)"><path class="outline" fill="#A5ABB6" stroke="none" d="M 32.5 0.5 L 45.92822941983914 0.5 L 45.92822941983914 -0.5 L 32.5 -0.5 Z M 91.49072941983914 0.5 L 104.91895883967828 0.5 L 104.91895883967828 3.5 L 111.91895883967828 0 L 104.91895883967828 -3.5 L 104.91895883967828 -0.5 L 91.49072941983914 -0.5 Z"/><text text-anchor="middle" pointer-events="none" font-size="8px" fill="#000000" x="68.70947941983914" y="3" transform="rotate(180 68.70947941983914 0)" font-family="sans-serif">ACTED_IN</text></g><g class="relationship" transform="translate(100.2355776287653 99.84454658729858) rotate(203.57801540026054)"><path class="outline" fill="#A5ABB6" stroke="none" d="M 32.5 0.5 L 45.91875451756651 0.5 L 45.91875451756651 -0.5 L 32.5 -0.5 Z M 91.48125451756651 0.5 L 104.90000903513302 0.5 L 104.90000903513302 3.5 L 111.90000903513302 0 L 104.90000903513302 -3.5 L 104.90000903513302 -0.5 L 91.48125451756651 -0.5 Z"/><text text-anchor="middle" pointer-events="none" font-size="8px" fill="#000000" x="68.70000451756651" y="3" transform="rotate(180 68.70000451756651 0)" font-family="sans-serif">ACTED_IN</text></g><g class="relationship" transform="translate(100.2355776287653 99.84454658729858) rotate(533.3803043476437)"><path class="outline" fill="#A5ABB6" stroke="none" d="M 31.26317983184346,-8.894581878976458 L 31.52199887694598,-7.92865605268739 A 147.94406121081542 147.94406121081542 0 0 1 45.43203611394948,-10.9469690697035 L 45.2672393440445,-11.933296613995395 A 148.94406121081542 148.94406121081542 0 0 0 31.26317983184346,-8.894581878976458 Z M 90.80064110844302,-12.483597287844702 L 90.65972980651055,-11.493575063352921 A 147.94406121081542 147.94406121081542 0 0 1 104.63865004013755,-8.812318174241632 L 103.93245250384591,-5.896621852651262 L 111.55964104656368,-7.650473309826184 L 105.58024675519307,-12.699913269695458 L 104.87404921890143,-9.784216948105087 A 148.94406121081542 148.94406121081542 0 0 0 90.80064110844302,-12.483597287844702"/><text text-anchor="middle" pointer-events="none" font-size="8px" fill="#000000" x="68.01882783811762" y="-10.458887796928167" transform="rotate(180 68.01882783811762 -13.458887796928167)" font-family="sans-serif">ACTED_IN</text></g><g class="relationship" transform="translate(100.2355776287653 99.84454658729858) rotate(503.4713197983238)"><path class="outline" fill="#A5ABB6" stroke="none" d="M 32.5 0.5 L 47.132732758933514 0.5 L 47.132732758933514 -0.5 L 32.5 -0.5 Z M 92.69523275893351 0.5 L 107.32796551786703 0.5 L 107.32796551786703 3.5 L 114.32796551786703 0 L 107.32796551786703 -3.5 L 107.32796551786703 -0.5 L 92.69523275893351 -0.5 Z"/><text text-anchor="middle" pointer-events="none" font-size="8px" fill="#000000" x="69.91398275893351" y="3" transform="rotate(180 69.91398275893351 0)" font-family="sans-serif">ACTED_IN</text></g><g class="relationship" transform="translate(100.2355776287653 99.84454658729858) rotate(323.4754157222998)"><path class="outline" fill="#A5ABB6" stroke="none" d="M 32.5 0.5 L 48.412165601292415 0.5 L 48.412165601292415 -0.5 L 32.5 -0.5 Z M 93.97466560129241 0.5 L 109.88683120258483 0.5 L 109.88683120258483 3.5 L 116.88683120258483 0 L 109.88683120258483 -3.5 L 109.88683120258483 -0.5 L 93.97466560129241 -0.5 Z"/><text text-anchor="middle" pointer-events="none" font-size="8px" fill="#000000" x="71.19341560129241" y="3" font-family="sans-serif">ACTED_IN</text></g><g class="relationship" transform="translate(100.2355776287653 99.84454658729858) rotate(473.53536410905167)"><path class="outline" fill="#A5ABB6" stroke="none" d="M 32.5 0.5 L 45.28680712645736 0.5 L 45.28680712645736 -0.5 L 32.5 -0.5 Z M 90.84930712645736 0.5 L 103.63611425291472 0.5 L 103.63611425291472 3.5 L 110.63611425291472 0 L 103.63611425291472 -3.5 L 103.63611425291472 -0.5 L 90.84930712645736 -0.5 Z"/><text text-anchor="middle" pointer-events="none" font-size="8px" fill="#000000" x="68.06805712645736" y="3" transform="rotate(180 68.06805712645736 0)" font-family="sans-serif">ACTED_IN</text></g><g class="relationship" transform="translate(100.2355776287653 99.84454658729858) rotate(533.3803043476437)"><path class="outline" fill="#A5ABB6" stroke="none" d="M 31.26317983184346,8.894581878976458 L 31.52199887694598,7.92865605268739 A 147.94406121081542 147.94406121081542 0 0 0 44.779505271669706,10.836442594478456 L 44.61029784251325,11.822023055891037 A 148.94406121081542 148.94406121081542 0 0 1 31.26317983184346,8.894581878976458 Z M 91.4600799618015,12.38823303957156 L 91.31474123357222,11.398851083966605 A 147.94406121081542 147.94406121081542 0 0 0 104.63865004013755,8.812318174241632 L 103.93245250384591,5.896621852651262 L 111.55964104656368,7.650473309826184 L 105.58024675519307,12.699913269695458 L 104.87404921890143,9.784216948105087 A 148.94406121081542 148.94406121081542 0 0 1 91.4600799618015,12.38823303957156"/><text text-anchor="middle" pointer-events="none" font-size="8px" fill="#000000" x="68.01882783811766" y="16.458887796928167" transform="rotate(180 68.01882783811766 13.458887796928167)" font-family="sans-serif">DIRECTED</text></g></g><g class="layer nodes"><g class="node" transform="translate(100.2355776287653,99.84454658729858)"><circle class="outline" cx="0" cy="0" r="32.5" fill="#68BDF6" stroke="#5CA8DB" stroke-width="2px"/><text text-anchor="middle" pointer-events="none" y="5" font-size="10px" fill="#FFFFFF" font-family="sans-serif"> Tom Hanks</text></g><g class="node" transform="translate(116.9131629070177,243.328470187316)"><circle class="outline" cx="0" cy="0" r="32.5" fill="#6DCE9E" stroke="#60B58B" stroke-width="2px"/><text text-anchor="middle" pointer-events="none" y="0" font-size="10px" fill="#FFFFFF" font-family="sans-serif"> Charlie</text><text text-anchor="middle" pointer-events="none" y="10" font-size="10px" fill="#FFFFFF" font-family="sans-serif"> Wilson's War</text></g><g class="node" transform="translate(186.60463950428877,215.68723725979203)"><circle class="outline" cx="0" cy="0" r="32.5" fill="#6DCE9E" stroke="#60B58B" stroke-width="2px"/><text text-anchor="middle" pointer-events="none" y="0" font-size="10px" fill="#FFFFFF" font-family="sans-serif"> The Polar</text><text text-anchor="middle" pointer-events="none" y="10" font-size="10px" fill="#FFFFFF" font-family="sans-serif"> Express</text></g><g class="node" transform="translate(233.9484295684278,157.65473485071215)"><circle class="outline" cx="0" cy="0" r="32.5" fill="#6DCE9E" stroke="#60B58B" stroke-width="2px"/><text text-anchor="middle" pointer-events="none" y="0" font-size="10px" fill="#FFFFFF" font-family="sans-serif"> A League of</text><text text-anchor="middle" pointer-events="none" y="10" font-size="10px" fill="#FFFFFF" font-family="sans-serif"> Their Own</text></g><g class="node" transform="translate(240.66621738852436,83.07012634890461)"><circle class="outline" cx="0" cy="0" r="32.5" fill="#6DCE9E" stroke="#60B58B" stroke-width="2px"/><text text-anchor="middle" pointer-events="none" y="5" font-size="10px" fill="#FFFFFF" font-family="sans-serif"> Cast Away</text></g><g class="node" transform="translate(157.2415890059545,-29.499828272583866)"><circle class="outline" cx="0" cy="0" r="32.5" fill="#6DCE9E" stroke="#60B58B" stroke-width="2px"/><text text-anchor="middle" pointer-events="none" y="5" font-size="10px" fill="#FFFFFF" font-family="sans-serif"> Apollo 13</text></g><g class="node" transform="translate(83.94639866731487,-44.868263967790355)"><circle class="outline" cx="0" cy="0" r="32.5" fill="#6DCE9E" stroke="#60B58B" stroke-width="2px"/><text text-anchor="middle" pointer-events="none" y="0" font-size="10px" fill="#FFFFFF" font-family="sans-serif"> The Green</text><text text-anchor="middle" pointer-events="none" y="10" font-size="10px" fill="#FFFFFF" font-family="sans-serif"> Mile</text></g><g class="node" transform="translate(14.629014891271632,-16.466897770547185)"><circle class="outline" cx="0" cy="0" r="32.5" fill="#6DCE9E" stroke="#60B58B" stroke-width="2px"/><text text-anchor="middle" pointer-events="none" y="0" font-size="10px" fill="#FFFFFF" font-family="sans-serif"> The Da Vinci</text><text text-anchor="middle" pointer-events="none" y="10" font-size="10px" fill="#FFFFFF" font-family="sans-serif"> Code</text></g><g class="node" transform="translate(-32.10938112109723,42.08491965945491)"><circle class="outline" cx="0" cy="0" r="32.5" fill="#6DCE9E" stroke="#60B58B" stroke-width="2px"/><text text-anchor="middle" pointer-events="none" y="5" font-size="10px" fill="#FFFFFF" font-family="sans-serif"> Cloud Atlas</text></g><g class="node" transform="translate(-41.95644501701597,116.34626034534762)"><circle class="outline" cx="0" cy="0" r="32.5" fill="#6DCE9E" stroke="#60B58B" stroke-width="2px"/><text text-anchor="middle" pointer-events="none" y="0" font-size="10px" fill="#FFFFFF" font-family="sans-serif"> That Thing</text><text text-anchor="middle" pointer-events="none" y="10" font-size="10px" fill="#FFFFFF" font-family="sans-serif"> You Do</text></g><g class="node" transform="translate(-17.749357434938883,187.24023616138143)"><circle class="outline" cx="0" cy="0" r="32.5" fill="#6DCE9E" stroke="#60B58B" stroke-width="2px"/><text text-anchor="middle" pointer-events="none" y="0" font-size="10px" fill="#FFFFFF" font-family="sans-serif"> Joe Versus</text><text text-anchor="middle" pointer-events="none" y="10" font-size="10px" fill="#FFFFFF" font-family="sans-serif"> the Volcano</text></g><g class="node" transform="translate(220.28306853947635,10.934337596472757)"><circle class="outline" cx="0" cy="0" r="32.5" fill="#6DCE9E" stroke="#60B58B" stroke-width="2px"/><text text-anchor="middle" pointer-events="none" y="0" font-size="10px" fill="#FFFFFF" font-family="sans-serif"> Sleepless in</text><text text-anchor="middle" pointer-events="none" y="10" font-size="10px" fill="#FFFFFF" font-family="sans-serif"> Seattle</text></g><g class="node" transform="translate(43.07917717676047,231.07370908860207)"><circle class="outline" cx="0" cy="0" r="32.5" fill="#6DCE9E" stroke="#60B58B" stroke-width="2px"/><text text-anchor="middle" pointer-events="none" y="0" font-size="10px" fill="#FFFFFF" font-family="sans-serif"> You've Got</text><text text-anchor="middle" pointer-events="none" y="10" font-size="10px" fill="#FFFFFF" font-family="sans-serif"> Mail</text></g></g></svg>