<svg xmlns="http://www.w3.org/2000/svg" width="824.9951171875" height="651.5926513671875" viewBox="-286.710693359375 -255.7216796875 824.9951171875 651.5926513671875"><title>Neo4j Graph Visualization</title><desc>Created using Neo4j (http://www.neo4j.com/)</desc><g class="layer relationships"><g class="relationship" transform="translate(-24.13028138695837 -189.31991138666064) rotate(411.6810602293474)"><path class="outline" fill="#A5ABB6" stroke="none" d="M 32.5 0.5 L 47.76516776631395 0.5 L 47.76516776631395 -0.5 L 32.5 -0.5 Z M 93.32766776631395 0.5 L 108.5928355326279 0.5 L 108.5928355326279 3.5 L 115.5928355326279 0 L 108.5928355326279 -3.5 L 108.5928355326279 -0.5 L 93.32766776631395 -0.5 Z"/><text text-anchor="middle" pointer-events="none" font-size="8px" fill="#000000" x="70.54641776631395" y="3" font-family="sans-serif">ACTED_IN</text></g><g class="relationship" transform="translate(-73.67379463932551 -41.81208703782266) rotate(347.5084384798031)"><path class="outline" fill="#A5ABB6" stroke="none" d="M 27.89582562299426,16.683012701892217 L 28.39582562299426,15.816987298107778 A 84.52190034630537 84.52190034630537 0 0 0 45.76341428130385,23.39184137662849 L 45.4688946193837,24.347486796615655 A 85.52190034630537 85.52190034630537 0 0 1 27.89582562299426,16.683012701892217 Z M 92.02724866680494,25.427680283089103 L 91.77736562182906,24.459404256414075 A 84.52190034630537 84.52190034630537 0 0 0 109.47756414621716,17.69815272194391 L 108.09966842246938,15.033306877532347 L 115.92518707046877,14.927203673934333 L 111.31475844454754,21.251280514492656 L 109.93686272079975,18.586434670081093 A 85.52190034630537 85.52190034630537 0 0 1 92.02724866680494,25.427680283089103"/><text text-anchor="middle" pointer-events="none" font-size="8px" fill="#000000" x="68.68472594622324" y="30.617901227596406" font-family="sans-serif">DIRECTED</text></g><g class="relationship" transform="translate(225.18216042762674 -29.040358500694417) rotate(195.63994133514092)"><path class="outline" fill="#A5ABB6" stroke="none" d="M 32.5 0.5 L 55.49097495439443 0.5 L 55.49097495439443 -0.5 L 32.5 -0.5 Z M 101.05347495439443 0.5 L 124.04444990878886 0.5 L 124.04444990878886 3.5 L 131.04444990878886 0 L 124.04444990878886 -3.5 L 124.04444990878886 -0.5 L 101.05347495439443 -0.5 Z"/><text text-anchor="middle" pointer-events="none" font-size="8px" fill="#000000" x="78.27222495439443" y="3" transform="rotate(180 78.27222495439443 0)" font-family="sans-serif">ACTED_IN</text></g><g class="relationship" transform="translate(-11.941838948814706 26.52457756538886) rotate(308.6285031586563)"><path class="outline" fill="#A5ABB6" stroke="none" d="M 32.5 0.5 L 37.501264519326924 0.5 L 37.501264519326924 -0.5 L 32.5 -0.5 Z M 83.06376451932692 0.5 L 88.06502903865385 0.5 L 88.06502903865385 3.5 L 95.06502903865385 0 L 88.06502903865385 -3.5 L 88.06502903865385 -0.5 L 83.06376451932692 -0.5 Z"/><text text-anchor="middle" pointer-events="none" font-size="8px" fill="#000000" x="60.282514519326924" y="3" font-family="sans-serif">ACTED_IN</text></g><g class="relationship" transform="translate(44.61259374080285 -219.22167427851141) rotate(441.0222672064908)"><path class="outline" fill="#A5ABB6" stroke="none" d="M 32.5 0.5 L 47.67031300474132 0.5 L 47.67031300474132 -0.5 L 32.5 -0.5 Z M 93.23281300474132 0.5 L 108.40312600948263 0.5 L 108.40312600948263 3.5 L 115.40312600948263 0 L 108.40312600948263 -3.5 L 108.40312600948263 -0.5 L 93.23281300474132 -0.5 Z"/><text text-anchor="middle" pointer-events="none" font-size="8px" fill="#000000" x="70.45156300474132" y="3" font-family="sans-serif">ACTED_IN</text></g><g class="relationship" transform="translate(136.876360809259 25.555625342895453) rotate(234.96782324668533)"><path class="outline" fill="#A5ABB6" stroke="none" d="M 32.5 0.5 L 33.97921292258526 0.5 L 33.97921292258526 -0.5 L 32.5 -0.5 Z M 79.54171292258526 0.5 L 81.02092584517052 0.5 L 81.02092584517052 3.5 L 88.02092584517052 0 L 81.02092584517052 -3.5 L 81.02092584517052 -0.5 L 79.54171292258526 -0.5 Z"/><text text-anchor="middle" pointer-events="none" font-size="8px" fill="#000000" x="56.76046292258526" y="3" transform="rotate(180 56.76046292258526 0)" font-family="sans-serif">ACTED_IN</text></g><g class="relationship" transform="translate(174.26197317157678 -157.81276399434293) rotate(501.5285122875577)"><path class="outline" fill="#A5ABB6" stroke="none" d="M 32.5 0.5 L 41.77762004277032 0.5 L 41.77762004277032 -0.5 L 32.5 -0.5 Z M 87.34012004277032 0.5 L 96.61774008554065 0.5 L 96.61774008554065 3.5 L 103.61774008554065 0 L 96.61774008554065 -3.5 L 96.61774008554065 -0.5 L 87.34012004277032 -0.5 Z"/><text text-anchor="middle" pointer-events="none" font-size="8px" fill="#000000" x="64.55887004277032" y="3" transform="rotate(180 64.55887004277032 0)" font-family="sans-serif">ACTED_IN</text></g><g class="relationship" transform="translate(39.55898205705242 87.87218905264632) rotate(279.911919636616)"><path class="outline" fill="#A5ABB6" stroke="none" d="M 32.5 0.5 L 55.43990240642607 0.5 L 55.43990240642607 -0.5 L 32.5 -0.5 Z M 101.00240240642607 0.5 L 123.94230481285214 0.5 L 123.94230481285214 3.5 L 130.94230481285214 0 L 123.94230481285214 -3.5 L 123.94230481285214 -0.5 L 101.00240240642607 -0.5 Z"/><text text-anchor="middle" pointer-events="none" font-size="8px" fill="#000000" x="78.22115240642607" y="3" font-family="sans-serif">ACTED_IN</text></g><g class="relationship" transform="translate(-66.82712547198908 -127.68239911070432) rotate(382.07401805034607)"><path class="outline" fill="#A5ABB6" stroke="none" d="M 32.5 0.5 L 46.298989325961415 0.5 L 46.298989325961415 -0.5 L 32.5 -0.5 Z M 91.86148932596141 0.5 L 105.66047865192283 0.5 L 105.66047865192283 3.5 L 112.66047865192283 0 L 105.66047865192283 -3.5 L 105.66047865192283 -0.5 L 91.86148932596141 -0.5 Z"/><text text-anchor="middle" pointer-events="none" font-size="8px" fill="#000000" x="69.08023932596141" y="3" font-family="sans-serif">ACTED_IN</text></g><g class="relationship" transform="translate(118.79875834434749 -208.30110625455288) rotate(470.71078438615604)"><path class="outline" fill="#A5ABB6" stroke="none" d="M 32.5 0.5 L 45.97332558598792 0.5 L 45.97332558598792 -0.5 L 32.5 -0.5 Z M 91.53582558598792 0.5 L 105.00915117197584 0.5 L 105.00915117197584 3.5 L 112.00915117197584 0 L 105.00915117197584 -3.5 L 105.00915117197584 -0.5 L 91.53582558598792 -0.5 Z"/><text text-anchor="middle" pointer-events="none" font-size="8px" fill="#000000" x="68.75457558598792" y="3" transform="rotate(180 68.75457558598792 0)" font-family="sans-serif">ACTED_IN</text></g><g class="relationship" transform="translate(333.27712677219296 162.81200744602754) rotate(285.1915637550177)"><path class="outline" fill="#A5ABB6" stroke="none" d="M 32.5 0.5 L 39.32996532345854 0.5 L 39.32996532345854 -0.5 L 32.5 -0.5 Z M 84.89246532345854 0.5 L 91.72243064691708 0.5 L 91.72243064691708 3.5 L 98.72243064691708 0 L 91.72243064691708 -3.5 L 91.72243064691708 -0.5 L 84.89246532345854 -0.5 Z"/><text text-anchor="middle" pointer-events="none" font-size="8px" fill="#000000" x="62.11121532345854" y="3" font-family="sans-serif">ACTED_IN</text></g><g class="relationship" transform="translate(410.17890696865715 175.30454330490832) rotate(253.0078357303513)"><path class="outline" fill="#A5ABB6" stroke="none" d="M 32.5 0.5 L 45.79488553135704 0.5 L 45.79488553135704 -0.5 L 32.5 -0.5 Z M 92.68551053135704 0.5 L 105.98039606271408 0.5 L 105.98039606271408 3.5 L 112.98039606271408 0 L 105.98039606271408 -3.5 L 105.98039606271408 -0.5 L 92.68551053135704 -0.5 Z"/><text text-anchor="middle" pointer-events="none" font-size="8px" fill="#000000" x="69.24019803135704" y="3" transform="rotate(180 69.24019803135704 0)" font-family="sans-serif">DIRECTED</text></g><g class="relationship" transform="translate(472.6521741078292 133.83180936132055) rotate(222.92788332194186)"><path class="outline" fill="#A5ABB6" stroke="none" d="M 32.5 0.5 L 45.41155094211341 0.5 L 45.41155094211341 -0.5 L 32.5 -0.5 Z M 90.97405094211341 0.5 L 103.88560188422682 0.5 L 103.88560188422682 3.5 L 110.88560188422682 0 L 103.88560188422682 -3.5 L 103.88560188422682 -0.5 L 90.97405094211341 -0.5 Z"/><text text-anchor="middle" pointer-events="none" font-size="8px" fill="#000000" x="68.19280094211341" y="3" transform="rotate(180 68.19280094211341 0)" font-family="sans-serif">ACTED_IN</text></g><g class="relationship" transform="translate(360.0987021685378 -96.76927431761042) rotate(446.743234122016)"><path class="outline" fill="#A5ABB6" stroke="none" d="M 32.5 0.5 L 40.29848198697346 0.5 L 40.29848198697346 -0.5 L 32.5 -0.5 Z M 85.86098198697346 0.5 L 93.65946397394691 0.5 L 93.65946397394691 3.5 L 100.65946397394691 0 L 93.65946397394691 -3.5 L 93.65946397394691 -0.5 L 85.86098198697346 -0.5 Z"/><text text-anchor="middle" pointer-events="none" font-size="8px" fill="#000000" x="63.07973198697346" y="3" font-family="sans-serif">ACTED_IN</text></g><g class="relationship" transform="translate(501.7843812282971 63.92337577253517) rotate(191.68900539689503)"><path class="outline" fill="#A5ABB6" stroke="none" d="M 32.5 0.5 L 42.19931960449239 0.5 L 42.19931960449239 -0.5 L 32.5 -0.5 Z M 87.76181960449239 0.5 L 97.46113920898478 0.5 L 97.46113920898478 3.5 L 104.46113920898478 0 L 97.46113920898478 -3.5 L 97.46113920898478 -0.5 L 87.76181960449239 -0.5 Z"/><text text-anchor="middle" pointer-events="none" font-size="8px" fill="#000000" x="64.98056960449239" y="3" transform="rotate(180 64.98056960449239 0)" font-family="sans-serif">ACTED_IN</text></g><g class="relationship" transform="translate(438.6846373652294 -82.47658171756895) rotate(480.90336636100545)"><path class="outline" fill="#A5ABB6" stroke="none" d="M 32.5 0.5 L 42.86030705599532 0.5 L 42.86030705599532 -0.5 L 32.5 -0.5 Z M 88.42280705599532 0.5 L 98.78311411199064 0.5 L 98.78311411199064 3.5 L 105.78311411199064 0 L 98.78311411199064 -3.5 L 98.78311411199064 -0.5 L 88.42280705599532 -0.5 Z"/><text text-anchor="middle" pointer-events="none" font-size="8px" fill="#000000" x="65.64155705599532" y="3" transform="rotate(180 65.64155705599532 0)" font-family="sans-serif">ACTED_IN</text></g><g class="relationship" transform="translate(225.18216042762674 -29.040358500694417) rotate(384.5941498401804)"><path class="outline" fill="#A5ABB6" stroke="none" d="M 32.5 0.5 L 52.06735550736687 0.5 L 52.06735550736687 -0.5 L 32.5 -0.5 Z M 97.62985550736687 0.5 L 117.19721101473374 0.5 L 117.19721101473374 3.5 L 124.19721101473374 0 L 117.19721101473374 -3.5 L 117.19721101473374 -0.5 L 97.62985550736687 -0.5 Z"/><text text-anchor="middle" pointer-events="none" font-size="8px" fill="#000000" x="74.84860550736687" y="3" font-family="sans-serif">ACTED_IN</text></g><g class="relationship" transform="translate(490.9364494583307 -18.660924827934036) rotate(516.0188384961034)"><path class="outline" fill="#A5ABB6" stroke="none" d="M 32.5 0.5 L 41.17835455446124 0.5 L 41.17835455446124 -0.5 L 32.5 -0.5 Z M 86.74085455446124 0.5 L 95.41920910892247 0.5 L 95.41920910892247 3.5 L 102.41920910892247 0 L 95.41920910892247 -3.5 L 95.41920910892247 -0.5 L 86.74085455446124 -0.5 Z"/><text text-anchor="middle" pointer-events="none" font-size="8px" fill="#000000" x="63.95960455446124" y="3" transform="rotate(180 63.95960455446124 0)" font-family="sans-serif">ACTED_IN</text></g><g class="relationship" transform="translate(39.55898205705242 87.87218905264632) rotate(183.59904951239997)"><path class="outline" fill="#A5ABB6" stroke="none" d="M 32.5 0.5 L 48.48874873026345 0.5 L 48.48874873026345 -0.5 L 32.5 -0.5 Z M 94.05124873026345 0.5 L 110.0399974605269 0.5 L 110.0399974605269 3.5 L 117.0399974605269 0 L 110.0399974605269 -3.5 L 110.0399974605269 -0.5 L 94.05124873026345 -0.5 Z"/><text text-anchor="middle" pointer-events="none" font-size="8px" fill="#000000" x="71.26999873026345" y="3" transform="rotate(180 71.26999873026345 0)" font-family="sans-serif">ACTED_IN</text></g><g class="relationship" transform="translate(-234.86808423936807 13.718055728846819) rotate(387.3562330794724)"><path class="outline" fill="#A5ABB6" stroke="none" d="M 32.5 0.5 L 43.52681928810095 0.5 L 43.52681928810095 -0.5 L 32.5 -0.5 Z M 90.41744428810095 0.5 L 101.4442635762019 0.5 L 101.4442635762019 3.5 L 108.4442635762019 0 L 101.4442635762019 -3.5 L 101.4442635762019 -0.5 L 90.41744428810095 -0.5 Z"/><text text-anchor="middle" pointer-events="none" font-size="8px" fill="#000000" x="66.97213178810095" y="3" font-family="sans-serif">DIRECTED</text></g><g class="relationship" transform="translate(-148.17166510354022 216.95372192645385) rotate(285.5325751884485)"><path class="outline" fill="#A5ABB6" stroke="none" d="M 32.5 0.5 L 45.577525878403875 0.5 L 45.577525878403875 -0.5 L 32.5 -0.5 Z M 91.14002587840388 0.5 L 104.21755175680775 0.5 L 104.21755175680775 3.5 L 111.21755175680775 0 L 104.21755175680775 -3.5 L 104.21755175680775 -0.5 L 91.14002587840388 -0.5 Z"/><text text-anchor="middle" pointer-events="none" font-size="8px" fill="#000000" x="68.35877587840388" y="3" font-family="sans-serif">ACTED_IN</text></g><g class="relationship" transform="translate(-250.21071001221023 103.01385256897852) rotate(350.0986510770447)"><path class="outline" fill="#A5ABB6" stroke="none" d="M 32.5 0.5 L 45.04342209746473 0.5 L 45.04342209746473 -0.5 L 32.5 -0.5 Z M 90.60592209746473 0.5 L 103.14934419492945 0.5 L 103.14934419492945 3.5 L 110.14934419492945 0 L 103.14934419492945 -3.5 L 103.14934419492945 -0.5 L 90.60592209746473 -0.5 Z"/><text text-anchor="middle" pointer-events="none" font-size="8px" fill="#000000" x="67.82467209746473" y="3" font-family="sans-serif">ACTED_IN</text></g><g class="relationship" transform="translate(-216.6262533967047 178.31921499359174) rotate(316.9682277116433)"><path class="outline" fill="#A5ABB6" stroke="none" d="M 32.5 0.5 L 46.86769952892813 0.5 L 46.86769952892813 -0.5 L 32.5 -0.5 Z M 92.43019952892813 0.5 L 106.79789905785626 0.5 L 106.79789905785626 3.5 L 113.79789905785626 0 L 106.79789905785626 -3.5 L 106.79789905785626 -0.5 L 92.43019952892813 -0.5 Z"/><text text-anchor="middle" pointer-events="none" font-size="8px" fill="#000000" x="69.64894952892813" y="3" font-family="sans-serif">ACTED_IN</text></g><g class="relationship" transform="translate(17.848312761596233 268.05157900076296) rotate(333.13142034639714)"><path class="outline" fill="#A5ABB6" stroke="none" d="M 32.5 0.5 L 42.08973187033533 0.5 L 42.08973187033533 -0.5 L 32.5 -0.5 Z M 87.65223187033533 0.5 L 97.24196374067066 0.5 L 97.24196374067066 3.5 L 104.24196374067066 0 L 97.24196374067066 -3.5 L 97.24196374067066 -0.5 L 87.65223187033533 -0.5 Z"/><text text-anchor="middle" pointer-events="none" font-size="8px" fill="#000000" x="64.87098187033533" y="3" font-family="sans-serif">ACTED_IN</text></g><g class="relationship" transform="translate(53.03974395902308 334.23985878607147) rotate(304.14114040838564)"><path class="outline" fill="#A5ABB6" stroke="none" d="M 32.5 0.5 L 50.37422944923355 0.5 L 50.37422944923355 -0.5 L 32.5 -0.5 Z M 97.26485444923355 0.5 L 115.1390838984671 0.5 L 115.1390838984671 3.5 L 122.1390838984671 0 L 115.1390838984671 -3.5 L 115.1390838984671 -0.5 L 97.26485444923355 -0.5 Z"/><text text-anchor="middle" pointer-events="none" font-size="8px" fill="#000000" x="73.81954194923355" y="3" font-family="sans-serif">DIRECTED</text></g><g class="relationship" transform="translate(39.55898205705242 87.87218905264632) rotate(409.73484269113)"><path class="outline" fill="#A5ABB6" stroke="none" d="M 32.5 0.5 L 51.28750447468563 0.5 L 51.28750447468563 -0.5 L 32.5 -0.5 Z M 96.85000447468563 0.5 L 115.63750894937127 0.5 L 115.63750894937127 3.5 L 122.63750894937127 0 L 115.63750894937127 -3.5 L 115.63750894937127 -0.5 L 96.85000447468563 -0.5 Z"/><text text-anchor="middle" pointer-events="none" font-size="8px" fill="#000000" x="74.06875447468563" y="3" font-family="sans-serif">ACTED_IN</text></g><g class="relationship" transform="translate(197.5404180201097 346.71437051680135) rotate(247.6636633445483)"><path class="outline" fill="#A5ABB6" stroke="none" d="M 32.5 0.5 L 49.64709823281602 0.5 L 49.64709823281602 -0.5 L 32.5 -0.5 Z M 95.20959823281602 0.5 L 112.35669646563204 0.5 L 112.35669646563204 3.5 L 119.35669646563204 0 L 112.35669646563204 -3.5 L 112.35669646563204 -0.5 L 95.20959823281602 -0.5 Z"/><text text-anchor="middle" pointer-events="none" font-size="8px" fill="#000000" x="72.42834823281602" y="3" transform="rotate(180 72.42834823281602 0)" font-family="sans-serif">ACTED_IN</text></g><g class="relationship" transform="translate(123.64817383987841 359.37098778126943) rotate(276.03208681033334)"><path class="outline" fill="#A5ABB6" stroke="none" d="M 32.5 0.5 L 50.70467367600041 0.5 L 50.70467367600041 -0.5 L 32.5 -0.5 Z M 96.26717367600041 0.5 L 114.47184735200082 0.5 L 114.47184735200082 3.5 L 121.47184735200082 0 L 114.47184735200082 -3.5 L 114.47184735200082 -0.5 L 96.26717367600041 -0.5 Z"/><text text-anchor="middle" pointer-events="none" font-size="8px" fill="#000000" x="73.48592367600041" y="3" font-family="sans-serif">ACTED_IN</text></g><g class="relationship" transform="translate(247.72627473491949 290.99285057391813) rotate(218.1454940619068)"><path class="outline" fill="#A5ABB6" stroke="none" d="M 32.5 0.5 L 42.31727280025585 0.5 L 42.31727280025585 -0.5 L 32.5 -0.5 Z M 87.87977280025585 0.5 L 97.6970456005117 0.5 L 97.6970456005117 3.5 L 104.6970456005117 0 L 97.6970456005117 -3.5 L 97.6970456005117 -0.5 L 87.87977280025585 -0.5 Z"/><text text-anchor="middle" pointer-events="none" font-size="8px" fill="#000000" x="65.09852280025585" y="3" transform="rotate(180 65.09852280025585 0)" font-family="sans-serif">ACTED_IN</text></g><g class="relationship" transform="translate(-73.67379463932551 -41.81208703782266) rotate(347.5084384798031)"><path class="outline" fill="#A5ABB6" stroke="none" d="M 32.5 0.5 L 43.00655019246365 0.5 L 43.00655019246365 -0.5 L 32.5 -0.5 Z M 94.78780019246365 0.5 L 105.2943503849273 0.5 L 105.2943503849273 3.5 L 112.2943503849273 0 L 105.2943503849273 -3.5 L 105.2943503849273 -0.5 L 94.78780019246365 -0.5 Z"/><text text-anchor="middle" pointer-events="none" font-size="8px" fill="#000000" x="68.89717519246365" y="3" font-family="sans-serif">PRODUCED</text></g><g class="relationship" transform="translate(-73.67379463932551 -41.81208703782266) rotate(347.5084384798031)"><path class="outline" fill="#A5ABB6" stroke="none" d="M 27.89582562299426,-16.683012701892217 L 28.39582562299426,-15.816987298107778 A 84.52190034630537 84.52190034630537 0 0 1 51.093640784174596,-24.845606004045294 L 50.86218438137463,-25.818451281364815 A 85.52190034630537 85.52190034630537 0 0 0 27.89582562299426,-16.683012701892217 Z M 86.57154343790674,-26.64693883957446 L 86.38545347057305,-25.664406130674777 A 84.52190034630537 84.52190034630537 0 0 1 109.47756414621716,-17.69815272194391 L 108.09966842246938,-15.033306877532347 L 115.92518707046877,-14.927203673934333 L 111.31475844454754,-21.251280514492656 L 109.93686272079975,-18.586434670081093 A 85.52190034630537 85.52190034630537 0 0 0 86.57154343790674,-26.64693883957446"/><text text-anchor="middle" pointer-events="none" font-size="8px" fill="#000000" x="68.68472594622324" y="-24.617901227596406" font-family="sans-serif">WROTE</text></g></g><g class="layer nodes"><g class="node" transform="translate(67.69296558080816,-73.1305002839679)"><circle class="outline" cx="0" cy="0" r="32.5" fill="#6DCE9E" stroke="#60B58B" stroke-width="2px"/><text text-anchor="middle" pointer-events="none" y="5" font-size="10px" fill="#FFFFFF" font-family="sans-serif"> Jerry Maguire</text></g><g class="node" transform="translate(-24.13028138695837,-189.31991138666064)"><circle class="outline" cx="0" cy="0" r="32.5" fill="#68BDF6" stroke="#5CA8DB" stroke-width="2px"/><text text-anchor="middle" pointer-events="none" y="0" font-size="10px" fill="#FFFFFF" font-family="sans-serif"> Jonathan</text><text text-anchor="middle" pointer-events="none" y="10" font-size="10px" fill="#FFFFFF" font-family="sans-serif"> Lipnicki</text></g><g class="node selected" transform="translate(-73.67379463932551,-41.81208703782266)"><circle class="outline" cx="0" cy="0" r="32.5" fill="#68BDF6" stroke="#5CA8DB" stroke-width="2px"/><text text-anchor="middle" pointer-events="none" y="0" font-size="10px" fill="#FFFFFF" font-family="sans-serif"> Cameron</text><text text-anchor="middle" pointer-events="none" y="10" font-size="10px" fill="#FFFFFF" font-family="sans-serif"> Crowe</text></g><g class="node" transform="translate(225.18216042762674,-29.040358500694417)"><circle class="outline" cx="0" cy="0" r="32.5" fill="#68BDF6" stroke="#5CA8DB" stroke-width="2px"/><text text-anchor="middle" pointer-events="none" y="0" font-size="10px" fill="#FFFFFF" font-family="sans-serif"> Jerry</text><text text-anchor="middle" pointer-events="none" y="10" font-size="10px" fill="#FFFFFF" font-family="sans-serif"> O'Connell</text></g><g class="node" transform="translate(-11.941838948814706,26.52457756538886)"><circle class="outline" cx="0" cy="0" r="32.5" fill="#68BDF6" stroke="#5CA8DB" stroke-width="2px"/><text text-anchor="middle" pointer-events="none" y="5" font-size="10px" fill="#FFFFFF" font-family="sans-serif"> Jay Mohr</text></g><g class="node" transform="translate(44.61259374080285,-219.22167427851141)"><circle class="outline" cx="0" cy="0" r="32.5" fill="#68BDF6" stroke="#5CA8DB" stroke-width="2px"/><text text-anchor="middle" pointer-events="none" y="5" font-size="10px" fill="#FFFFFF" font-family="sans-serif"> Bonnie Hunt</text></g><g class="node" transform="translate(136.876360809259,25.555625342895453)"><circle class="outline" cx="0" cy="0" r="32.5" fill="#68BDF6" stroke="#5CA8DB" stroke-width="2px"/><text text-anchor="middle" pointer-events="none" y="5" font-size="10px" fill="#FFFFFF" font-family="sans-serif"> Regina King</text></g><g class="node" transform="translate(174.26197317157678,-157.81276399434293)"><circle class="outline" cx="0" cy="0" r="32.5" fill="#68BDF6" stroke="#5CA8DB" stroke-width="2px"/><text text-anchor="middle" pointer-events="none" y="5" font-size="10px" fill="#FFFFFF" font-family="sans-serif"> Tom Cruise</text></g><g class="node" transform="translate(39.55898205705242,87.87218905264632)"><circle class="outline" cx="0" cy="0" r="32.5" fill="#68BDF6" stroke="#5CA8DB" stroke-width="2px"/><text text-anchor="middle" pointer-events="none" y="0" font-size="10px" fill="#FFFFFF" font-family="sans-serif"> Cuba</text><text text-anchor="middle" pointer-events="none" y="10" font-size="10px" fill="#FFFFFF" font-family="sans-serif"> Gooding Jr.</text></g><g class="node" transform="translate(-66.82712547198908,-127.68239911070432)"><circle class="outline" cx="0" cy="0" r="32.5" fill="#68BDF6" stroke="#5CA8DB" stroke-width="2px"/><text text-anchor="middle" pointer-events="none" y="0" font-size="10px" fill="#FFFFFF" font-family="sans-serif"> Renee</text><text text-anchor="middle" pointer-events="none" y="10" font-size="10px" fill="#FFFFFF" font-family="sans-serif"> Zellweger</text></g><g class="node" transform="translate(118.79875834434749,-208.30110625455288)"><circle class="outline" cx="0" cy="0" r="32.5" fill="#68BDF6" stroke="#5CA8DB" stroke-width="2px"/><text text-anchor="middle" pointer-events="none" y="5" font-size="10px" fill="#FFFFFF" font-family="sans-serif"> Kelly Preston</text></g><g class="node" transform="translate(333.27712677219296,162.81200744602754)"><circle class="outline" cx="0" cy="0" r="32.5" fill="#68BDF6" stroke="#5CA8DB" stroke-width="2px"/><text text-anchor="middle" pointer-events="none" y="5" font-size="10px" fill="#FFFFFF" font-family="sans-serif"> Marshall Bell</text></g><g class="node" transform="translate(410.17890696865715,175.30454330490832)"><circle class="outline" cx="0" cy="0" r="32.5" fill="#68BDF6" stroke="#5CA8DB" stroke-width="2px"/><text text-anchor="middle" pointer-events="none" y="5" font-size="10px" fill="#FFFFFF" font-family="sans-serif"> Rob Reiner</text></g><g class="node" transform="translate(367.66358241033913,36.17513298392321)"><circle class="outline" cx="0" cy="0" r="32.5" fill="#6DCE9E" stroke="#60B58B" stroke-width="2px"/><text text-anchor="middle" pointer-events="none" y="5" font-size="10px" fill="#FFFFFF" font-family="sans-serif"> Stand By Me</text></g><g class="node" transform="translate(472.6521741078292,133.83180936132055)"><circle class="outline" cx="0" cy="0" r="32.5" fill="#68BDF6" stroke="#5CA8DB" stroke-width="2px"/><text text-anchor="middle" pointer-events="none" y="0" font-size="10px" fill="#FFFFFF" font-family="sans-serif"> Kiefer</text><text text-anchor="middle" pointer-events="none" y="10" font-size="10px" fill="#FFFFFF" font-family="sans-serif"> Sutherland</text></g><g class="node" transform="translate(360.0987021685378,-96.76927431761042)"><circle class="outline" cx="0" cy="0" r="32.5" fill="#68BDF6" stroke="#5CA8DB" stroke-width="2px"/><text text-anchor="middle" pointer-events="none" y="5" font-size="10px" fill="#FFFFFF" font-family="sans-serif"> John Cusack</text></g><g class="node" transform="translate(501.7843812282971,63.92337577253517)"><circle class="outline" cx="0" cy="0" r="32.5" fill="#68BDF6" stroke="#5CA8DB" stroke-width="2px"/><text text-anchor="middle" pointer-events="none" y="5" font-size="10px" fill="#FFFFFF" font-family="sans-serif"> Wil Wheaton</text></g><g class="node" transform="translate(438.6846373652294,-82.47658171756895)"><circle class="outline" cx="0" cy="0" r="32.5" fill="#68BDF6" stroke="#5CA8DB" stroke-width="2px"/><text text-anchor="middle" pointer-events="none" y="0" font-size="10px" fill="#FFFFFF" font-family="sans-serif"> River</text><text text-anchor="middle" pointer-events="none" y="10" font-size="10px" fill="#FFFFFF" font-family="sans-serif"> Phoenix</text></g><g class="node" transform="translate(490.9364494583307,-18.660924827934036)"><circle class="outline" cx="0" cy="0" r="32.5" fill="#68BDF6" stroke="#5CA8DB" stroke-width="2px"/><text text-anchor="middle" pointer-events="none" y="0" font-size="10px" fill="#FFFFFF" font-family="sans-serif"> Corey</text><text text-anchor="middle" pointer-events="none" y="10" font-size="10px" fill="#FFFFFF" font-family="sans-serif"> Feldman</text></g><g class="node" transform="translate(-109.68608812404607,78.48497076747884)"><circle class="outline" cx="0" cy="0" r="32.5" fill="#6DCE9E" stroke="#60B58B" stroke-width="2px"/><text text-anchor="middle" pointer-events="none" y="0" font-size="10px" fill="#FFFFFF" font-family="sans-serif"> As Good as</text><text text-anchor="middle" pointer-events="none" y="10" font-size="10px" fill="#FFFFFF" font-family="sans-serif"> It Gets</text></g><g class="node" transform="translate(-234.86808423936807,13.718055728846819)"><circle class="outline" cx="0" cy="0" r="32.5" fill="#68BDF6" stroke="#5CA8DB" stroke-width="2px"/><text text-anchor="middle" pointer-events="none" y="0" font-size="10px" fill="#FFFFFF" font-family="sans-serif"> James L.</text><text text-anchor="middle" pointer-events="none" y="10" font-size="10px" fill="#FFFFFF" font-family="sans-serif"> Brooks</text></g><g class="node" transform="translate(-148.17166510354022,216.95372192645385)"><circle class="outline" cx="0" cy="0" r="32.5" fill="#68BDF6" stroke="#5CA8DB" stroke-width="2px"/><text text-anchor="middle" pointer-events="none" y="5" font-size="10px" fill="#FFFFFF" font-family="sans-serif"> Greg Kinnear</text></g><g class="node" transform="translate(-250.21071001221023,103.01385256897852)"><circle class="outline" cx="0" cy="0" r="32.5" fill="#68BDF6" stroke="#5CA8DB" stroke-width="2px"/><text text-anchor="middle" pointer-events="none" y="5" font-size="10px" fill="#FFFFFF" font-family="sans-serif"> Helen Hunt</text></g><g class="node" transform="translate(-216.6262533967047,178.31921499359174)"><circle class="outline" cx="0" cy="0" r="32.5" fill="#68BDF6" stroke="#5CA8DB" stroke-width="2px"/><text text-anchor="middle" pointer-events="none" y="0" font-size="10px" fill="#FFFFFF" font-family="sans-serif"> Jack</text><text text-anchor="middle" pointer-events="none" y="10" font-size="10px" fill="#FFFFFF" font-family="sans-serif"> Nicholson</text></g><g class="node" transform="translate(139.82836692803545,206.25165154767092)"><circle class="outline" cx="0" cy="0" r="32.5" fill="#6DCE9E" stroke="#60B58B" stroke-width="2px"/><text text-anchor="middle" pointer-events="none" y="-5" font-size="10px" fill="#FFFFFF" font-family="sans-serif"> What</text><text text-anchor="middle" pointer-events="none" y="5" font-size="10px" fill="#FFFFFF" font-family="sans-serif"> Dreams May</text><text text-anchor="middle" pointer-events="none" y="15" font-size="10px" fill="#FFFFFF" font-family="sans-serif"> Come</text></g><g class="node" transform="translate(17.848312761596233,268.05157900076296)"><circle class="outline" cx="0" cy="0" r="32.5" fill="#68BDF6" stroke="#5CA8DB" stroke-width="2px"/><text text-anchor="middle" pointer-events="none" y="0" font-size="10px" fill="#FFFFFF" font-family="sans-serif"> Annabella</text><text text-anchor="middle" pointer-events="none" y="10" font-size="10px" fill="#FFFFFF" font-family="sans-serif"> Sciorra</text></g><g class="node" transform="translate(53.03974395902308,334.23985878607147)"><circle class="outline" cx="0" cy="0" r="32.5" fill="#68BDF6" stroke="#5CA8DB" stroke-width="2px"/><text text-anchor="middle" pointer-events="none" y="5" font-size="10px" fill="#FFFFFF" font-family="sans-serif"> Vincent Ward</text></g><g class="node" transform="translate(197.5404180201097,346.71437051680135)"><circle class="outline" cx="0" cy="0" r="32.5" fill="#68BDF6" stroke="#5CA8DB" stroke-width="2px"/><text text-anchor="middle" pointer-events="none" y="0" font-size="10px" fill="#FFFFFF" font-family="sans-serif"> Robin</text><text text-anchor="middle" pointer-events="none" y="10" font-size="10px" fill="#FFFFFF" font-family="sans-serif"> Williams</text></g><g class="node" transform="translate(123.64817383987841,359.37098778126943)"><circle class="outline" cx="0" cy="0" r="32.5" fill="#68BDF6" stroke="#5CA8DB" stroke-width="2px"/><text text-anchor="middle" pointer-events="none" y="0" font-size="10px" fill="#FFFFFF" font-family="sans-serif"> Werner</text><text text-anchor="middle" pointer-events="none" y="10" font-size="10px" fill="#FFFFFF" font-family="sans-serif"> Herzog</text></g><g class="node" transform="translate(247.72627473491949,290.99285057391813)"><circle class="outline" cx="0" cy="0" r="32.5" fill="#68BDF6" stroke="#5CA8DB" stroke-width="2px"/><text text-anchor="middle" pointer-events="none" y="0" font-size="10px" fill="#FFFFFF" font-family="sans-serif"> Max von</text><text text-anchor="middle" pointer-events="none" y="10" font-size="10px" fill="#FFFFFF" font-family="sans-serif"> Sydow</text></g></g></svg>