<svg xmlns="http://www.w3.org/2000/svg" width="865.72998046875" height="140.98944091796875" viewBox="-467.9823303222656 -87.20339965820312 865.72998046875 140.98944091796875"><title>Neo4j Graph Visualization</title><desc>Created using Neo4j (http://www.neo4j.com/)</desc><g class="layer relationships"><g class="relationship" transform="translate(138.81707213283636 -16.988913081647212) rotate(360.08854324585343)"><path class="outline" fill="#A5ABB6" stroke="none" d="M 31.26317983184346,-8.894581878976458 L 31.52199887694598,-7.92865605268739 A 216.4683699652937 216.4683699652937 0 0 1 62.092496033035005,-13.8026959477356 L 61.97490084045648,-14.795757562481839 A 217.4683699652937 217.4683699652937 0 0 0 31.26317983184346,-8.894581878976458 Z M 108.87991643724098,-15.255875710513607 L 108.78182501937462,-14.26069830233908 A 216.4683699652937 216.4683699652937 0 0 1 139.46167183470985,-8.987498093108478 L 138.74221056436207,-6.0750462942850945 L 146.3773029103557,-7.794163762100903 L 140.42095352850689,-12.870767158206323 L 139.7014922581591,-9.95831535938294 A 217.4683699652937 217.4683699652937 0 0 0 108.87991643724098,-15.255875710513607"/><text text-anchor="middle" pointer-events="none" font-size="8px" fill="#000000" x="85.41987114167114" y="-12.794198462312778" font-family="sans-serif">DIRECTED</text></g><g class="relationship" transform="translate(138.81707213283636 -16.988913081647212) rotate(360.08854324585343)"><path class="outline" fill="#A5ABB6" stroke="none" d="M 31.26317983184346,8.894581878976458 L 31.52199887694598,7.92865605268739 A 216.4683699652937 216.4683699652937 0 0 0 62.75054950947519,13.879599573903874 L 62.635994268999355,14.873016453607221 A 217.4683699652937 217.4683699652937 0 0 1 31.26317983184346,8.894581878976458 Z M 108.21743461993753,15.320150894392526 L 108.12238953849891,14.324677925149103 A 216.4683699652937 216.4683699652937 0 0 0 139.46167183470985,8.987498093108478 L 138.74221056436207,6.0750462942850945 L 146.3773029103557,7.794163762100903 L 140.42095352850689,12.870767158206323 L 139.7014922581591,9.95831535938294 A 217.4683699652937 217.4683699652937 0 0 1 108.21743461993753,15.320150894392526"/><text text-anchor="middle" pointer-events="none" font-size="8px" fill="#000000" x="85.4198711416712" y="18.794198462312778" font-family="sans-serif">ACTED_IN</text></g><g class="relationship" transform="translate(-144.83785013789463 -24.5339196458304) rotate(361.1126868042154)"><path class="outline" fill="#A5ABB6" stroke="none" d="M 31.26317983184346,8.894581878976458 L 31.52199887694598,7.92865605268739 A 236.4712638417725 236.4712638417725 0 0 0 67.84004008221692,14.673166077837521 L 67.73480435466105,15.667613382447371 A 237.4712638417725 237.4712638417725 0 0 1 31.26317983184346,8.894581878976458 Z M 113.32117306271812,16.091390445937094 L 113.23444295840629,15.095158600930091 A 236.4712638417725 236.4712638417725 0 0 0 149.67159255471498,9.026990692630381 L 148.949141216854,6.115279157394983 L 156.58599469324108,7.826556160160658 L 150.63486100519629,12.909272739610913 L 149.9124096673353,9.997561204375515 A 237.4712638417725 237.4712638417725 0 0 1 113.32117306271812,16.091390445937094"/><text text-anchor="middle" pointer-events="none" font-size="8px" fill="#000000" x="90.52244376446855" y="19.47598033056522" font-family="sans-serif">ACTED_IN</text></g><g class="relationship" transform="translate(-144.83785013789463 -24.5339196458304) rotate(361.1126868042154)"><path class="outline" fill="#A5ABB6" stroke="none" d="M 31.26317983184346,-8.894581878976458 L 31.52199887694598,-7.92865605268739 A 236.4712638417725 236.4712638417725 0 0 1 67.18115685670702,-14.602507190497533 L 67.07313481501386,-15.596655689721075 A 237.4712638417725 237.4712638417725 0 0 0 31.26317983184346,-8.894581878976458 Z M 113.98404740241358,-16.03274589267687 L 113.89452591050828,-15.0367610019847 A 236.4712638417725 236.4712638417725 0 0 1 149.67159255471498,-9.026990692630381 L 148.949141216854,-6.115279157394983 L 156.58599469324108,-7.826556160160658 L 150.63486100519629,-12.909272739610913 L 149.9124096673353,-9.997561204375515 A 237.4712638417725 237.4712638417725 0 0 0 113.98404740241358,-16.03274589267687"/><text text-anchor="middle" pointer-events="none" font-size="8px" fill="#000000" x="90.52244376446848" y="-13.475980330565221" font-family="sans-serif">DIRECTED</text></g><g class="relationship" transform="translate(-431.48232404193334 -25.272788901077078) rotate(360.70001182027676)"><path class="outline" fill="#A5ABB6" stroke="none" d="M 31.26317983184346,8.894581878976458 L 31.52199887694598,7.92865605268739 A 245.5567528511625 245.5567528511625 0 0 0 70.15518817079088,15.027879739920138 L 70.05369808872959,16.02271629093906 A 246.5567528511625 246.5567528511625 0 0 1 31.26317983184346,8.894581878976458 Z M 115.64170587837988,16.436656548512616 L 115.55829732245023,15.440141113209307 A 245.5567528511625 245.5567528511625 0 0 0 154.31402840240153,9.04361076981993 L 153.59031873594475,6.132211738653469 L 161.2279110861994,7.840188053281842 L 155.27897462434393,12.925476144708545 L 154.55526495788715,10.014077113542085 A 246.5567528511625 246.5567528511625 0 0 1 115.64170587837988,16.436656548512616"/><text text-anchor="middle" pointer-events="none" font-size="8px" fill="#000000" x="92.84265375824796" y="19.78565682946055" font-family="sans-serif">ACTED_IN</text></g><g class="relationship" transform="translate(-431.48232404193334 -25.272788901077078) rotate(360.70001182027676)"><path class="outline" fill="#A5ABB6" stroke="none" d="M 31.26317983184346,-8.894581878976458 L 31.52199887694598,-7.92865605268739 A 245.5567528511625 245.5567528511625 0 0 1 69.49598852517548,-14.9597313625124 L 69.39181393275982,-15.954290387555687 A 246.5567528511625 246.5567528511625 0 0 0 31.26317983184346,-8.894581878976458 Z M 116.30472341821721,-16.380260785857303 L 116.21862575508538,-15.383974083947038 A 245.5567528511625 245.5567528511625 0 0 1 154.31402840240153,-9.04361076981993 L 153.59031873594475,-6.132211738653469 L 161.2279110861994,-7.840188053281842 L 155.27897462434393,-12.925476144708545 L 154.55526495788715,-10.014077113542085 A 246.5567528511625 246.5567528511625 0 0 0 116.30472341821721,-16.380260785857303"/><text text-anchor="middle" pointer-events="none" font-size="8px" fill="#000000" x="92.84265375824788" y="-13.78565682946055" font-family="sans-serif">DIRECTED</text></g></g><g class="layer nodes"><g class="node selected" transform="translate(316.74572373478395,-16.713947054158893)"><circle class="outline" cx="0" cy="0" r="32.5" fill="#6DCE9E" stroke="#60B58B" stroke-width="2px"/><text text-anchor="middle" pointer-events="none" y="0" font-size="10px" fill="#FFFFFF" font-family="sans-serif"> That Thing</text><text text-anchor="middle" pointer-events="none" y="10" font-size="10px" fill="#FFFFFF" font-family="sans-serif"> You Do</text></g><g class="node" transform="translate(138.81707213283636,-16.988913081647212)"><circle class="outline" cx="0" cy="0" r="32.5" fill="#68BDF6" stroke="#5CA8DB" stroke-width="2px"/><text text-anchor="middle" pointer-events="none" y="5" font-size="10px" fill="#FFFFFF" font-family="sans-serif"> Tom Hanks</text></g><g class="node" transform="translate(43.25621187756684,-20.88066460854822)"><circle class="outline" cx="0" cy="0" r="32.5" fill="#6DCE9E" stroke="#60B58B" stroke-width="2px"/><text text-anchor="middle" pointer-events="none" y="5" font-size="10px" fill="#FFFFFF" font-family="sans-serif"> Unforgiven</text></g><g class="node" transform="translate(-144.83785013789463,-24.5339196458304)"><circle class="outline" cx="0" cy="0" r="32.5" fill="#68BDF6" stroke="#5CA8DB" stroke-width="2px"/><text text-anchor="middle" pointer-events="none" y="0" font-size="10px" fill="#FFFFFF" font-family="sans-serif"> Clint</text><text text-anchor="middle" pointer-events="none" y="10" font-size="10px" fill="#FFFFFF" font-family="sans-serif"> Eastwood</text></g><g class="node" transform="translate(-238.72864361693422,-22.917701496773276)"><circle class="outline" cx="0" cy="0" r="32.5" fill="#6DCE9E" stroke="#60B58B" stroke-width="2px"/><text text-anchor="middle" pointer-events="none" y="5" font-size="10px" fill="#FFFFFF" font-family="sans-serif"> Hoffa</text></g><g class="node" transform="translate(-431.48232404193334,-25.272788901077078)"><circle class="outline" cx="0" cy="0" r="32.5" fill="#68BDF6" stroke="#5CA8DB" stroke-width="2px"/><text text-anchor="middle" pointer-events="none" y="0" font-size="10px" fill="#FFFFFF" font-family="sans-serif"> Danny</text><text text-anchor="middle" pointer-events="none" y="10" font-size="10px" fill="#FFFFFF" font-family="sans-serif"> DeVito</text></g></g></svg>