<svg xmlns="http://www.w3.org/2000/svg" width="560.1807861328125" height="564.3065185546875" viewBox="-233.396484375 -201.18673706054688 560.1807861328125 564.3065185546875"><title>Neo4j Graph Visualization</title><desc>Created using Neo4j (http://www.neo4j.com/)</desc><g class="layer relationships"><g class="relationship" transform="translate(69.8177446075019 304.17324547958214) rotate(299.6915430642515)"><path class="outline" fill="#A5ABB6" stroke="none" d="M 32.5 0.5 L 44.27103347084427 0.5 L 44.27103347084427 -0.5 L 32.5 -0.5 Z M 89.83353347084427 0.5 L 101.60456694168855 0.5 L 101.60456694168855 3.5 L 108.60456694168855 0 L 101.60456694168855 -3.5 L 101.60456694168855 -0.5 L 89.83353347084427 -0.5 Z"/><text text-anchor="middle" pointer-events="none" font-size="8px" fill="#000000" x="67.05228347084427" y="3" font-family="sans-serif">ACTED_IN</text></g><g class="relationship" transform="translate(19.58660200950209 87.72895416291327) rotate(398.0043032659998)"><path class="outline" fill="#A5ABB6" stroke="none" d="M 31.26317983184346,8.894581878976458 L 31.52199887694598,7.92865605268739 A 166.33077895001395 166.33077895001395 0 0 0 49.400924985281016,11.680686962540022 L 49.249596124624205,12.669170435306427 A 167.33077895001395 167.33077895001395 0 0 1 31.26317983184346,8.894581878976458 Z M 96.12306437994475,13.202565823903427 L 95.99426863621349,12.210894680632293 A 166.33077895001395 166.33077895001395 0 0 0 113.95394618957233,8.86668821045579 L 113.24363194378634,5.951992056097076 L 120.87328959070699,7.695070996014925 L 114.90103185062031,12.752949749600742 L 114.19071760483432,9.838253595242028 A 167.33077895001395 167.33077895001395 0 0 1 96.12306437994475,13.202565823903427"/><text text-anchor="middle" pointer-events="none" font-size="8px" fill="#000000" x="72.67324873768342" y="17.085439296683177" font-family="sans-serif">DIRECTED</text></g><g class="relationship" transform="translate(141.35349858177196 326.6197238874155) rotate(269.3511685638084)"><path class="outline" fill="#A5ABB6" stroke="none" d="M 32.5 0.5 L 46.23573457572738 0.5 L 46.23573457572738 -0.5 L 32.5 -0.5 Z M 91.79823457572738 0.5 L 105.53396915145476 0.5 L 105.53396915145476 3.5 L 112.53396915145476 0 L 105.53396915145476 -3.5 L 105.53396915145476 -0.5 L 91.79823457572738 -0.5 Z"/><text text-anchor="middle" pointer-events="none" font-size="8px" fill="#000000" x="69.01698457572738" y="3" transform="rotate(180 69.01698457572738 0)" font-family="sans-serif">ACTED_IN</text></g><g class="relationship" transform="translate(213.86014288472697 307.6147781012316) rotate(239.5277810393966)"><path class="outline" fill="#A5ABB6" stroke="none" d="M 32.5 0.5 L 46.82662650329577 0.5 L 46.82662650329577 -0.5 L 32.5 -0.5 Z M 92.38912650329577 0.5 L 106.71575300659154 0.5 L 106.71575300659154 3.5 L 113.71575300659154 0 L 106.71575300659154 -3.5 L 106.71575300659154 -0.5 L 92.38912650329577 -0.5 Z"/><text text-anchor="middle" pointer-events="none" font-size="8px" fill="#000000" x="69.60787650329577" y="3" transform="rotate(180 69.60787650329577 0)" font-family="sans-serif">ACTED_IN</text></g><g class="relationship" transform="translate(290.2843019779757 184.30336407145103) rotate(181.03044919166314)"><path class="outline" fill="#A5ABB6" stroke="none" d="M 32.5 0.5 L 49.017511620786564 0.5 L 49.017511620786564 -0.5 L 32.5 -0.5 Z M 94.58001162078656 0.5 L 111.09752324157313 0.5 L 111.09752324157313 3.5 L 118.09752324157313 0 L 111.09752324157313 -3.5 L 111.09752324157313 -0.5 L 94.58001162078656 -0.5 Z"/><text text-anchor="middle" pointer-events="none" font-size="8px" fill="#000000" x="71.79876162078656" y="3" transform="rotate(180 71.79876162078656 0)" font-family="sans-serif">ACTED_IN</text></g><g class="relationship" transform="translate(268.1338815714754 255.88015496778613) rotate(210.04688802952558)"><path class="outline" fill="#A5ABB6" stroke="none" d="M 32.5 0.5 L 47.89873117833045 0.5 L 47.89873117833045 -0.5 L 32.5 -0.5 Z M 93.46123117833045 0.5 L 108.8599623566609 0.5 L 108.8599623566609 3.5 L 115.8599623566609 0 L 108.8599623566609 -3.5 L 108.8599623566609 -0.5 L 93.46123117833045 -0.5 Z"/><text text-anchor="middle" pointer-events="none" font-size="8px" fill="#000000" x="70.67998117833045" y="3" transform="rotate(180 70.67998117833045 0)" font-family="sans-serif">ACTED_IN</text></g><g class="relationship" transform="translate(215.83687311477257 65.19047201280274) rotate(483.18370110171634)"><path class="outline" fill="#A5ABB6" stroke="none" d="M 32.5 0.5 L 43.26218060920266 0.5 L 43.26218060920266 -0.5 L 32.5 -0.5 Z M 88.82468060920266 0.5 L 99.58686121840532 0.5 L 99.58686121840532 3.5 L 106.58686121840532 0 L 99.58686121840532 -3.5 L 99.58686121840532 -0.5 L 88.82468060920266 -0.5 Z"/><text text-anchor="middle" pointer-events="none" font-size="8px" fill="#000000" x="66.04343060920266" y="3" transform="rotate(180 66.04343060920266 0)" font-family="sans-serif">ACTED_IN</text></g><g class="relationship" transform="translate(275.2828830870976 110.84743662450123) rotate(512.4423615840553)"><path class="outline" fill="#A5ABB6" stroke="none" d="M 32.5 0.5 L 50.17940109575359 0.5 L 50.17940109575359 -0.5 L 32.5 -0.5 Z M 95.74190109575359 0.5 L 113.42130219150718 0.5 L 113.42130219150718 3.5 L 120.42130219150718 0 L 113.42130219150718 -3.5 L 113.42130219150718 -0.5 L 95.74190109575359 -0.5 Z"/><text text-anchor="middle" pointer-events="none" font-size="8px" fill="#000000" x="72.96065109575359" y="3" transform="rotate(180 72.96065109575359 0)" font-family="sans-serif">ACTED_IN</text></g><g class="relationship" transform="translate(156.9139350907873 -78.66955749475481) rotate(517.5452858380526)"><path class="outline" fill="#A5ABB6" stroke="none" d="M 32.5 0.5 L 47.58571006672804 0.5 L 47.58571006672804 -0.5 L 32.5 -0.5 Z M 93.14821006672804 0.5 L 108.23392013345608 0.5 L 108.23392013345608 3.5 L 115.23392013345608 0 L 108.23392013345608 -3.5 L 108.23392013345608 -0.5 L 93.14821006672804 -0.5 Z"/><text text-anchor="middle" pointer-events="none" font-size="8px" fill="#000000" x="70.36696006672804" y="3" transform="rotate(180 70.36696006672804 0)" font-family="sans-serif">ACTED_IN</text></g><g class="relationship" transform="translate(19.58660200950209 87.72895416291327) rotate(270.4138530995858)"><path class="outline" fill="#A5ABB6" stroke="none" d="M 32.5 0.5 L 34.93033593239321 0.5 L 34.93033593239321 -0.5 L 32.5 -0.5 Z M 68.0436171823932 0.5 L 70.47395311478643 0.5 L 70.47395311478643 3.5 L 77.47395311478643 0 L 70.47395311478643 -3.5 L 70.47395311478643 -0.5 L 68.0436171823932 -0.5 Z"/><text text-anchor="middle" pointer-events="none" font-size="8px" fill="#000000" x="51.48697655739321" y="3" font-family="sans-serif">DIRE…</text></g><g class="relationship" transform="translate(-138.13718507976753 14.659009285808704) rotate(346.8956063175044)"><path class="outline" fill="#A5ABB6" stroke="none" d="M 32.5 0.5 L 55.09702192370132 0.5 L 55.09702192370132 -0.5 L 32.5 -0.5 Z M 100.65952192370132 0.5 L 123.25654384740264 0.5 L 123.25654384740264 3.5 L 130.25654384740264 0 L 123.25654384740264 -3.5 L 123.25654384740264 -0.5 L 100.65952192370132 -0.5 Z"/><text text-anchor="middle" pointer-events="none" font-size="8px" fill="#000000" x="77.87827192370132" y="3" font-family="sans-serif">ACTED_IN</text></g><g class="relationship" transform="translate(106.79151972812546 -141.30694099959257) rotate(485.97004328823886)"><path class="outline" fill="#A5ABB6" stroke="none" d="M 32.5 0.5 L 47.276917659455705 0.5 L 47.276917659455705 -0.5 L 32.5 -0.5 Z M 92.8394176594557 0.5 L 107.61633531891141 0.5 L 107.61633531891141 3.5 L 114.61633531891141 0 L 107.61633531891141 -3.5 L 107.61633531891141 -0.5 L 92.8394176594557 -0.5 Z"/><text text-anchor="middle" pointer-events="none" font-size="8px" fill="#000000" x="70.0581676594557" y="3" transform="rotate(180 70.0581676594557 0)" font-family="sans-serif">ACTED_IN</text></g><g class="relationship" transform="translate(18.747065975278442 -164.68673872721178) rotate(449.34282923860127)"><path class="outline" fill="#A5ABB6" stroke="none" d="M 32.5 0.5 L 44.94573942703278 0.5 L 44.94573942703278 -0.5 L 32.5 -0.5 Z M 90.50823942703278 0.5 L 102.95397885406555 0.5 L 102.95397885406555 3.5 L 109.95397885406555 0 L 102.95397885406555 -3.5 L 102.95397885406555 -0.5 L 90.50823942703278 -0.5 Z"/><text text-anchor="middle" pointer-events="none" font-size="8px" fill="#000000" x="67.72698942703278" y="3" font-family="sans-serif">ACTED_IN</text></g><g class="relationship" transform="translate(-138.13718507976753 14.659009285808704) rotate(458.4804036276329)"><path class="outline" fill="#A5ABB6" stroke="none" d="M 32.5 0.5 L 45.419189138766 0.5 L 45.419189138766 -0.5 L 32.5 -0.5 Z M 90.981689138766 0.5 L 103.900878277532 0.5 L 103.900878277532 3.5 L 110.900878277532 0 L 103.900878277532 -3.5 L 103.900878277532 -0.5 L 90.981689138766 -0.5 Z"/><text text-anchor="middle" pointer-events="none" font-size="8px" fill="#000000" x="68.200439138766" y="3" transform="rotate(180 68.200439138766 0)" font-family="sans-serif">ACTED_IN</text></g><g class="relationship" transform="translate(19.58660200950209 87.72895416291327) rotate(518.9718668735402)"><path class="outline" fill="#A5ABB6" stroke="none" d="M 32.5 0.5 L 68.87129574276629 0.5 L 68.87129574276629 -0.5 L 32.5 -0.5 Z M 115.76192074276629 0.5 L 152.13321648553259 0.5 L 152.13321648553259 3.5 L 159.13321648553259 0 L 152.13321648553259 -3.5 L 152.13321648553259 -0.5 L 115.76192074276629 -0.5 Z"/><text text-anchor="middle" pointer-events="none" font-size="8px" fill="#000000" x="92.31660824276629" y="3" transform="rotate(180 92.31660824276629 0)" font-family="sans-serif">DIRECTED</text></g><g class="relationship" transform="translate(-127.22989598515734 88.5476804720804) rotate(475.25700913966966)"><path class="outline" fill="#A5ABB6" stroke="none" d="M 32.5 0.5 L 34.06307574393412 0.5 L 34.06307574393412 -0.5 L 32.5 -0.5 Z M 34.06307574393412 0.5 L 35.62615148786824 0.5 L 35.62615148786824 3.5 L 42.62615148786824 0 L 35.62615148786824 -3.5 L 35.62615148786824 -0.5 L 34.06307574393412 -0.5 Z"/><text text-anchor="middle" pointer-events="none" font-size="8px" fill="#000000" x="34.06307574393412" y="3" transform="rotate(180 34.06307574393412 0)" font-family="sans-serif"/></g><g class="relationship" transform="translate(-196.89649175091986 61.26373954105797) rotate(428.4477208008909)"><path class="outline" fill="#A5ABB6" stroke="none" d="M 32.5 0.5 L 32.693430068988775 0.5 L 32.693430068988775 -0.5 L 32.5 -0.5 Z M 62.693430068988775 0.5 L 62.88686013797755 0.5 L 62.88686013797755 3.5 L 69.88686013797755 0 L 62.88686013797755 -3.5 L 62.88686013797755 -0.5 L 62.693430068988775 -0.5 Z"/><text text-anchor="middle" pointer-events="none" font-size="8px" fill="#000000" x="47.693430068988775" y="3" font-family="sans-serif">ACT…</text></g><g class="relationship" transform="translate(-53.70298830033705 103.6053151430126) rotate(513.3933586709534)"><path class="outline" fill="#A5ABB6" stroke="none" d="M 32.5 0.5 L 32.762152523728254 0.5 L 32.762152523728254 -0.5 L 32.5 -0.5 Z M 78.32465252372825 0.5 L 78.58680504745651 0.5 L 78.58680504745651 3.5 L 85.58680504745651 0 L 78.58680504745651 -3.5 L 78.58680504745651 -0.5 L 78.32465252372825 -0.5 Z"/><text text-anchor="middle" pointer-events="none" font-size="8px" fill="#000000" x="55.543402523728254" y="3" transform="rotate(180 55.543402523728254 0)" font-family="sans-serif">ACTED_IN</text></g><g class="relationship" transform="translate(-138.13718507976753 14.659009285808704) rotate(436.1279077927826)"><path class="outline" fill="#A5ABB6" stroke="none" d="M 32.5 0.5 L 65.54469626199494 0.5 L 65.54469626199494 -0.5 L 32.5 -0.5 Z M 111.10719626199494 0.5 L 144.1518925239899 0.5 L 144.1518925239899 3.5 L 151.1518925239899 0 L 144.1518925239899 -3.5 L 144.1518925239899 -0.5 L 111.10719626199494 -0.5 Z"/><text text-anchor="middle" pointer-events="none" font-size="8px" fill="#000000" x="88.32594626199494" y="3" font-family="sans-serif">ACTED_IN</text></g><g class="relationship" transform="translate(19.58660200950209 87.72895416291327) rotate(497.2148643494378)"><path class="outline" fill="#A5ABB6" stroke="none" d="M 32.5 0.5 L 50.51166090170392 0.5 L 50.51166090170392 -0.5 L 32.5 -0.5 Z M 97.40228590170392 0.5 L 115.41394680340784 0.5 L 115.41394680340784 3.5 L 122.41394680340784 0 L 115.41394680340784 -3.5 L 115.41394680340784 -0.5 L 97.40228590170392 -0.5 Z"/><text text-anchor="middle" pointer-events="none" font-size="8px" fill="#000000" x="73.95697340170392" y="3" transform="rotate(180 73.95697340170392 0)" font-family="sans-serif">DIRECTED</text></g><g class="relationship" transform="translate(-196.89649175091986 61.26373954105797) rotate(412.02627378478047)"><path class="outline" fill="#A5ABB6" stroke="none" d="M 32.5 0.5 L 57.247754023028136 0.5 L 57.247754023028136 -0.5 L 32.5 -0.5 Z M 102.81025402302814 0.5 L 127.55800804605627 0.5 L 127.55800804605627 3.5 L 134.55800804605627 0 L 127.55800804605627 -3.5 L 127.55800804605627 -0.5 L 102.81025402302814 -0.5 Z"/><text text-anchor="middle" pointer-events="none" font-size="8px" fill="#000000" x="80.02900402302814" y="3" font-family="sans-serif">ACTED_IN</text></g><g class="relationship" transform="translate(-127.22989598515734 88.5476804720804) rotate(432.3977837634071)"><path class="outline" fill="#A5ABB6" stroke="none" d="M 32.5 0.5 L 33.59966621068516 0.5 L 33.59966621068516 -0.5 L 32.5 -0.5 Z M 68.93560371068516 0.5 L 70.03526992137031 0.5 L 70.03526992137031 3.5 L 77.03526992137031 0 L 70.03526992137031 -3.5 L 70.03526992137031 -0.5 L 68.93560371068516 -0.5 Z"/><text text-anchor="middle" pointer-events="none" font-size="8px" fill="#000000" x="51.26763496068516" y="3" font-family="sans-serif">ACTE…</text></g><g class="relationship" transform="translate(-53.70298830033705 103.6053151430126) rotate(474.3319754876228)"><path class="outline" fill="#A5ABB6" stroke="none" d="M 32.5 0.5 L 32.97303561254993 0.5 L 32.97303561254993 -0.5 L 32.5 -0.5 Z M 58.08631686254993 0.5 L 58.55935247509986 0.5 L 58.55935247509986 3.5 L 65.55935247509986 0 L 58.55935247509986 -3.5 L 58.55935247509986 -0.5 L 58.08631686254993 -0.5 Z"/><text text-anchor="middle" pointer-events="none" font-size="8px" fill="#000000" x="45.52967623754993" y="3" transform="rotate(180 45.52967623754993 0)" font-family="sans-serif">AC…</text></g><g class="relationship" transform="translate(-138.13718507976753 14.659009285808704) rotate(349.25135843149064)"><path class="outline" fill="#A5ABB6" stroke="none" d="M 32.5 0.5 L 39.24645745804422 0.5 L 39.24645745804422 -0.5 L 32.5 -0.5 Z M 39.24645745804422 0.5 L 45.99291491608844 0.5 L 45.99291491608844 3.5 L 52.99291491608844 0 L 45.99291491608844 -3.5 L 45.99291491608844 -0.5 L 39.24645745804422 -0.5 Z"/><text text-anchor="middle" pointer-events="none" font-size="8px" fill="#000000" x="39.24645745804422" y="3" font-family="sans-serif"/></g><g class="relationship" transform="translate(19.58660200950209 87.72895416291327) rotate(230.36497006070437)"><path class="outline" fill="#A5ABB6" stroke="none" d="M 32.5 0.5 L 34.84700928534154 0.5 L 34.84700928534154 -0.5 L 32.5 -0.5 Z M 73.73763428534154 0.5 L 76.08464357068308 0.5 L 76.08464357068308 3.5 L 83.08464357068308 0 L 76.08464357068308 -3.5 L 76.08464357068308 -0.5 L 73.73763428534154 -0.5 Z"/><text text-anchor="middle" pointer-events="none" font-size="8px" fill="#000000" x="54.29232178534154" y="3" transform="rotate(180 54.29232178534154 0)" font-family="sans-serif">DIREC…</text></g><g class="relationship" transform="translate(-196.89649175091986 61.26373954105797) rotate(336.33858558627855)"><path class="outline" fill="#A5ABB6" stroke="none" d="M 32.5 0.5 L 51.645968040035214 0.5 L 51.645968040035214 -0.5 L 32.5 -0.5 Z M 97.20846804003521 0.5 L 116.35443608007043 0.5 L 116.35443608007043 3.5 L 123.35443608007043 0 L 116.35443608007043 -3.5 L 116.35443608007043 -0.5 L 97.20846804003521 -0.5 Z"/><text text-anchor="middle" pointer-events="none" font-size="8px" fill="#000000" x="74.42721804003521" y="3" font-family="sans-serif">ACTED_IN</text></g><g class="relationship" transform="translate(-127.22989598515734 88.5476804720804) rotate(309.1307947608194)"><path class="outline" fill="#A5ABB6" stroke="none" d="M 32.5 0.5 L 33.84739119181098 0.5 L 33.84739119181098 -0.5 L 32.5 -0.5 Z M 74.96067244181097 0.5 L 76.30806363362196 0.5 L 76.30806363362196 3.5 L 83.30806363362196 0 L 76.30806363362196 -3.5 L 76.30806363362196 -0.5 L 74.96067244181097 -0.5 Z"/><text text-anchor="middle" pointer-events="none" font-size="8px" fill="#000000" x="54.40403181681098" y="3" font-family="sans-serif">ACTED…</text></g><g class="relationship" transform="translate(-53.70298830033705 103.6053151430126) rotate(269.7589608759868)"><path class="outline" fill="#A5ABB6" stroke="none" d="M 32.5 0.5 L 33.945863101326125 0.5 L 33.945863101326125 -0.5 L 32.5 -0.5 Z M 63.945863101326125 0.5 L 65.39172620265225 0.5 L 65.39172620265225 3.5 L 72.39172620265225 0 L 65.39172620265225 -3.5 L 65.39172620265225 -0.5 L 63.945863101326125 -0.5 Z"/><text text-anchor="middle" pointer-events="none" font-size="8px" fill="#000000" x="48.945863101326125" y="3" transform="rotate(180 48.945863101326125 0)" font-family="sans-serif">ACT…</text></g><g class="relationship" transform="translate(-3.0037958204750135 158.68445864189658) rotate(369.1201055002401)"><path class="outline" fill="#A5ABB6" stroke="none" d="M 31.26317983184346,8.894581878976458 L 31.52199887694598,7.92865605268739 A 150.70631143430163 150.70631143430163 0 0 0 45.472265425560806,10.966485513043011 L 45.306012288387734,11.952568620281 A 151.70631143430163 151.70631143430163 0 0 1 31.26317983184346,8.894581878976458 Z M 92.16004729232102,12.51360598547842 L 92.01745345693934,11.523824697460128 A 150.70631143430163 150.70631143430163 0 0 0 106.0364606289222,8.820903588826447 L 105.32961302982002,5.905364792712858 L 112.95719241970427,7.6575156569402925 L 106.97892409439177,12.708288650311234 L 106.2720764952896,9.792749854197645 A 151.70631143430163 151.70631143430163 0 0 1 92.16004729232102,12.51360598547842"/><text text-anchor="middle" pointer-events="none" font-size="8px" fill="#000000" x="68.71722483158644" y="16.553010247919104" font-family="sans-serif">DIRECTED</text></g><g class="relationship" transform="translate(-3.0037958204750135 158.68445864189658) rotate(252.2715481370779)"><path class="outline" fill="#A5ABB6" stroke="none" d="M 32.5 0.5 L 57.027494311083245 0.5 L 57.027494311083245 -0.5 L 32.5 -0.5 Z M 103.91811931108325 0.5 L 128.4456136221665 0.5 L 128.4456136221665 3.5 L 135.4456136221665 0 L 128.4456136221665 -3.5 L 128.4456136221665 -0.5 L 103.91811931108325 -0.5 Z"/><text text-anchor="middle" pointer-events="none" font-size="8px" fill="#000000" x="80.47280681108325" y="3" transform="rotate(180 80.47280681108325 0)" font-family="sans-serif">DIRECTED</text></g><g class="relationship" transform="translate(19.58660200950209 87.72895416291327) rotate(398.0043032659998)"><path class="outline" fill="#A5ABB6" stroke="none" d="M 31.26317983184346,-8.894581878976458 L 31.52199887694598,-7.92865605268739 A 166.33077895001395 166.33077895001395 0 0 1 54.891992169578295,-12.427932947773144 L 54.77367624386329,-13.420908950364463 A 167.33077895001395 167.33077895001395 0 0 0 31.26317983184346,-8.894581878976458 Z M 90.58330816662689,-13.82840370690596 L 90.48761904110467,-12.832992439511031 A 166.33077895001395 166.33077895001395 0 0 1 113.95394618957233,-8.86668821045579 L 113.24363194378634,-5.951992056097076 L 120.87328959070699,-7.695070996014925 L 114.90103185062031,-12.752949749600742 L 114.19071760483432,-9.838253595242028 A 167.33077895001395 167.33077895001395 0 0 0 90.58330816662689,-13.82840370690596"/><text text-anchor="middle" pointer-events="none" font-size="8px" fill="#000000" x="72.6732487376834" y="-11.085439296683177" font-family="sans-serif">WROTE</text></g><g class="relationship" transform="translate(-3.0037958204750135 158.68445864189658) rotate(369.1201055002401)"><path class="outline" fill="#A5ABB6" stroke="none" d="M 31.26317983184346,-8.894581878976458 L 31.52199887694598,-7.92865605268739 A 150.70631143430163 150.70631143430163 0 0 1 50.95107365551519,-11.786950673891567 L 50.82117472393452,-12.778477913847269 A 151.70631143430163 151.70631143430163 0 0 0 31.26317983184346,-8.894581878976458 Z M 86.62668986936907,-13.207218616223173 L 86.52057017517924,-12.212865253225374 A 150.70631143430163 150.70631143430163 0 0 1 106.0364606289222,-8.820903588826447 L 105.32961302982002,-5.905364792712858 L 112.95719241970427,-7.6575156569402925 L 106.97892409439177,-12.708288650311234 L 106.2720764952896,-9.792749854197645 A 151.70631143430163 151.70631143430163 0 0 0 86.62668986936907,-13.207218616223173"/><text text-anchor="middle" pointer-events="none" font-size="8px" fill="#000000" x="68.71722483158642" y="-10.553010247919104" font-family="sans-serif">WROTE</text></g><g class="relationship" transform="translate(-3.0037958204750135 158.68445864189658) rotate(277.3646448284716)"><path class="outline" fill="#A5ABB6" stroke="none" d="M 32.5 0.5 L 64.2704711653288 0.5 L 64.2704711653288 -0.5 L 32.5 -0.5 Z M 111.1610961653288 0.5 L 142.9315673306576 0.5 L 142.9315673306576 3.5 L 149.9315673306576 0 L 142.9315673306576 -3.5 L 142.9315673306576 -0.5 L 111.1610961653288 -0.5 Z"/><text text-anchor="middle" pointer-events="none" font-size="8px" fill="#000000" x="87.7157836653288" y="3" font-family="sans-serif">DIRECTED</text></g><g class="relationship" transform="translate(-3.0037958204750135 158.68445864189658) rotate(180.80374986244175)"><path class="outline" fill="#A5ABB6" stroke="none" d="M 32.5 0.5 L 51.20281663480465 0.5 L 51.20281663480465 -0.5 L 32.5 -0.5 Z M 98.09344163480465 0.5 L 116.7962582696093 0.5 L 116.7962582696093 3.5 L 123.7962582696093 0 L 116.7962582696093 -3.5 L 116.7962582696093 -0.5 L 98.09344163480465 -0.5 Z"/><text text-anchor="middle" pointer-events="none" font-size="8px" fill="#000000" x="74.64812913480465" y="3" transform="rotate(180 74.64812913480465 0)" font-family="sans-serif">DIRECTED</text></g><g class="relationship" transform="translate(-3.0037958204750135 158.68445864189658) rotate(519.3851298863522)"><path class="outline" fill="#A5ABB6" stroke="none" d="M 32.5 0.5 L 34.16719564148188 0.5 L 34.16719564148188 -0.5 L 32.5 -0.5 Z M 56.16719564148188 0.5 L 57.834391282963765 0.5 L 57.834391282963765 3.5 L 64.83439128296376 0 L 57.834391282963765 -3.5 L 57.834391282963765 -0.5 L 56.16719564148188 -0.5 Z"/><text text-anchor="middle" pointer-events="none" font-size="8px" fill="#000000" x="45.16719564148188" y="3" transform="rotate(180 45.16719564148188 0)" font-family="sans-serif">DI…</text></g></g><g class="layer nodes"><g class="node" transform="translate(19.58660200950209,87.72895416291327)"><circle class="outline" cx="0" cy="0" r="32.5" fill="#68BDF6" stroke="#5CA8DB" stroke-width="2px"/><text text-anchor="middle" pointer-events="none" y="0" font-size="10px" fill="#FFFFFF" font-family="sans-serif"> Andy</text><text text-anchor="middle" pointer-events="none" y="10" font-size="10px" fill="#FFFFFF" font-family="sans-serif"> Wachowski</text></g><g class="node" transform="translate(139.7111335061821,181.59505410746524)"><circle class="outline" cx="0" cy="0" r="32.5" fill="#6DCE9E" stroke="#60B58B" stroke-width="2px"/><text text-anchor="middle" pointer-events="none" y="5" font-size="10px" fill="#FFFFFF" font-family="sans-serif"> Speed Racer</text></g><g class="node" transform="translate(69.8177446075019,304.17324547958214)"><circle class="outline" cx="0" cy="0" r="32.5" fill="#68BDF6" stroke="#5CA8DB" stroke-width="2px"/><text text-anchor="middle" pointer-events="none" y="0" font-size="10px" fill="#FFFFFF" font-family="sans-serif"> Christina</text><text text-anchor="middle" pointer-events="none" y="10" font-size="10px" fill="#FFFFFF" font-family="sans-serif"> Ricci</text></g><g class="node" transform="translate(141.35349858177196,326.6197238874155)"><circle class="outline" cx="0" cy="0" r="32.5" fill="#68BDF6" stroke="#5CA8DB" stroke-width="2px"/><text text-anchor="middle" pointer-events="none" y="5" font-size="10px" fill="#FFFFFF" font-family="sans-serif"> Rain</text></g><g class="node" transform="translate(213.86014288472697,307.6147781012316)"><circle class="outline" cx="0" cy="0" r="32.5" fill="#68BDF6" stroke="#5CA8DB" stroke-width="2px"/><text text-anchor="middle" pointer-events="none" y="5" font-size="10px" fill="#FFFFFF" font-family="sans-serif"> Ben Miles</text></g><g class="node" transform="translate(290.2843019779757,184.30336407145103)"><circle class="outline" cx="0" cy="0" r="32.5" fill="#68BDF6" stroke="#5CA8DB" stroke-width="2px"/><text text-anchor="middle" pointer-events="none" y="5" font-size="10px" fill="#FFFFFF" font-family="sans-serif"> Emile Hirsch</text></g><g class="node" transform="translate(268.1338815714754,255.88015496778613)"><circle class="outline" cx="0" cy="0" r="32.5" fill="#68BDF6" stroke="#5CA8DB" stroke-width="2px"/><text text-anchor="middle" pointer-events="none" y="0" font-size="10px" fill="#FFFFFF" font-family="sans-serif"> John</text><text text-anchor="middle" pointer-events="none" y="10" font-size="10px" fill="#FFFFFF" font-family="sans-serif"> Goodman</text></g><g class="node" transform="translate(215.83687311477257,65.19047201280274)"><circle class="outline" cx="0" cy="0" r="32.5" fill="#68BDF6" stroke="#5CA8DB" stroke-width="2px"/><text text-anchor="middle" pointer-events="none" y="0" font-size="10px" fill="#FFFFFF" font-family="sans-serif"> Susan</text><text text-anchor="middle" pointer-events="none" y="10" font-size="10px" fill="#FFFFFF" font-family="sans-serif"> Sarandon</text></g><g class="node" transform="translate(275.2828830870976,110.84743662450123)"><circle class="outline" cx="0" cy="0" r="32.5" fill="#68BDF6" stroke="#5CA8DB" stroke-width="2px"/><text text-anchor="middle" pointer-events="none" y="5" font-size="10px" fill="#FFFFFF" font-family="sans-serif"> Matthew Fox</text></g><g class="node" transform="translate(20.38094787577741,-22.242130119901613)"><circle class="outline" cx="0" cy="0" r="32.5" fill="#6DCE9E" stroke="#60B58B" stroke-width="2px"/><text text-anchor="middle" pointer-events="none" y="5" font-size="10px" fill="#FFFFFF" font-family="sans-serif"> Cloud Atlas</text></g><g class="node" transform="translate(156.9139350907873,-78.66955749475481)"><circle class="outline" cx="0" cy="0" r="32.5" fill="#68BDF6" stroke="#5CA8DB" stroke-width="2px"/><text text-anchor="middle" pointer-events="none" y="0" font-size="10px" fill="#FFFFFF" font-family="sans-serif"> Jim</text><text text-anchor="middle" pointer-events="none" y="10" font-size="10px" fill="#FFFFFF" font-family="sans-serif"> Broadbent</text></g><g class="node" transform="translate(-138.13718507976753,14.659009285808704)"><circle class="outline" cx="0" cy="0" r="32.5" fill="#68BDF6" stroke="#5CA8DB" stroke-width="2px"/><text text-anchor="middle" pointer-events="none" y="0" font-size="10px" fill="#FFFFFF" font-family="sans-serif"> Hugo</text><text text-anchor="middle" pointer-events="none" y="10" font-size="10px" fill="#FFFFFF" font-family="sans-serif"> Weaving</text></g><g class="node" transform="translate(106.79151972812546,-141.30694099959257)"><circle class="outline" cx="0" cy="0" r="32.5" fill="#68BDF6" stroke="#5CA8DB" stroke-width="2px"/><text text-anchor="middle" pointer-events="none" y="5" font-size="10px" fill="#FFFFFF" font-family="sans-serif"> Halle Berry</text></g><g class="node" transform="translate(18.747065975278442,-164.68673872721178)"><circle class="outline" cx="0" cy="0" r="32.5" fill="#68BDF6" stroke="#5CA8DB" stroke-width="2px"/><text text-anchor="middle" pointer-events="none" y="5" font-size="10px" fill="#FFFFFF" font-family="sans-serif"> Tom Hanks</text></g><g class="node" transform="translate(-159.28467580095432,156.4919939084446)"><circle class="outline" cx="0" cy="0" r="32.5" fill="#6DCE9E" stroke="#60B58B" stroke-width="2px"/><text text-anchor="middle" pointer-events="none" y="0" font-size="10px" fill="#FFFFFF" font-family="sans-serif"> The Matrix</text><text text-anchor="middle" pointer-events="none" y="10" font-size="10px" fill="#FFFFFF" font-family="sans-serif"> Revolutions</text></g><g class="node" transform="translate(-127.22989598515734,88.5476804720804)"><circle class="outline" cx="0" cy="0" r="32.5" fill="#68BDF6" stroke="#5CA8DB" stroke-width="2px"/><text text-anchor="middle" pointer-events="none" y="0" font-size="10px" fill="#FFFFFF" font-family="sans-serif"> Carrie-Anne</text><text text-anchor="middle" pointer-events="none" y="10" font-size="10px" fill="#FFFFFF" font-family="sans-serif"> Moss</text></g><g class="node" transform="translate(-196.89649175091986,61.26373954105797)"><circle class="outline" cx="0" cy="0" r="32.5" fill="#68BDF6" stroke="#5CA8DB" stroke-width="2px"/><text text-anchor="middle" pointer-events="none" y="0" font-size="10px" fill="#FFFFFF" font-family="sans-serif"> Laurence</text><text text-anchor="middle" pointer-events="none" y="10" font-size="10px" fill="#FFFFFF" font-family="sans-serif"> Fishburne</text></g><g class="node" transform="translate(-53.70298830033705,103.6053151430126)"><circle class="outline" cx="0" cy="0" r="32.5" fill="#68BDF6" stroke="#5CA8DB" stroke-width="2px"/><text text-anchor="middle" pointer-events="none" y="0" font-size="10px" fill="#FFFFFF" font-family="sans-serif"> Keanu</text><text text-anchor="middle" pointer-events="none" y="10" font-size="10px" fill="#FFFFFF" font-family="sans-serif"> Reeves</text></g><g class="node" transform="translate(-94.10568984385074,192.95439636840422)"><circle class="outline" cx="0" cy="0" r="32.5" fill="#6DCE9E" stroke="#60B58B" stroke-width="2px"/><text text-anchor="middle" pointer-events="none" y="0" font-size="10px" fill="#FFFFFF" font-family="sans-serif"> The Matrix</text><text text-anchor="middle" pointer-events="none" y="10" font-size="10px" fill="#FFFFFF" font-family="sans-serif"> Reloaded</text></g><g class="node" transform="translate(-54.14425876454277,-1.2854828621011858)"><circle class="outline" cx="0" cy="0" r="32.5" fill="#6DCE9E" stroke="#60B58B" stroke-width="2px"/><text text-anchor="middle" pointer-events="none" y="5" font-size="10px" fill="#FFFFFF" font-family="sans-serif"> The Matrix</text></g><g class="node" transform="translate(-3.0037958204750135,158.68445864189658)"><circle class="outline" cx="0" cy="0" r="32.5" fill="#68BDF6" stroke="#5CA8DB" stroke-width="2px"/><text text-anchor="middle" pointer-events="none" y="0" font-size="10px" fill="#FFFFFF" font-family="sans-serif"> Lana</text><text text-anchor="middle" pointer-events="none" y="10" font-size="10px" fill="#FFFFFF" font-family="sans-serif"> Wachowski</text></g></g></svg>