<svg xmlns="http://www.w3.org/2000/svg" width="779.2013549804688" height="898.2500610351562" viewBox="-347.7687683105469 -371.13775634765625 779.2013549804688 898.2500610351562"><title>Neo4j Graph Visualization</title><desc>Created using Neo4j (http://www.neo4j.com/)</desc><g class="layer relationships"><g class="relationship" transform="translate(45.36264902383847 347.31786619163506) rotate(384.5714075914424)"><path class="outline" fill="#A5ABB6" stroke="none" d="M 32.5 0.5 L 34.34819740617196 0.5 L 34.34819740617196 -0.5 L 32.5 -0.5 Z M 79.91069740617196 0.5 L 81.75889481234393 0.5 L 81.75889481234393 3.5 L 88.75889481234393 0 L 81.75889481234393 -3.5 L 81.75889481234393 -0.5 L 79.91069740617196 -0.5 Z"/><text text-anchor="middle" pointer-events="none" font-size="8px" fill="#000000" x="57.12944740617196" y="3" font-family="sans-serif">ACTED_IN</text></g><g class="relationship" transform="translate(73.40368145906659 490.61234757144604) rotate(311.52460185808155)"><path class="outline" fill="#A5ABB6" stroke="none" d="M 32.5 0.5 L 35.74315190644986 0.5 L 35.74315190644986 -0.5 L 32.5 -0.5 Z M 81.30565190644987 0.5 L 84.54880381289972 0.5 L 84.54880381289972 3.5 L 91.54880381289972 0 L 84.54880381289972 -3.5 L 84.54880381289972 -0.5 L 81.30565190644987 -0.5 Z"/><text text-anchor="middle" pointer-events="none" font-size="8px" fill="#000000" x="58.52440190644986" y="3" font-family="sans-serif">ACTED_IN</text></g><g class="relationship" transform="translate(273.0269762355886 355.67307529643267) rotate(444.9034295315203)"><path class="outline" fill="#A5ABB6" stroke="none" d="M 32.5 0.5 L 34.473388111336185 0.5 L 34.473388111336185 -0.5 L 32.5 -0.5 Z M 80.03588811133619 0.5 L 82.00927622267237 0.5 L 82.00927622267237 3.5 L 89.00927622267237 0 L 82.00927622267237 -3.5 L 82.00927622267237 -0.5 L 80.03588811133619 -0.5 Z"/><text text-anchor="middle" pointer-events="none" font-size="8px" fill="#000000" x="57.254638111336185" y="3" font-family="sans-serif">ACTED_IN</text></g><g class="relationship" transform="translate(273.0269762355886 355.67307529643267) rotate(371.5661042549526)"><path class="outline" fill="#A5ABB6" stroke="none" d="M 32.5 0.5 L 35.93494522597917 0.5 L 35.93494522597917 -0.5 L 32.5 -0.5 Z M 81.49744522597916 0.5 L 84.93239045195834 0.5 L 84.93239045195834 3.5 L 91.93239045195834 0 L 84.93239045195834 -3.5 L 84.93239045195834 -0.5 L 81.49744522597916 -0.5 Z"/><text text-anchor="middle" pointer-events="none" font-size="8px" fill="#000000" x="58.71619522597917" y="3" font-family="sans-serif">ACTED_IN</text></g><g class="relationship" transform="translate(273.0269762355886 355.67307529643267) rotate(251.9836857086509)"><path class="outline" fill="#A5ABB6" stroke="none" d="M 32.5 0.5 L 33.53134350107121 0.5 L 33.53134350107121 -0.5 L 32.5 -0.5 Z M 79.0938435010712 0.5 L 80.12518700214243 0.5 L 80.12518700214243 3.5 L 87.12518700214243 0 L 80.12518700214243 -3.5 L 80.12518700214243 -0.5 L 79.0938435010712 -0.5 Z"/><text text-anchor="middle" pointer-events="none" font-size="8px" fill="#000000" x="56.31259350107121" y="3" transform="rotate(180 56.31259350107121 0)" font-family="sans-serif">ACTED_IN</text></g><g class="relationship" transform="translate(273.0269762355886 355.67307529643267) rotate(319.11980842208396)"><path class="outline" fill="#A5ABB6" stroke="none" d="M 32.5 0.5 L 38.5959835881915 0.5 L 38.5959835881915 -0.5 L 32.5 -0.5 Z M 84.1584835881915 0.5 L 90.254467176383 0.5 L 90.254467176383 3.5 L 97.254467176383 0 L 90.254467176383 -3.5 L 90.254467176383 -0.5 L 84.1584835881915 -0.5 Z"/><text text-anchor="middle" pointer-events="none" font-size="8px" fill="#000000" x="61.3772335881915" y="3" font-family="sans-serif">ACTED_IN</text></g><g class="relationship" transform="translate(273.0269762355886 355.67307529643267) rotate(520.2839187717483)"><path class="outline" fill="#A5ABB6" stroke="none" d="M 32.5 0.5 L 36.0669500406241 0.5 L 36.0669500406241 -0.5 L 32.5 -0.5 Z M 81.6294500406241 0.5 L 85.1964000812482 0.5 L 85.1964000812482 3.5 L 92.1964000812482 0 L 85.1964000812482 -3.5 L 85.1964000812482 -0.5 L 81.6294500406241 -0.5 Z"/><text text-anchor="middle" pointer-events="none" font-size="8px" fill="#000000" x="58.8482000406241" y="3" transform="rotate(180 58.8482000406241 0)" font-family="sans-serif">ACTED_IN</text></g><g class="relationship" transform="translate(365.9957803640834 -110.52310810721765) rotate(189.24055992993226)"><path class="outline" fill="#A5ABB6" stroke="none" d="M 32.5 0.5 L 43.449298407422475 0.5 L 43.449298407422475 -0.5 L 32.5 -0.5 Z M 89.01179840742248 0.5 L 99.96109681484495 0.5 L 99.96109681484495 3.5 L 106.96109681484495 0 L 99.96109681484495 -3.5 L 99.96109681484495 -0.5 L 89.01179840742248 -0.5 Z"/><text text-anchor="middle" pointer-events="none" font-size="8px" fill="#000000" x="66.23054840742248" y="3" transform="rotate(180 66.23054840742248 0)" font-family="sans-serif">ACTED_IN</text></g><g class="relationship" transform="translate(344.19547850946066 -192.49641315271612) rotate(512.7846148207478)"><path class="outline" fill="#A5ABB6" stroke="none" d="M 32.5 0.5 L 38.85527271278704 0.5 L 38.85527271278704 -0.5 L 32.5 -0.5 Z M 84.41777271278704 0.5 L 90.77304542557408 0.5 L 90.77304542557408 3.5 L 97.77304542557408 0 L 90.77304542557408 -3.5 L 90.77304542557408 -0.5 L 84.41777271278704 -0.5 Z"/><text text-anchor="middle" pointer-events="none" font-size="8px" fill="#000000" x="61.63652271278704" y="3" transform="rotate(180 61.63652271278704 0)" font-family="sans-serif">ACTED_IN</text></g><g class="relationship" transform="translate(92.88063497683524 -108.47278878662314) rotate(520.2582621449362)"><path class="outline" fill="#A5ABB6" stroke="none" d="M 32.5 0.5 L 42.59273583465291 0.5 L 42.59273583465291 -0.5 L 32.5 -0.5 Z M 88.15523583465291 0.5 L 98.24797166930583 0.5 L 98.24797166930583 3.5 L 105.24797166930583 0 L 98.24797166930583 -3.5 L 98.24797166930583 -0.5 L 88.15523583465291 -0.5 Z"/><text text-anchor="middle" pointer-events="none" font-size="8px" fill="#000000" x="65.37398583465291" y="3" transform="rotate(180 65.37398583465291 0)" font-family="sans-serif">ACTED_IN</text></g><g class="relationship" transform="translate(92.88063497683524 -108.47278878662314) rotate(349.7708406781742)"><path class="outline" fill="#A5ABB6" stroke="none" d="M 32.5 0.5 L 42.54464191766063 0.5 L 42.54464191766063 -0.5 L 32.5 -0.5 Z M 88.10714191766063 0.5 L 98.15178383532125 0.5 L 98.15178383532125 3.5 L 105.15178383532125 0 L 98.15178383532125 -3.5 L 98.15178383532125 -0.5 L 88.10714191766063 -0.5 Z"/><text text-anchor="middle" pointer-events="none" font-size="8px" fill="#000000" x="65.32589191766063" y="3" font-family="sans-serif">ACTED_IN</text></g><g class="relationship" transform="translate(336.193659690091 -41.58219030758823) rotate(220.26067939441384)"><path class="outline" fill="#A5ABB6" stroke="none" d="M 32.5 0.5 L 44.38279618917828 0.5 L 44.38279618917828 -0.5 L 32.5 -0.5 Z M 89.94529618917828 0.5 L 101.82809237835656 0.5 L 101.82809237835656 3.5 L 108.82809237835656 0 L 101.82809237835656 -3.5 L 101.82809237835656 -0.5 L 89.94529618917828 -0.5 Z"/><text text-anchor="middle" pointer-events="none" font-size="8px" fill="#000000" x="67.16404618917828" y="3" transform="rotate(180 67.16404618917828 0)" font-family="sans-serif">ACTED_IN</text></g><g class="relationship" transform="translate(202.01630874692518 -257.2245630361961) rotate(320.39994669716856)"><path class="outline" fill="#A5ABB6" stroke="none" d="M 32.5 0.5 L 34.44215301112837 0.5 L 34.44215301112837 -0.5 L 32.5 -0.5 Z M 80.00465301112837 0.5 L 81.94680602225674 0.5 L 81.94680602225674 3.5 L 88.94680602225674 0 L 81.94680602225674 -3.5 L 81.94680602225674 -0.5 L 80.00465301112837 -0.5 Z"/><text text-anchor="middle" pointer-events="none" font-size="8px" fill="#000000" x="57.22340301112837" y="3" font-family="sans-serif">ACTED_IN</text></g><g class="relationship" transform="translate(202.01630874692518 -257.2245630361961) rotate(438.0414785886563)"><path class="outline" fill="#A5ABB6" stroke="none" d="M 32.5 0.5 L 37.25093417763901 0.5 L 37.25093417763901 -0.5 L 32.5 -0.5 Z M 82.81343417763901 0.5 L 87.56436835527802 0.5 L 87.56436835527802 3.5 L 94.56436835527802 0 L 87.56436835527802 -3.5 L 87.56436835527802 -0.5 L 82.81343417763901 -0.5 Z"/><text text-anchor="middle" pointer-events="none" font-size="8px" fill="#000000" x="60.03218417763901" y="3" font-family="sans-serif">ACTED_IN</text></g><g class="relationship" transform="translate(179.68735479335166 -14.869826544670225) rotate(292.4005350337338)"><path class="outline" fill="#A5ABB6" stroke="none" d="M 32.5 0.5 L 37.560022890114624 0.5 L 37.560022890114624 -0.5 L 32.5 -0.5 Z M 83.12252289011462 0.5 L 88.18254578022925 0.5 L 88.18254578022925 3.5 L 95.18254578022925 0 L 88.18254578022925 -3.5 L 88.18254578022925 -0.5 L 83.12252289011462 -0.5 Z"/><text text-anchor="middle" pointer-events="none" font-size="8px" fill="#000000" x="60.341272890114624" y="3" font-family="sans-serif">ACTED_IN</text></g><g class="relationship" transform="translate(268.3169828145976 -3.456124010169187) rotate(252.84143900293918)"><path class="outline" fill="#A5ABB6" stroke="none" d="M 32.5 0.5 L 41.46481268020152 0.5 L 41.46481268020152 -0.5 L 32.5 -0.5 Z M 87.02731268020152 0.5 L 95.99212536040304 0.5 L 95.99212536040304 3.5 L 102.99212536040304 0 L 95.99212536040304 -3.5 L 95.99212536040304 -0.5 L 87.02731268020152 -0.5 Z"/><text text-anchor="middle" pointer-events="none" font-size="8px" fill="#000000" x="64.24606268020152" y="3" transform="rotate(180 64.24606268020152 0)" font-family="sans-serif">ACTED_IN</text></g><g class="relationship" transform="translate(-161.42336376362348 -98.30390671532645) rotate(376.26142173343004)"><path class="outline" fill="#A5ABB6" stroke="none" d="M 32.5 0.5 L 38.64217348613845 0.5 L 38.64217348613845 -0.5 L 32.5 -0.5 Z M 84.20467348613845 0.5 L 90.3468469722769 0.5 L 90.3468469722769 3.5 L 97.3468469722769 0 L 90.3468469722769 -3.5 L 90.3468469722769 -0.5 L 84.20467348613845 -0.5 Z"/><text text-anchor="middle" pointer-events="none" font-size="8px" fill="#000000" x="61.42342348613845" y="3" font-family="sans-serif">ACTED_IN</text></g><g class="relationship" transform="translate(-18.37294249715431 -190.31748469730354) rotate(458.15598199517694)"><path class="outline" fill="#A5ABB6" stroke="none" d="M 32.5 0.5 L 38.56127015752085 0.5 L 38.56127015752085 -0.5 L 32.5 -0.5 Z M 84.12377015752085 0.5 L 90.1850403150417 0.5 L 90.1850403150417 3.5 L 97.1850403150417 0 L 90.1850403150417 -3.5 L 90.1850403150417 -0.5 L 84.12377015752085 -0.5 Z"/><text text-anchor="middle" pointer-events="none" font-size="8px" fill="#000000" x="61.34252015752085" y="3" transform="rotate(180 61.34252015752085 0)" font-family="sans-serif">ACTED_IN</text></g><g class="relationship" transform="translate(-6.034669539913477 61.49164660840781) rotate(256.017265392162)"><path class="outline" fill="#A5ABB6" stroke="none" d="M 32.5 0.5 L 37.32127724805144 0.5 L 37.32127724805144 -0.5 L 32.5 -0.5 Z M 82.88377724805144 0.5 L 87.70505449610287 0.5 L 87.70505449610287 3.5 L 94.70505449610287 0 L 87.70505449610287 -3.5 L 87.70505449610287 -0.5 L 82.88377724805144 -0.5 Z"/><text text-anchor="middle" pointer-events="none" font-size="8px" fill="#000000" x="60.10252724805144" y="3" transform="rotate(180 60.10252724805144 0)" font-family="sans-serif">ACTED_IN</text></g><g class="relationship" transform="translate(-109.03402183204324 -174.13522877564233) rotate(417.21420575803614)"><path class="outline" fill="#A5ABB6" stroke="none" d="M 32.5 0.5 L 40.44348448316647 0.5 L 40.44348448316647 -0.5 L 32.5 -0.5 Z M 86.00598448316647 0.5 L 93.94946896633294 0.5 L 93.94946896633294 3.5 L 100.94946896633294 0 L 93.94946896633294 -3.5 L 93.94946896633294 -0.5 L 86.00598448316647 -0.5 Z"/><text text-anchor="middle" pointer-events="none" font-size="8px" fill="#000000" x="63.22473448316647" y="3" font-family="sans-serif">ACTED_IN</text></g><g class="relationship" transform="translate(-136.7219408027688 21.191035645638777) rotate(535.975662650132)"><path class="outline" fill="#A5ABB6" stroke="none" d="M 32.5 0.5 L 36.826204721757435 0.5 L 36.826204721757435 -0.5 L 32.5 -0.5 Z M 82.38870472175743 0.5 L 86.71490944351487 0.5 L 86.71490944351487 3.5 L 93.71490944351487 0 L 86.71490944351487 -3.5 L 86.71490944351487 -0.5 L 82.38870472175743 -0.5 Z"/><text text-anchor="middle" pointer-events="none" font-size="8px" fill="#000000" x="59.607454721757435" y="3" transform="rotate(180 59.607454721757435 0)" font-family="sans-serif">ACTED_IN</text></g><g class="relationship" transform="translate(-136.7219408027688 21.191035645638777) rotate(320.2476304865177)"><path class="outline" fill="#A5ABB6" stroke="none" d="M 32.5 0.5 L 38.72185708064896 0.5 L 38.72185708064896 -0.5 L 32.5 -0.5 Z M 84.28435708064896 0.5 L 90.50621416129792 0.5 L 90.50621416129792 3.5 L 97.50621416129792 0 L 90.50621416129792 -3.5 L 90.50621416129792 -0.5 L 84.28435708064896 -0.5 Z"/><text text-anchor="middle" pointer-events="none" font-size="8px" fill="#000000" x="61.50310708064896" y="3" font-family="sans-serif">ACTED_IN</text></g><g class="relationship" transform="translate(-245.30024780547595 309.2241213558129) rotate(236.3075493952672)"><path class="outline" fill="#A5ABB6" stroke="none" d="M 32.5 0.5 L 33.17825400579125 0.5 L 33.17825400579125 -0.5 L 32.5 -0.5 Z M 78.74075400579125 0.5 L 79.4190080115825 0.5 L 79.4190080115825 3.5 L 86.4190080115825 0 L 79.4190080115825 -3.5 L 79.4190080115825 -0.5 L 78.74075400579125 -0.5 Z"/><text text-anchor="middle" pointer-events="none" font-size="8px" fill="#000000" x="55.95950400579125" y="3" transform="rotate(180 55.95950400579125 0)" font-family="sans-serif">ACTED_IN</text></g><g class="relationship" transform="translate(-245.30024780547595 309.2241213558129) rotate(343.00724901771036)"><path class="outline" fill="#A5ABB6" stroke="none" d="M 32.5 0.5 L 33.575728835769446 0.5 L 33.575728835769446 -0.5 L 32.5 -0.5 Z M 79.13822883576944 0.5 L 80.21395767153889 0.5 L 80.21395767153889 3.5 L 87.21395767153889 0 L 80.21395767153889 -3.5 L 80.21395767153889 -0.5 L 79.13822883576944 -0.5 Z"/><text text-anchor="middle" pointer-events="none" font-size="8px" fill="#000000" x="56.356978835769446" y="3" font-family="sans-serif">ACTED_IN</text></g><g class="relationship" transform="translate(-245.30024780547595 309.2241213558129) rotate(420.73481848816084)"><path class="outline" fill="#A5ABB6" stroke="none" d="M 32.5 0.5 L 33.77198555083985 0.5 L 33.77198555083985 -0.5 L 32.5 -0.5 Z M 79.33448555083984 0.5 L 80.6064711016797 0.5 L 80.6064711016797 3.5 L 87.6064711016797 0 L 80.6064711016797 -3.5 L 80.6064711016797 -0.5 L 79.33448555083984 -0.5 Z"/><text text-anchor="middle" pointer-events="none" font-size="8px" fill="#000000" x="56.55323555083985" y="3" font-family="sans-serif">ACTED_IN</text></g></g><g class="layer nodes"><g class="node" transform="translate(45.36264902383847,347.31786619163506)"><circle class="outline" cx="0" cy="0" r="32.5" fill="#68BDF6" stroke="#5CA8DB" stroke-width="2px"/><text text-anchor="middle" pointer-events="none" y="0" font-size="10px" fill="#FFFFFF" font-family="sans-serif"> Anthony</text><text text-anchor="middle" pointer-events="none" y="10" font-size="10px" fill="#FFFFFF" font-family="sans-serif"> Edwards</text></g><g class="node" transform="translate(155.64079099632735,397.7405889880755)"><circle class="outline" cx="0" cy="0" r="32.5" fill="#6DCE9E" stroke="#60B58B" stroke-width="2px"/><text text-anchor="middle" pointer-events="none" y="5" font-size="10px" fill="#FFFFFF" font-family="sans-serif"> Top Gun</text></g><g class="node" transform="translate(73.40368145906659,490.61234757144604)"><circle class="outline" cx="0" cy="0" r="32.5" fill="#68BDF6" stroke="#5CA8DB" stroke-width="2px"/><text text-anchor="middle" pointer-events="none" y="5" font-size="10px" fill="#FFFFFF" font-family="sans-serif"> Tom Skerritt</text></g><g class="node" transform="translate(273.0269762355886,355.67307529643267)"><circle class="outline" cx="0" cy="0" r="32.5" fill="#68BDF6" stroke="#5CA8DB" stroke-width="2px"/><text text-anchor="middle" pointer-events="none" y="5" font-size="10px" fill="#FFFFFF" font-family="sans-serif"> Meg Ryan</text></g><g class="node" transform="translate(283.8212135484821,476.7019505658932)"><circle class="outline" cx="0" cy="0" r="32.5" fill="#6DCE9E" stroke="#60B58B" stroke-width="2px"/><text text-anchor="middle" pointer-events="none" y="0" font-size="10px" fill="#FFFFFF" font-family="sans-serif"> Joe Versus</text><text text-anchor="middle" pointer-events="none" y="10" font-size="10px" fill="#FFFFFF" font-family="sans-serif"> the Volcano</text></g><g class="node" transform="translate(394.9326468395902,380.6215675991207)"><circle class="outline" cx="0" cy="0" r="32.5" fill="#6DCE9E" stroke="#60B58B" stroke-width="2px"/><text text-anchor="middle" pointer-events="none" y="0" font-size="10px" fill="#FFFFFF" font-family="sans-serif"> When Harry</text><text text-anchor="middle" pointer-events="none" y="10" font-size="10px" fill="#FFFFFF" font-family="sans-serif"> Met Sally</text></g><g class="node" transform="translate(236.02836725277587,241.91329198688837)"><circle class="outline" cx="0" cy="0" r="32.5" fill="#6DCE9E" stroke="#60B58B" stroke-width="2px"/><text text-anchor="middle" pointer-events="none" y="0" font-size="10px" fill="#FFFFFF" font-family="sans-serif"> Sleepless in</text><text text-anchor="middle" pointer-events="none" y="10" font-size="10px" fill="#FFFFFF" font-family="sans-serif"> Seattle</text></g><g class="node" transform="translate(371.1317055458902,270.7514417795278)"><circle class="outline" cx="0" cy="0" r="32.5" fill="#6DCE9E" stroke="#60B58B" stroke-width="2px"/><text text-anchor="middle" pointer-events="none" y="0" font-size="10px" fill="#FFFFFF" font-family="sans-serif"> You've Got</text><text text-anchor="middle" pointer-events="none" y="10" font-size="10px" fill="#FFFFFF" font-family="sans-serif"> Mail</text></g><g class="node" transform="translate(228.34449291277684,-132.91776344721637)"><circle class="outline" cx="0" cy="0" r="32.5" fill="#6DCE9E" stroke="#60B58B" stroke-width="2px"/><text text-anchor="middle" pointer-events="none" y="5" font-size="10px" fill="#FFFFFF" font-family="sans-serif"> Jerry Maguire</text></g><g class="node" transform="translate(365.9957803640834,-110.52310810721765)"><circle class="outline" cx="0" cy="0" r="32.5" fill="#68BDF6" stroke="#5CA8DB" stroke-width="2px"/><text text-anchor="middle" pointer-events="none" y="0" font-size="10px" fill="#FFFFFF" font-family="sans-serif"> Renee</text><text text-anchor="middle" pointer-events="none" y="10" font-size="10px" fill="#FFFFFF" font-family="sans-serif"> Zellweger</text></g><g class="node" transform="translate(344.19547850946066,-192.49641315271612)"><circle class="outline" cx="0" cy="0" r="32.5" fill="#68BDF6" stroke="#5CA8DB" stroke-width="2px"/><text text-anchor="middle" pointer-events="none" y="5" font-size="10px" fill="#FFFFFF" font-family="sans-serif"> Kelly Preston</text></g><g class="node" transform="translate(92.88063497683524,-108.47278878662314)"><circle class="outline" cx="0" cy="0" r="32.5" fill="#68BDF6" stroke="#5CA8DB" stroke-width="2px"/><text text-anchor="middle" pointer-events="none" y="0" font-size="10px" fill="#FFFFFF" font-family="sans-serif"> Jerry</text><text text-anchor="middle" pointer-events="none" y="10" font-size="10px" fill="#FFFFFF" font-family="sans-serif"> O'Connell</text></g><g class="node" transform="translate(-36.77116296335185,-61.94414180559889)"><circle class="outline" cx="0" cy="0" r="32.5" fill="#6DCE9E" stroke="#60B58B" stroke-width="2px"/><text text-anchor="middle" pointer-events="none" y="5" font-size="10px" fill="#FFFFFF" font-family="sans-serif"> Stand By Me</text></g><g class="node" transform="translate(336.193659690091,-41.58219030758823)"><circle class="outline" cx="0" cy="0" r="32.5" fill="#68BDF6" stroke="#5CA8DB" stroke-width="2px"/><text text-anchor="middle" pointer-events="none" y="5" font-size="10px" fill="#FFFFFF" font-family="sans-serif"> Jay Mohr</text></g><g class="node" transform="translate(295.5926090616748,-334.6377577281312)"><circle class="outline" cx="0" cy="0" r="32.5" fill="#6DCE9E" stroke="#60B58B" stroke-width="2px"/><text text-anchor="middle" pointer-events="none" y="0" font-size="10px" fill="#FFFFFF" font-family="sans-serif"> The Green</text><text text-anchor="middle" pointer-events="none" y="10" font-size="10px" fill="#FFFFFF" font-family="sans-serif"> Mile</text></g><g class="node" transform="translate(202.01630874692518,-257.2245630361961)"><circle class="outline" cx="0" cy="0" r="32.5" fill="#68BDF6" stroke="#5CA8DB" stroke-width="2px"/><text text-anchor="middle" pointer-events="none" y="5" font-size="10px" fill="#FFFFFF" font-family="sans-serif"> Bonnie Hunt</text></g><g class="node" transform="translate(179.68735479335166,-14.869826544670225)"><circle class="outline" cx="0" cy="0" r="32.5" fill="#68BDF6" stroke="#5CA8DB" stroke-width="2px"/><text text-anchor="middle" pointer-events="none" y="5" font-size="10px" fill="#FFFFFF" font-family="sans-serif"> Regina King</text></g><g class="node" transform="translate(268.3169828145976,-3.456124010169187)"><circle class="outline" cx="0" cy="0" r="32.5" fill="#68BDF6" stroke="#5CA8DB" stroke-width="2px"/><text text-anchor="middle" pointer-events="none" y="0" font-size="10px" fill="#FFFFFF" font-family="sans-serif"> Jonathan</text><text text-anchor="middle" pointer-events="none" y="10" font-size="10px" fill="#FFFFFF" font-family="sans-serif"> Lipnicki</text></g><g class="node" transform="translate(-161.42336376362348,-98.30390671532645)"><circle class="outline" cx="0" cy="0" r="32.5" fill="#68BDF6" stroke="#5CA8DB" stroke-width="2px"/><text text-anchor="middle" pointer-events="none" y="0" font-size="10px" fill="#FFFFFF" font-family="sans-serif"> River</text><text text-anchor="middle" pointer-events="none" y="10" font-size="10px" fill="#FFFFFF" font-family="sans-serif"> Phoenix</text></g><g class="node" transform="translate(-18.37294249715431,-190.31748469730354)"><circle class="outline" cx="0" cy="0" r="32.5" fill="#68BDF6" stroke="#5CA8DB" stroke-width="2px"/><text text-anchor="middle" pointer-events="none" y="0" font-size="10px" fill="#FFFFFF" font-family="sans-serif"> Corey</text><text text-anchor="middle" pointer-events="none" y="10" font-size="10px" fill="#FFFFFF" font-family="sans-serif"> Feldman</text></g><g class="node" transform="translate(-6.034669539913477,61.49164660840781)"><circle class="outline" cx="0" cy="0" r="32.5" fill="#68BDF6" stroke="#5CA8DB" stroke-width="2px"/><text text-anchor="middle" pointer-events="none" y="5" font-size="10px" fill="#FFFFFF" font-family="sans-serif"> Wil Wheaton</text></g><g class="node" transform="translate(-109.03402183204324,-174.13522877564233)"><circle class="outline" cx="0" cy="0" r="32.5" fill="#68BDF6" stroke="#5CA8DB" stroke-width="2px"/><text text-anchor="middle" pointer-events="none" y="5" font-size="10px" fill="#FFFFFF" font-family="sans-serif"> John Cusack</text></g><g class="node" transform="translate(-136.7219408027688,21.191035645638777)"><circle class="outline" cx="0" cy="0" r="32.5" fill="#68BDF6" stroke="#5CA8DB" stroke-width="2px"/><text text-anchor="middle" pointer-events="none" y="5" font-size="10px" fill="#FFFFFF" font-family="sans-serif"> Marshall Bell</text></g><g class="node" transform="translate(-262.6256459339061,30.048823184651454)"><circle class="outline" cx="0" cy="0" r="32.5" fill="#6DCE9E" stroke="#60B58B" stroke-width="2px"/><text text-anchor="middle" pointer-events="none" y="5" font-size="10px" fill="#FFFFFF" font-family="sans-serif"> RescueDawn</text></g><g class="node" transform="translate(-311.2687602706133,210.28026945183737)"><circle class="outline" cx="0" cy="0" r="32.5" fill="#6DCE9E" stroke="#60B58B" stroke-width="2px"/><text text-anchor="middle" pointer-events="none" y="5" font-size="10px" fill="#FFFFFF" font-family="sans-serif"> Cast Away</text></g><g class="node" transform="translate(-245.30024780547595,309.2241213558129)"><circle class="outline" cx="0" cy="0" r="32.5" fill="#68BDF6" stroke="#5CA8DB" stroke-width="2px"/><text text-anchor="middle" pointer-events="none" y="5" font-size="10px" fill="#FFFFFF" font-family="sans-serif"> Helen Hunt</text></g><g class="node" transform="translate(-130.81279334916377,274.23763205641546)"><circle class="outline" cx="0" cy="0" r="32.5" fill="#6DCE9E" stroke="#60B58B" stroke-width="2px"/><text text-anchor="middle" pointer-events="none" y="5" font-size="10px" fill="#FFFFFF" font-family="sans-serif"> Twister</text></g><g class="node" transform="translate(-186.58591027373132,414.00098411046395)"><circle class="outline" cx="0" cy="0" r="32.5" fill="#6DCE9E" stroke="#60B58B" stroke-width="2px"/><text text-anchor="middle" pointer-events="none" y="0" font-size="10px" fill="#FFFFFF" font-family="sans-serif"> As Good as</text><text text-anchor="middle" pointer-events="none" y="10" font-size="10px" fill="#FFFFFF" font-family="sans-serif"> It Gets</text></g></g></svg>