<svg xmlns="http://www.w3.org/2000/svg" width="729.242431640625" height="750.75244140625" viewBox="-273.7535400390625 -306.3086853027344 729.242431640625 750.75244140625"><title>Neo4j Graph Visualization</title><desc>Created using Neo4j (http://www.neo4j.com/)</desc><g class="layer relationships"><g class="relationship" transform="translate(134.88015732742122 407.9437814391499) rotate(299.1245087520334)"><path class="outline" fill="#A5ABB6" stroke="none" d="M 32.5 0.5 L 34.36076257774653 0.5 L 34.36076257774653 -0.5 L 32.5 -0.5 Z M 69.69670007774653 0.5 L 71.55746265549305 0.5 L 71.55746265549305 3.5 L 78.55746265549305 0 L 71.55746265549305 -3.5 L 71.55746265549305 -0.5 L 69.69670007774653 -0.5 Z"/><text text-anchor="middle" pointer-events="none" font-size="8px" fill="#000000" x="52.02873132774653" y="3" font-family="sans-serif">ACTE…</text></g><g class="relationship" transform="translate(93.44283699055497 179.05120105614185) rotate(439.3763455232903)"><path class="outline" fill="#A5ABB6" stroke="none" d="M 32.5 0.5 L 33.36241148441134 0.5 L 33.36241148441134 -0.5 L 32.5 -0.5 Z M 78.92491148441134 0.5 L 79.78732296882268 0.5 L 79.78732296882268 3.5 L 86.78732296882268 0 L 79.78732296882268 -3.5 L 79.78732296882268 -0.5 L 78.92491148441134 -0.5 Z"/><text text-anchor="middle" pointer-events="none" font-size="8px" fill="#000000" x="56.14366148441134" y="3" font-family="sans-serif">ACTED_IN</text></g><g class="relationship" transform="translate(134.88015732742122 407.9437814391499) rotate(260.1200110882279)"><path class="outline" fill="#A5ABB6" stroke="none" d="M 32.5 0.5 L 32.60870689809652 0.5 L 32.60870689809652 -0.5 L 32.5 -0.5 Z M 73.72198814809653 0.5 L 73.83069504619304 0.5 L 73.83069504619304 3.5 L 80.83069504619304 0 L 73.83069504619304 -3.5 L 73.83069504619304 -0.5 L 73.72198814809653 -0.5 Z"/><text text-anchor="middle" pointer-events="none" font-size="8px" fill="#000000" x="53.16534752309652" y="3" transform="rotate(180 53.16534752309652 0)" font-family="sans-serif">ACTED…</text></g><g class="relationship" transform="translate(93.44283699055497 179.05120105614185) rotate(414.0922638484061)"><path class="outline" fill="#A5ABB6" stroke="none" d="M 32.5 0.5 L 55.127934641249055 0.5 L 55.127934641249055 -0.5 L 32.5 -0.5 Z M 100.69043464124906 0.5 L 123.31836928249811 0.5 L 123.31836928249811 3.5 L 130.3183692824981 0 L 123.31836928249811 -3.5 L 123.31836928249811 -0.5 L 100.69043464124906 -0.5 Z"/><text text-anchor="middle" pointer-events="none" font-size="8px" fill="#000000" x="77.90918464124906" y="3" font-family="sans-serif">ACTED_IN</text></g><g class="relationship" transform="translate(93.44283699055497 179.05120105614185) rotate(476.191841711099)"><path class="outline" fill="#A5ABB6" stroke="none" d="M 32.5 0.5 L 32.55343237744775 0.5 L 32.55343237744775 -0.5 L 32.5 -0.5 Z M 78.11593237744775 0.5 L 78.1693647548955 0.5 L 78.1693647548955 3.5 L 85.1693647548955 0 L 78.1693647548955 -3.5 L 78.1693647548955 -0.5 L 78.11593237744775 -0.5 Z"/><text text-anchor="middle" pointer-events="none" font-size="8px" fill="#000000" x="55.33468237744775" y="3" transform="rotate(180 55.33468237744775 0)" font-family="sans-serif">ACTED_IN</text></g><g class="relationship" transform="translate(182.79865174663686 203.38576578216342) rotate(510.0982122794445)"><path class="outline" fill="#A5ABB6" stroke="none" d="M 32.5 0.5 L 55.213477818369014 0.5 L 55.213477818369014 -0.5 L 32.5 -0.5 Z M 100.77597781836901 0.5 L 123.48945563673803 0.5 L 123.48945563673803 3.5 L 130.48945563673803 0 L 123.48945563673803 -3.5 L 123.48945563673803 -0.5 L 100.77597781836901 -0.5 Z"/><text text-anchor="middle" pointer-events="none" font-size="8px" fill="#000000" x="77.99472781836901" y="3" transform="rotate(180 77.99472781836901 0)" font-family="sans-serif">ACTED_IN</text></g><g class="relationship" transform="translate(182.79865174663686 203.38576578216342) rotate(485.9445283015114)"><path class="outline" fill="#A5ABB6" stroke="none" d="M 32.5 0.5 L 33.32338350638844 0.5 L 33.32338350638844 -0.5 L 32.5 -0.5 Z M 74.43666475638844 0.5 L 75.26004826277688 0.5 L 75.26004826277688 3.5 L 82.26004826277688 0 L 75.26004826277688 -3.5 L 75.26004826277688 -0.5 L 74.43666475638844 -0.5 Z"/><text text-anchor="middle" pointer-events="none" font-size="8px" fill="#000000" x="53.88002413138844" y="3" transform="rotate(180 53.88002413138844 0)" font-family="sans-serif">ACTED…</text></g><g class="relationship" transform="translate(182.79865174663686 203.38576578216342) rotate(446.7353989614396)"><path class="outline" fill="#A5ABB6" stroke="none" d="M 32.5 0.5 L 32.69053444597495 0.5 L 32.69053444597495 -0.5 L 32.5 -0.5 Z M 68.02647194597495 0.5 L 68.2170063919499 0.5 L 68.2170063919499 3.5 L 75.2170063919499 0 L 68.2170063919499 -3.5 L 68.2170063919499 -0.5 L 68.02647194597495 -0.5 Z"/><text text-anchor="middle" pointer-events="none" font-size="8px" fill="#000000" x="50.35850319597495" y="3" font-family="sans-serif">ACTE…</text></g><g class="relationship" transform="translate(182.79865174663686 203.38576578216342) rotate(333.5543906281355)"><path class="outline" fill="#A5ABB6" stroke="none" d="M 32.5 0.5 L 41.677392945509595 0.5 L 41.677392945509595 -0.5 L 32.5 -0.5 Z M 87.2398929455096 0.5 L 96.41728589101919 0.5 L 96.41728589101919 3.5 L 103.41728589101919 0 L 96.41728589101919 -3.5 L 96.41728589101919 -0.5 L 87.2398929455096 -0.5 Z"/><text text-anchor="middle" pointer-events="none" font-size="8px" fill="#000000" x="64.4586429455096" y="3" font-family="sans-serif">ACTED_IN</text></g><g class="relationship" transform="translate(407.2481272949391 215.0677194670386) rotate(215.09816824110032)"><path class="outline" fill="#A5ABB6" stroke="none" d="M 32.5 0.5 L 36.51447003879572 0.5 L 36.51447003879572 -0.5 L 32.5 -0.5 Z M 82.07697003879572 0.5 L 86.09144007759144 0.5 L 86.09144007759144 3.5 L 93.09144007759144 0 L 86.09144007759144 -3.5 L 86.09144007759144 -0.5 L 82.07697003879572 -0.5 Z"/><text text-anchor="middle" pointer-events="none" font-size="8px" fill="#000000" x="59.29572003879572" y="3" transform="rotate(180 59.29572003879572 0)" font-family="sans-serif">ACTED_IN</text></g><g class="relationship" transform="translate(140.57371210492485 -269.8086755520088) rotate(400.20171237782216)"><path class="outline" fill="#A5ABB6" stroke="none" d="M 31.26317983184346,8.894581878976458 L 31.52199887694598,7.92865605268739 A 101.06607615743931 101.06607615743931 0 0 0 33.7897440596889,8.508236459420118 L 33.55336325765431,9.47989695384679 A 102.06607615743931 102.06607615743931 0 0 1 31.26317983184346,8.894581878976458 Z M 78.95253433165382,10.13094767733402 L 78.74411336621408,9.152908464845495 A 101.06607615743931 101.06607615743931 0 0 0 81.0275456338381,8.638594610379796 L 80.33450235993496,5.7197436343110235 L 87.95370512364909,7.507968800617281 L 81.95160333237561,12.530395911804828 L 81.25856005847247,9.611544935736054 A 102.06607615743931 102.06607615743931 0 0 1 78.95253433165382,10.13094767733402"/><text text-anchor="middle" pointer-events="none" font-size="8px" fill="#000000" x="56.22345688122648" y="14.861957044293106" font-family="sans-serif">ACTED_IN</text></g><g class="relationship" transform="translate(93.44283699055497 179.05120105614185) rotate(279.0113730498168)"><path class="outline" fill="#A5ABB6" stroke="none" d="M 32.5 0.5 L 45.69617451870809 0.5 L 45.69617451870809 -0.5 L 32.5 -0.5 Z M 91.25867451870809 0.5 L 104.45484903741618 0.5 L 104.45484903741618 3.5 L 111.45484903741618 0 L 104.45484903741618 -3.5 L 104.45484903741618 -0.5 L 91.25867451870809 -0.5 Z"/><text text-anchor="middle" pointer-events="none" font-size="8px" fill="#000000" x="68.47742451870809" y="3" font-family="sans-serif">ACTED_IN</text></g><g class="relationship" transform="translate(149.6640799771609 -96.32046029620861) rotate(310.49503119025997)"><path class="outline" fill="#A5ABB6" stroke="none" d="M 32.5 0.5 L 37.03888362194178 0.5 L 37.03888362194178 -0.5 L 32.5 -0.5 Z M 82.60138362194178 0.5 L 87.14026724388356 0.5 L 87.14026724388356 3.5 L 94.14026724388356 0 L 87.14026724388356 -3.5 L 87.14026724388356 -0.5 L 82.60138362194178 -0.5 Z"/><text text-anchor="middle" pointer-events="none" font-size="8px" fill="#000000" x="59.82013362194178" y="3" font-family="sans-serif">ACTED_IN</text></g><g class="relationship" transform="translate(149.6640799771609 -96.32046029620861) rotate(464.18801501424036)"><path class="outline" fill="#A5ABB6" stroke="none" d="M 32.5 0.5 L 42.41089525746784 0.5 L 42.41089525746784 -0.5 L 32.5 -0.5 Z M 87.97339525746784 0.5 L 97.88429051493569 0.5 L 97.88429051493569 3.5 L 104.88429051493569 0 L 97.88429051493569 -3.5 L 97.88429051493569 -0.5 L 87.97339525746784 -0.5 Z"/><text text-anchor="middle" pointer-events="none" font-size="8px" fill="#000000" x="65.19214525746784" y="3" transform="rotate(180 65.19214525746784 0)" font-family="sans-serif">ACTED_IN</text></g><g class="relationship" transform="translate(333.6315916589917 16.489168522106407) rotate(462.9847010027244)"><path class="outline" fill="#A5ABB6" stroke="none" d="M 32.5 0.5 L 38.55977803667483 0.5 L 38.55977803667483 -0.5 L 32.5 -0.5 Z M 84.12227803667483 0.5 L 90.18205607334966 0.5 L 90.18205607334966 3.5 L 97.18205607334966 0 L 90.18205607334966 -3.5 L 90.18205607334966 -0.5 L 84.12227803667483 -0.5 Z"/><text text-anchor="middle" pointer-events="none" font-size="8px" fill="#000000" x="61.34102803667483" y="3" transform="rotate(180 61.34102803667483 0)" font-family="sans-serif">ACTED_IN</text></g><g class="relationship" transform="translate(-130.78424715289177 29.19750875738998) rotate(281.26267066749165)"><path class="outline" fill="#A5ABB6" stroke="none" d="M 32.5 0.5 L 36.15678753275859 0.5 L 36.15678753275859 -0.5 L 32.5 -0.5 Z M 81.71928753275859 0.5 L 85.37607506551718 0.5 L 85.37607506551718 3.5 L 92.37607506551718 0 L 85.37607506551718 -3.5 L 85.37607506551718 -0.5 L 81.71928753275859 -0.5 Z"/><text text-anchor="middle" pointer-events="none" font-size="8px" fill="#000000" x="58.93803753275859" y="3" font-family="sans-serif">ACTED_IN</text></g><g class="relationship" transform="translate(-206.04328948394735 -149.89870727412938) rotate(389.60735062734284)"><path class="outline" fill="#A5ABB6" stroke="none" d="M 32.5 0.5 L 33.249906472019134 0.5 L 33.249906472019134 -0.5 L 32.5 -0.5 Z M 74.36318772201913 0.5 L 75.11309419403827 0.5 L 75.11309419403827 3.5 L 82.11309419403827 0 L 75.11309419403827 -3.5 L 75.11309419403827 -0.5 L 74.36318772201913 -0.5 Z"/><text text-anchor="middle" pointer-events="none" font-size="8px" fill="#000000" x="53.806547097019134" y="3" font-family="sans-serif">ACTED…</text></g><g class="relationship" transform="translate(-130.78424715289177 29.19750875738998) rotate(395.6491299430213)"><path class="outline" fill="#A5ABB6" stroke="none" d="M 32.5 0.5 L 39.600429051413826 0.5 L 39.600429051413826 -0.5 L 32.5 -0.5 Z M 85.16292905141383 0.5 L 92.26335810282765 0.5 L 92.26335810282765 3.5 L 99.26335810282765 0 L 92.26335810282765 -3.5 L 92.26335810282765 -0.5 L 85.16292905141383 -0.5 Z"/><text text-anchor="middle" pointer-events="none" font-size="8px" fill="#000000" x="62.381679051413826" y="3" font-family="sans-serif">ACTED_IN</text></g><g class="relationship" transform="translate(93.44283699055497 179.05120105614185) rotate(211.947977960233)"><path class="outline" fill="#A5ABB6" stroke="none" d="M 32.5 0.5 L 42.753528283753894 0.5 L 42.753528283753894 -0.5 L 32.5 -0.5 Z M 88.3160282837539 0.5 L 98.56955656750779 0.5 L 98.56955656750779 3.5 L 105.56955656750779 0 L 98.56955656750779 -3.5 L 98.56955656750779 -0.5 L 88.3160282837539 -0.5 Z"/><text text-anchor="middle" pointer-events="none" font-size="8px" fill="#000000" x="65.5347782837539" y="3" transform="rotate(180 65.5347782837539 0)" font-family="sans-serif">ACTED_IN</text></g><g class="relationship" transform="translate(-130.78424715289177 29.19750875738998) rotate(502.2317875466241)"><path class="outline" fill="#A5ABB6" stroke="none" d="M 32.5 0.5 L 35.16128452162559 0.5 L 35.16128452162559 -0.5 L 32.5 -0.5 Z M 80.72378452162559 0.5 L 83.38506904325118 0.5 L 83.38506904325118 3.5 L 90.38506904325118 0 L 83.38506904325118 -3.5 L 83.38506904325118 -0.5 L 80.72378452162559 -0.5 Z"/><text text-anchor="middle" pointer-events="none" font-size="8px" fill="#000000" x="57.94253452162559" y="3" transform="rotate(180 57.94253452162559 0)" font-family="sans-serif">ACTED_IN</text></g><g class="relationship" transform="translate(-237.25351753730595 226.19300930920846) rotate(274.38243446974525)"><path class="outline" fill="#A5ABB6" stroke="none" d="M 32.5 0.5 L 34.763358858419956 0.5 L 34.763358858419956 -0.5 L 32.5 -0.5 Z M 80.32585885841996 0.5 L 82.58921771683991 0.5 L 82.58921771683991 3.5 L 89.58921771683991 0 L 82.58921771683991 -3.5 L 82.58921771683991 -0.5 L 80.32585885841996 -0.5 Z"/><text text-anchor="middle" pointer-events="none" font-size="8px" fill="#000000" x="57.544608858419956" y="3" font-family="sans-serif">ACTED_IN</text></g><g class="relationship" transform="translate(134.88015732742122 407.9437814391499) rotate(232.86487418880478)"><path class="outline" fill="#A5ABB6" stroke="none" d="M 32.5 0.5 L 51.05392317069568 0.5 L 51.05392317069568 -0.5 L 32.5 -0.5 Z M 96.61642317069568 0.5 L 115.17034634139137 0.5 L 115.17034634139137 3.5 L 122.17034634139137 0 L 115.17034634139137 -3.5 L 115.17034634139137 -0.5 L 96.61642317069568 -0.5 Z"/><text text-anchor="middle" pointer-events="none" font-size="8px" fill="#000000" x="73.83517317069568" y="3" transform="rotate(180 73.83517317069568 0)" font-family="sans-serif">ACTED_IN</text></g><g class="relationship" transform="translate(418.98891325037386 83.86366867742166) rotate(512.7411255741689)"><path class="outline" fill="#A5ABB6" stroke="none" d="M 32.5 0.5 L 38.118425910426325 0.5 L 38.118425910426325 -0.5 L 32.5 -0.5 Z M 83.68092591042632 0.5 L 89.29935182085265 0.5 L 89.29935182085265 3.5 L 96.29935182085265 0 L 89.29935182085265 -3.5 L 89.29935182085265 -0.5 L 83.68092591042632 -0.5 Z"/><text text-anchor="middle" pointer-events="none" font-size="8px" fill="#000000" x="60.899675910426325" y="3" transform="rotate(180 60.899675910426325 0)" font-family="sans-serif">ACTED_IN</text></g><g class="relationship" transform="translate(60.885367168777776 396.0584697215148) rotate(260.1332898841204)"><path class="outline" fill="#A5ABB6" stroke="none" d="M 32.5 0.5 L 35.37843100853106 0.5 L 35.37843100853106 -0.5 L 32.5 -0.5 Z M 70.71436850853107 0.5 L 73.59279951706212 0.5 L 73.59279951706212 3.5 L 80.59279951706212 0 L 73.59279951706212 -3.5 L 73.59279951706212 -0.5 L 70.71436850853107 -0.5 Z"/><text text-anchor="middle" pointer-events="none" font-size="8px" fill="#000000" x="53.04639975853106" y="3" transform="rotate(180 53.04639975853106 0)" font-family="sans-serif">ACTE…</text></g><g class="relationship" transform="translate(60.885367168777776 396.0584697215148) rotate(298.6687994289572)"><path class="outline" fill="#A5ABB6" stroke="none" d="M 32.5 0.5 L 32.795282082812456 0.5 L 32.795282082812456 -0.5 L 32.5 -0.5 Z M 73.90856333281246 0.5 L 74.20384541562491 0.5 L 74.20384541562491 3.5 L 81.20384541562491 0 L 74.20384541562491 -3.5 L 74.20384541562491 -0.5 L 73.90856333281246 -0.5 Z"/><text text-anchor="middle" pointer-events="none" font-size="8px" fill="#000000" x="53.351922707812456" y="3" font-family="sans-serif">ACTED…</text></g><g class="relationship" transform="translate(60.885367168777776 396.0584697215148) rotate(326.38262967379336)"><path class="outline" fill="#A5ABB6" stroke="none" d="M 32.5 0.5 L 50.6007315128125 0.5 L 50.6007315128125 -0.5 L 32.5 -0.5 Z M 96.1632315128125 0.5 L 114.263963025625 0.5 L 114.263963025625 3.5 L 121.263963025625 0 L 114.263963025625 -3.5 L 114.263963025625 -0.5 L 96.1632315128125 -0.5 Z"/><text text-anchor="middle" pointer-events="none" font-size="8px" fill="#000000" x="73.3819815128125" y="3" font-family="sans-serif">ACTED_IN</text></g><g class="relationship" transform="translate(140.57371210492485 -269.8086755520088) rotate(400.20171237782216)"><path class="outline" fill="#A5ABB6" stroke="none" d="M 31.26317983184346,-8.894581878976458 L 31.52199887694598,-7.92865605268739 A 101.06607615743931 101.06607615743931 0 0 1 33.14819243805216,-8.349939718885707 L 32.905463792645904,-9.320033943535691 A 102.06607615743931 102.06607615743931 0 0 0 31.26317983184346,-8.894581878976458 Z M 79.60475148308566,-9.98972910135349 L 79.38994037141921,-9.013073488404572 A 101.06607615743931 101.06607615743931 0 0 1 81.0275456338381,-8.638594610379796 L 80.33450235993496,-5.7197436343110235 L 87.95370512364909,-7.507968800617281 L 81.95160333237561,-12.530395911804828 L 81.25856005847247,-9.611544935736054 A 102.06607615743931 102.06607615743931 0 0 0 79.60475148308566,-9.98972910135349"/><text text-anchor="middle" pointer-events="none" font-size="8px" fill="#000000" x="56.22345688122646" y="-8.861957044293106" font-family="sans-serif">DIRECTED</text></g></g><g class="layer nodes"><g class="node" transform="translate(93.44283699055497,179.05120105614185)"><circle class="outline" cx="0" cy="0" r="32.5" fill="#68BDF6" stroke="#5CA8DB" stroke-width="2px"/><text text-anchor="middle" pointer-events="none" y="0" font-size="10px" fill="#FFFFFF" font-family="sans-serif"> Keanu</text><text text-anchor="middle" pointer-events="none" y="10" font-size="10px" fill="#FFFFFF" font-family="sans-serif"> Reeves</text></g><g class="node" transform="translate(134.88015732742122,407.9437814391499)"><circle class="outline" cx="0" cy="0" r="32.5" fill="#68BDF6" stroke="#5CA8DB" stroke-width="2px"/><text text-anchor="middle" pointer-events="none" y="0" font-size="10px" fill="#FFFFFF" font-family="sans-serif"> Carrie-Anne</text><text text-anchor="middle" pointer-events="none" y="10" font-size="10px" fill="#FFFFFF" font-family="sans-serif"> Moss</text></g><g class="node" transform="translate(115.43430648979444,296.2938583542952)"><circle class="outline" cx="0" cy="0" r="32.5" fill="#6DCE9E" stroke="#60B58B" stroke-width="2px"/><text text-anchor="middle" pointer-events="none" y="0" font-size="10px" fill="#FFFFFF" font-family="sans-serif"> The Matrix</text><text text-anchor="middle" pointer-events="none" y="10" font-size="10px" fill="#FFFFFF" font-family="sans-serif"> Reloaded</text></g><g class="node" transform="translate(188.93283495170874,310.92796802133086)"><circle class="outline" cx="0" cy="0" r="32.5" fill="#6DCE9E" stroke="#60B58B" stroke-width="2px"/><text text-anchor="middle" pointer-events="none" y="0" font-size="10px" fill="#FFFFFF" font-family="sans-serif"> The Matrix</text><text text-anchor="middle" pointer-events="none" y="10" font-size="10px" fill="#FFFFFF" font-family="sans-serif"> Revolutions</text></g><g class="node" transform="translate(41.50615768919082,284.6384197190458)"><circle class="outline" cx="0" cy="0" r="32.5" fill="#6DCE9E" stroke="#60B58B" stroke-width="2px"/><text text-anchor="middle" pointer-events="none" y="5" font-size="10px" fill="#FFFFFF" font-family="sans-serif"> The Matrix</text></g><g class="node" transform="translate(182.79865174663686,203.38576578216342)"><circle class="outline" cx="0" cy="0" r="32.5" fill="#68BDF6" stroke="#5CA8DB" stroke-width="2px"/><text text-anchor="middle" pointer-events="none" y="0" font-size="10px" fill="#FFFFFF" font-family="sans-serif"> Hugo</text><text text-anchor="middle" pointer-events="none" y="10" font-size="10px" fill="#FFFFFF" font-family="sans-serif"> Weaving</text></g><g class="node" transform="translate(304.4932173836656,142.8552668713172)"><circle class="outline" cx="0" cy="0" r="32.5" fill="#6DCE9E" stroke="#60B58B" stroke-width="2px"/><text text-anchor="middle" pointer-events="none" y="0" font-size="10px" fill="#FFFFFF" font-family="sans-serif"> V for</text><text text-anchor="middle" pointer-events="none" y="10" font-size="10px" fill="#FFFFFF" font-family="sans-serif"> Vendetta</text></g><g class="node" transform="translate(407.2481272949391,215.0677194670386)"><circle class="outline" cx="0" cy="0" r="32.5" fill="#68BDF6" stroke="#5CA8DB" stroke-width="2px"/><text text-anchor="middle" pointer-events="none" y="5" font-size="10px" fill="#FFFFFF" font-family="sans-serif"> John Hurt</text></g><g class="node" transform="translate(231.902002904364,-192.6256072003157)"><circle class="outline" cx="0" cy="0" r="32.5" fill="#6DCE9E" stroke="#60B58B" stroke-width="2px"/><text text-anchor="middle" pointer-events="none" y="5" font-size="10px" fill="#FFFFFF" font-family="sans-serif"> Unforgiven</text></g><g class="node" transform="translate(140.57371210492485,-269.8086755520088)"><circle class="outline" cx="0" cy="0" r="32.5" fill="#68BDF6" stroke="#5CA8DB" stroke-width="2px"/><text text-anchor="middle" pointer-events="none" y="0" font-size="10px" fill="#FFFFFF" font-family="sans-serif"> Clint</text><text text-anchor="middle" pointer-events="none" y="10" font-size="10px" fill="#FFFFFF" font-family="sans-serif"> Eastwood</text></g><g class="node" transform="translate(115.99055917419722,36.87314794767306)"><circle class="outline" cx="0" cy="0" r="32.5" fill="#6DCE9E" stroke="#60B58B" stroke-width="2px"/><text text-anchor="middle" pointer-events="none" y="0" font-size="10px" fill="#FFFFFF" font-family="sans-serif"> The</text><text text-anchor="middle" pointer-events="none" y="10" font-size="10px" fill="#FFFFFF" font-family="sans-serif"> Replaceme…</text></g><g class="node" transform="translate(149.6640799771609,-96.32046029620861)"><circle class="outline" cx="0" cy="0" r="32.5" fill="#68BDF6" stroke="#5CA8DB" stroke-width="2px"/><text text-anchor="middle" pointer-events="none" y="0" font-size="10px" fill="#FFFFFF" font-family="sans-serif"> Gene</text><text text-anchor="middle" pointer-events="none" y="10" font-size="10px" fill="#FFFFFF" font-family="sans-serif"> Hackman</text></g><g class="node" transform="translate(333.6315916589917,16.489168522106407)"><circle class="outline" cx="0" cy="0" r="32.5" fill="#68BDF6" stroke="#5CA8DB" stroke-width="2px"/><text text-anchor="middle" pointer-events="none" y="5" font-size="10px" fill="#FFFFFF" font-family="sans-serif"> Stephen Rea</text></g><g class="node" transform="translate(-130.78424715289177,29.19750875738998)"><circle class="outline" cx="0" cy="0" r="32.5" fill="#68BDF6" stroke="#5CA8DB" stroke-width="2px"/><text text-anchor="middle" pointer-events="none" y="0" font-size="10px" fill="#FFFFFF" font-family="sans-serif"> Jack</text><text text-anchor="middle" pointer-events="none" y="10" font-size="10px" fill="#FFFFFF" font-family="sans-serif"> Nicholson</text></g><g class="node" transform="translate(-106.39504897726728,-93.27371699020674)"><circle class="outline" cx="0" cy="0" r="32.5" fill="#6DCE9E" stroke="#60B58B" stroke-width="2px"/><text text-anchor="middle" pointer-events="none" y="-10" font-size="10px" fill="#FFFFFF" font-family="sans-serif"> One Flew</text><text text-anchor="middle" pointer-events="none" y="0" font-size="10px" fill="#FFFFFF" font-family="sans-serif"> Over the</text><text text-anchor="middle" pointer-events="none" y="10" font-size="10px" fill="#FFFFFF" font-family="sans-serif"> Cuckoo's</text><text text-anchor="middle" pointer-events="none" y="20" font-size="10px" fill="#FFFFFF" font-family="sans-serif"> Nest</text></g><g class="node" transform="translate(-23.713170564695872,105.99182558343308)"><circle class="outline" cx="0" cy="0" r="32.5" fill="#6DCE9E" stroke="#60B58B" stroke-width="2px"/><text text-anchor="middle" pointer-events="none" y="0" font-size="10px" fill="#FFFFFF" font-family="sans-serif"> Something's</text><text text-anchor="middle" pointer-events="none" y="10" font-size="10px" fill="#FFFFFF" font-family="sans-serif"> Gotta Give</text></g><g class="node" transform="translate(-206.04328948394735,-149.89870727412938)"><circle class="outline" cx="0" cy="0" r="32.5" fill="#68BDF6" stroke="#5CA8DB" stroke-width="2px"/><text text-anchor="middle" pointer-events="none" y="0" font-size="10px" fill="#FFFFFF" font-family="sans-serif"> Danny</text><text text-anchor="middle" pointer-events="none" y="10" font-size="10px" fill="#FFFFFF" font-family="sans-serif"> DeVito</text></g><g class="node" transform="translate(-237.25351753730595,226.19300930920846)"><circle class="outline" cx="0" cy="0" r="32.5" fill="#68BDF6" stroke="#5CA8DB" stroke-width="2px"/><text text-anchor="middle" pointer-events="none" y="5" font-size="10px" fill="#FFFFFF" font-family="sans-serif"> Noah Wyle</text></g><g class="node" transform="translate(-227.92427119965464,104.46075292052011)"><circle class="outline" cx="0" cy="0" r="32.5" fill="#6DCE9E" stroke="#60B58B" stroke-width="2px"/><text text-anchor="middle" pointer-events="none" y="0" font-size="10px" fill="#FFFFFF" font-family="sans-serif"> A Few Good</text><text text-anchor="middle" pointer-events="none" y="10" font-size="10px" fill="#FFFFFF" font-family="sans-serif"> Men</text></g><g class="node" transform="translate(418.98891325037386,83.86366867742166)"><circle class="outline" cx="0" cy="0" r="32.5" fill="#68BDF6" stroke="#5CA8DB" stroke-width="2px"/><text text-anchor="middle" pointer-events="none" y="0" font-size="10px" fill="#FFFFFF" font-family="sans-serif"> Natalie</text><text text-anchor="middle" pointer-events="none" y="10" font-size="10px" fill="#FFFFFF" font-family="sans-serif"> Portman</text></g><g class="node" transform="translate(60.885367168777776,396.0584697215148)"><circle class="outline" cx="0" cy="0" r="32.5" fill="#68BDF6" stroke="#5CA8DB" stroke-width="2px"/><text text-anchor="middle" pointer-events="none" y="0" font-size="10px" fill="#FFFFFF" font-family="sans-serif"> Laurence</text><text text-anchor="middle" pointer-events="none" y="10" font-size="10px" fill="#FFFFFF" font-family="sans-serif"> Fishburne</text></g></g></svg>