<svg xmlns="http://www.w3.org/2000/svg" width="928.8489990234375" height="925.0308837890625" viewBox="-363.0081787109375 -393.5792236328125 928.8489990234375 925.0308837890625"><title>Neo4j Graph Visualization</title><desc>Created using Neo4j (http://www.neo4j.com/)</desc><g class="layer relationships"><g class="relationship" transform="translate(432.2265936435416 198.7320085106356) rotate(302.8095341005788)"><path class="outline" fill="#A5ABB6" stroke="none" d="M 32.5 0.5 L 61.47776077617047 0.5 L 61.47776077617047 -0.5 L 32.5 -0.5 Z M 107.04026077617047 0.5 L 136.01802155234094 0.5 L 136.01802155234094 3.5 L 143.01802155234094 0 L 136.01802155234094 -3.5 L 136.01802155234094 -0.5 L 107.04026077617047 -0.5 Z"/><text text-anchor="middle" pointer-events="none" font-size="8px" fill="#000000" x="84.25901077617047" y="3" font-family="sans-serif">ACTED_IN</text></g><g class="relationship" transform="translate(528.159815607054 159.81725050700243) rotate(269.5625929951182)"><path class="outline" fill="#A5ABB6" stroke="none" d="M 32.5 0.5 L 33.13561657666123 0.5 L 33.13561657666123 -0.5 L 32.5 -0.5 Z M 68.47155407666122 0.5 L 69.10717065332246 0.5 L 69.10717065332246 3.5 L 76.10717065332246 0 L 69.10717065332246 -3.5 L 69.10717065332246 -0.5 L 68.47155407666122 -0.5 Z"/><text text-anchor="middle" pointer-events="none" font-size="8px" fill="#000000" x="50.80358532666123" y="3" transform="rotate(180 50.80358532666123 0)" font-family="sans-serif">ACTE…</text></g><g class="relationship" transform="translate(403.13928773907674 -50.89588951718348) rotate(399.4267558717389)"><path class="outline" fill="#A5ABB6" stroke="none" d="M 32.5 0.5 L 54.108085553287665 0.5 L 54.108085553287665 -0.5 L 32.5 -0.5 Z M 99.67058555328767 0.5 L 121.27867110657533 0.5 L 121.27867110657533 3.5 L 128.27867110657533 0 L 121.27867110657533 -3.5 L 121.27867110657533 -0.5 L 99.67058555328767 -0.5 Z"/><text text-anchor="middle" pointer-events="none" font-size="8px" fill="#000000" x="76.88933555328767" y="3" font-family="sans-serif">ACTED_IN</text></g><g class="relationship" transform="translate(403.13928773907674 -50.89588951718348) rotate(213.04084590623955)"><path class="outline" fill="#A5ABB6" stroke="none" d="M 32.5 0.5 L 71.1364886632063 0.5 L 71.1364886632063 -0.5 L 32.5 -0.5 Z M 116.6989886632063 0.5 L 155.3354773264126 0.5 L 155.3354773264126 3.5 L 162.3354773264126 0 L 155.3354773264126 -3.5 L 155.3354773264126 -0.5 L 116.6989886632063 -0.5 Z"/><text text-anchor="middle" pointer-events="none" font-size="8px" fill="#000000" x="93.9177386632063" y="3" transform="rotate(180 93.9177386632063 0)" font-family="sans-serif">ACTED_IN</text></g><g class="relationship" transform="translate(403.13928773907674 -50.89588951718348) rotate(262.53877900849767)"><path class="outline" fill="#A5ABB6" stroke="none" d="M 32.5 0.5 L 41.25365206445606 0.5 L 41.25365206445606 -0.5 L 32.5 -0.5 Z M 86.81615206445606 0.5 L 95.56980412891212 0.5 L 95.56980412891212 3.5 L 102.56980412891212 0 L 95.56980412891212 -3.5 L 95.56980412891212 -0.5 L 86.81615206445606 -0.5 Z"/><text text-anchor="middle" pointer-events="none" font-size="8px" fill="#000000" x="64.03490206445606" y="3" transform="rotate(180 64.03490206445606 0)" font-family="sans-serif">ACTED_IN</text></g><g class="relationship" transform="translate(403.13928773907674 -50.89588951718348) rotate(339.0775800427605)"><path class="outline" fill="#A5ABB6" stroke="none" d="M 32.5 0.5 L 41.273722572157936 0.5 L 41.273722572157936 -0.5 L 32.5 -0.5 Z M 86.83622257215794 0.5 L 95.60994514431587 0.5 L 95.60994514431587 3.5 L 102.60994514431587 0 L 95.60994514431587 -3.5 L 95.60994514431587 -0.5 L 86.83622257215794 -0.5 Z"/><text text-anchor="middle" pointer-events="none" font-size="8px" fill="#000000" x="64.05497257215794" y="3" font-family="sans-serif">ACTED_IN</text></g><g class="relationship" transform="translate(403.13928773907674 -50.89588951718348) rotate(298.98835330471127)"><path class="outline" fill="#A5ABB6" stroke="none" d="M 32.5 0.5 L 42.3462084725556 0.5 L 42.3462084725556 -0.5 L 32.5 -0.5 Z M 87.9087084725556 0.5 L 97.7549169451112 0.5 L 97.7549169451112 3.5 L 104.7549169451112 0 L 97.7549169451112 -3.5 L 97.7549169451112 -0.5 L 87.9087084725556 -0.5 Z"/><text text-anchor="middle" pointer-events="none" font-size="8px" fill="#000000" x="65.1274584725556" y="3" font-family="sans-serif">ACTED_IN</text></g><g class="relationship" transform="translate(403.13928773907674 -50.89588951718348) rotate(457.8433740437762)"><path class="outline" fill="#A5ABB6" stroke="none" d="M 32.5 0.5 L 45.85418027639267 0.5 L 45.85418027639267 -0.5 L 32.5 -0.5 Z M 91.41668027639267 0.5 L 104.77086055278534 0.5 L 104.77086055278534 3.5 L 111.77086055278534 0 L 104.77086055278534 -3.5 L 104.77086055278534 -0.5 L 91.41668027639267 -0.5 Z"/><text text-anchor="middle" pointer-events="none" font-size="8px" fill="#000000" x="68.63543027639267" y="3" transform="rotate(180 68.63543027639267 0)" font-family="sans-serif">ACTED_IN</text></g><g class="relationship" transform="translate(403.13928773907674 -50.89588951718348) rotate(426.7031635933628)"><path class="outline" fill="#A5ABB6" stroke="none" d="M 32.5 0.5 L 38.827708726571586 0.5 L 38.827708726571586 -0.5 L 32.5 -0.5 Z M 84.39020872657159 0.5 L 90.71791745314317 0.5 L 90.71791745314317 3.5 L 97.71791745314317 0 L 90.71791745314317 -3.5 L 90.71791745314317 -0.5 L 84.39020872657159 -0.5 Z"/><text text-anchor="middle" pointer-events="none" font-size="8px" fill="#000000" x="61.608958726571586" y="3" font-family="sans-serif">ACTED_IN</text></g><g class="relationship" transform="translate(528.159815607054 159.81725050700243) rotate(205.10179582009442)"><path class="outline" fill="#A5ABB6" stroke="none" d="M 32.5 0.5 L 53.61917003817803 0.5 L 53.61917003817803 -0.5 L 32.5 -0.5 Z M 99.18167003817803 0.5 L 120.30084007635605 0.5 L 120.30084007635605 3.5 L 127.30084007635605 0 L 120.30084007635605 -3.5 L 120.30084007635605 -0.5 L 99.18167003817803 -0.5 Z"/><text text-anchor="middle" pointer-events="none" font-size="8px" fill="#000000" x="76.40042003817803" y="3" transform="rotate(180 76.40042003817803 0)" font-family="sans-serif">ACTED_IN</text></g><g class="relationship" transform="translate(528.159815607054 159.81725050700243) rotate(231.09931209587643)"><path class="outline" fill="#A5ABB6" stroke="none" d="M 32.5 0.5 L 34.48097967125666 0.5 L 34.48097967125666 -0.5 L 32.5 -0.5 Z M 75.59426092125666 0.5 L 77.57524059251332 0.5 L 77.57524059251332 3.5 L 84.57524059251332 0 L 77.57524059251332 -3.5 L 77.57524059251332 -0.5 L 75.59426092125666 -0.5 Z"/><text text-anchor="middle" pointer-events="none" font-size="8px" fill="#000000" x="55.03762029625666" y="3" transform="rotate(180 55.03762029625666 0)" font-family="sans-serif">ACTED…</text></g><g class="relationship" transform="translate(432.2265936435416 198.7320085106356) rotate(416.24547235386416)"><path class="outline" fill="#A5ABB6" stroke="none" d="M 32.5 0.5 L 41.518767128176236 0.5 L 41.518767128176236 -0.5 L 32.5 -0.5 Z M 87.08126712817624 0.5 L 96.10003425635247 0.5 L 96.10003425635247 3.5 L 103.10003425635247 0 L 96.10003425635247 -3.5 L 96.10003425635247 -0.5 L 87.08126712817624 -0.5 Z"/><text text-anchor="middle" pointer-events="none" font-size="8px" fill="#000000" x="64.30001712817624" y="3" font-family="sans-serif">ACTED_IN</text></g><g class="relationship" transform="translate(432.2265936435416 198.7320085106356) rotate(514.7927941087994)"><path class="outline" fill="#A5ABB6" stroke="none" d="M 32.5 0.5 L 69.23382311258176 0.5 L 69.23382311258176 -0.5 L 32.5 -0.5 Z M 114.79632311258176 0.5 L 151.53014622516352 0.5 L 151.53014622516352 3.5 L 158.53014622516352 0 L 151.53014622516352 -3.5 L 151.53014622516352 -0.5 L 114.79632311258176 -0.5 Z"/><text text-anchor="middle" pointer-events="none" font-size="8px" fill="#000000" x="92.01507311258176" y="3" transform="rotate(180 92.01507311258176 0)" font-family="sans-serif">ACTED_IN</text></g><g class="relationship" transform="translate(432.2265936435416 198.7320085106356) rotate(245.43500749141822)"><path class="outline" fill="#A5ABB6" stroke="none" d="M 32.5 0.5 L 34.6062827082824 0.5 L 34.6062827082824 -0.5 L 32.5 -0.5 Z M 75.71956395828241 0.5 L 77.8258466665648 0.5 L 77.8258466665648 3.5 L 84.8258466665648 0 L 77.8258466665648 -3.5 L 77.8258466665648 -0.5 L 75.71956395828241 -0.5 Z"/><text text-anchor="middle" pointer-events="none" font-size="8px" fill="#000000" x="55.1629233332824" y="3" transform="rotate(180 55.1629233332824 0)" font-family="sans-serif">ACTED…</text></g><g class="relationship" transform="translate(432.2265936435416 198.7320085106356) rotate(279.78017091568734)"><path class="outline" fill="#A5ABB6" stroke="none" d="M 32.5 0.5 L 39.69098076726118 0.5 L 39.69098076726118 -0.5 L 32.5 -0.5 Z M 85.25348076726118 0.5 L 92.44446153452236 0.5 L 92.44446153452236 3.5 L 99.44446153452236 0 L 92.44446153452236 -3.5 L 92.44446153452236 -0.5 L 85.25348076726118 -0.5 Z"/><text text-anchor="middle" pointer-events="none" font-size="8px" fill="#000000" x="62.47223076726118" y="3" font-family="sans-serif">ACTED_IN</text></g><g class="relationship" transform="translate(-208.18559214086966 -204.93054548943343) rotate(371.25991720300374)"><path class="outline" fill="#A5ABB6" stroke="none" d="M 32.5 0.5 L 33.87741386675906 0.5 L 33.87741386675906 -0.5 L 32.5 -0.5 Z M 74.99069511675907 0.5 L 76.36810898351813 0.5 L 76.36810898351813 3.5 L 83.36810898351813 0 L 76.36810898351813 -3.5 L 76.36810898351813 -0.5 L 74.99069511675907 -0.5 Z"/><text text-anchor="middle" pointer-events="none" font-size="8px" fill="#000000" x="54.43405449175906" y="3" font-family="sans-serif">ACTED…</text></g><g class="relationship" transform="translate(7.852565372905849 -41.784840106483685) rotate(233.91851799600238)"><path class="outline" fill="#A5ABB6" stroke="none" d="M 32.5 0.5 L 60.65559704336833 0.5 L 60.65559704336833 -0.5 L 32.5 -0.5 Z M 106.21809704336833 0.5 L 134.37369408673666 0.5 L 134.37369408673666 3.5 L 141.37369408673666 0 L 134.37369408673666 -3.5 L 134.37369408673666 -0.5 L 106.21809704336833 -0.5 Z"/><text text-anchor="middle" pointer-events="none" font-size="8px" fill="#000000" x="83.43684704336833" y="3" transform="rotate(180 83.43684704336833 0)" font-family="sans-serif">ACTED_IN</text></g><g class="relationship" transform="translate(-236.71142811128496 -48.430750893710226) rotate(316.7198320624333)"><path class="outline" fill="#A5ABB6" stroke="none" d="M 32.5 0.5 L 71.35727004920452 0.5 L 71.35727004920452 -0.5 L 32.5 -0.5 Z M 116.91977004920452 0.5 L 155.77704009840903 0.5 L 155.77704009840903 3.5 L 162.77704009840903 0 L 155.77704009840903 -3.5 L 155.77704009840903 -0.5 L 116.91977004920452 -0.5 Z"/><text text-anchor="middle" pointer-events="none" font-size="8px" fill="#000000" x="94.13852004920452" y="3" font-family="sans-serif">ACTED_IN</text></g><g class="relationship" transform="translate(46.05227277544756 -223.33641180920944) rotate(523.7315570969465)"><path class="outline" fill="#A5ABB6" stroke="none" d="M 32.5 0.5 L 46.951011195632816 0.5 L 46.951011195632816 -0.5 L 32.5 -0.5 Z M 92.51351119563282 0.5 L 106.96452239126563 0.5 L 106.96452239126563 3.5 L 113.96452239126563 0 L 106.96452239126563 -3.5 L 106.96452239126563 -0.5 L 92.51351119563282 -0.5 Z"/><text text-anchor="middle" pointer-events="none" font-size="8px" fill="#000000" x="69.73226119563282" y="3" transform="rotate(180 69.73226119563282 0)" font-family="sans-serif">ACTED_IN</text></g><g class="relationship" transform="translate(-236.71142811128496 -48.430750893710226) rotate(225.68506348335535)"><path class="outline" fill="#A5ABB6" stroke="none" d="M 32.5 0.5 L 37.9876655867305 0.5 L 37.9876655867305 -0.5 L 32.5 -0.5 Z M 83.5501655867305 0.5 L 89.037831173461 0.5 L 89.037831173461 3.5 L 96.037831173461 0 L 89.037831173461 -3.5 L 89.037831173461 -0.5 L 83.5501655867305 -0.5 Z"/><text text-anchor="middle" pointer-events="none" font-size="8px" fill="#000000" x="60.7689155867305" y="3" transform="rotate(180 60.7689155867305 0)" font-family="sans-serif">ACTED_IN</text></g><g class="relationship" transform="translate(-236.71142811128496 -48.430750893710226) rotate(460.5045502159278)"><path class="outline" fill="#A5ABB6" stroke="none" d="M 32.5 0.5 L 78.70656722788794 0.5 L 78.70656722788794 -0.5 L 32.5 -0.5 Z M 124.26906722788794 0.5 L 170.4756344557759 0.5 L 170.4756344557759 3.5 L 177.4756344557759 0 L 170.4756344557759 -3.5 L 170.4756344557759 -0.5 L 124.26906722788794 -0.5 Z"/><text text-anchor="middle" pointer-events="none" font-size="8px" fill="#000000" x="101.48781722788794" y="3" transform="rotate(180 101.48781722788794 0)" font-family="sans-serif">ACTED_IN</text></g><g class="relationship" transform="translate(46.05227277544756 -223.33641180920944) rotate(305.0477282968186)"><path class="outline" fill="#A5ABB6" stroke="none" d="M 32.5 0.5 L 42.63723456484885 0.5 L 42.63723456484885 -0.5 L 32.5 -0.5 Z M 88.19973456484885 0.5 L 98.3369691296977 0.5 L 98.3369691296977 3.5 L 105.3369691296977 0 L 98.3369691296977 -3.5 L 98.3369691296977 -0.5 L 88.19973456484885 -0.5 Z"/><text text-anchor="middle" pointer-events="none" font-size="8px" fill="#000000" x="65.41848456484885" y="3" font-family="sans-serif">ACTED_IN</text></g><g class="relationship" transform="translate(46.05227277544756 -223.33641180920944) rotate(378.8656386501433)"><path class="outline" fill="#A5ABB6" stroke="none" d="M 32.5 0.5 L 76.0986153650954 0.5 L 76.0986153650954 -0.5 L 32.5 -0.5 Z M 121.6611153650954 0.5 L 165.2597307301908 0.5 L 165.2597307301908 3.5 L 172.2597307301908 0 L 165.2597307301908 -3.5 L 165.2597307301908 -0.5 L 121.6611153650954 -0.5 Z"/><text text-anchor="middle" pointer-events="none" font-size="8px" fill="#000000" x="98.8798653650954" y="3" font-family="sans-serif">ACTED_IN</text></g><g class="relationship" transform="translate(46.05227277544756 -223.33641180920944) rotate(259.43031665161817)"><path class="outline" fill="#A5ABB6" stroke="none" d="M 32.5 0.5 L 41.74438163767181 0.5 L 41.74438163767181 -0.5 L 32.5 -0.5 Z M 87.30688163767181 0.5 L 96.55126327534362 0.5 L 96.55126327534362 3.5 L 103.55126327534362 0 L 96.55126327534362 -3.5 L 96.55126327534362 -0.5 L 87.30688163767181 -0.5 Z"/><text text-anchor="middle" pointer-events="none" font-size="8px" fill="#000000" x="64.52563163767181" y="3" transform="rotate(180 64.52563163767181 0)" font-family="sans-serif">ACTED_IN</text></g><g class="relationship" transform="translate(46.05227277544756 -223.33641180920944) rotate(497.34725527996795)"><path class="outline" fill="#A5ABB6" stroke="none" d="M 32.5 0.5 L 57.724529206636305 0.5 L 57.724529206636305 -0.5 L 32.5 -0.5 Z M 103.2870292066363 0.5 L 128.5115584132726 0.5 L 128.5115584132726 3.5 L 135.5115584132726 0 L 128.5115584132726 -3.5 L 128.5115584132726 -0.5 L 103.2870292066363 -0.5 Z"/><text text-anchor="middle" pointer-events="none" font-size="8px" fill="#000000" x="80.5057792066363" y="3" transform="rotate(180 80.5057792066363 0)" font-family="sans-serif">ACTED_IN</text></g><g class="relationship" transform="translate(7.852565372905849 -41.784840106483685) rotate(370.1535274122243)"><path class="outline" fill="#A5ABB6" stroke="none" d="M 32.5 0.5 L 37.95422866723145 0.5 L 37.95422866723145 -0.5 L 32.5 -0.5 Z M 83.51672866723145 0.5 L 88.9709573344629 0.5 L 88.9709573344629 3.5 L 95.9709573344629 0 L 88.9709573344629 -3.5 L 88.9709573344629 -0.5 L 83.51672866723145 -0.5 Z"/><text text-anchor="middle" pointer-events="none" font-size="8px" fill="#000000" x="60.73547866723145" y="3" font-family="sans-serif">ACTED_IN</text></g><g class="relationship" transform="translate(7.852565372905849 -41.784840106483685) rotate(533.1834399159957)"><path class="outline" fill="#A5ABB6" stroke="none" d="M 32.5 0.5 L 36.485168938230366 0.5 L 36.485168938230366 -0.5 L 32.5 -0.5 Z M 82.04766893823037 0.5 L 86.03283787646073 0.5 L 86.03283787646073 3.5 L 93.03283787646073 0 L 86.03283787646073 -3.5 L 86.03283787646073 -0.5 L 82.04766893823037 -0.5 Z"/><text text-anchor="middle" pointer-events="none" font-size="8px" fill="#000000" x="59.266418938230366" y="3" transform="rotate(180 59.266418938230366 0)" font-family="sans-serif">ACTED_IN</text></g><g class="relationship" transform="translate(7.852565372905849 -41.784840106483685) rotate(437.0564059315809)"><path class="outline" fill="#A5ABB6" stroke="none" d="M 32.5 0.5 L 71.58904372170184 0.5 L 71.58904372170184 -0.5 L 32.5 -0.5 Z M 117.15154372170184 0.5 L 156.24058744340368 0.5 L 156.24058744340368 3.5 L 163.24058744340368 0 L 156.24058744340368 -3.5 L 156.24058744340368 -0.5 L 117.15154372170184 -0.5 Z"/><text text-anchor="middle" pointer-events="none" font-size="8px" fill="#000000" x="94.37029372170184" y="3" font-family="sans-serif">ACTED_IN</text></g><g class="relationship" transform="translate(7.852565372905849 -41.784840106483685) rotate(317.23965817442496)"><path class="outline" fill="#A5ABB6" stroke="none" d="M 32.5 0.5 L 38.84687185975456 0.5 L 38.84687185975456 -0.5 L 32.5 -0.5 Z M 84.40937185975456 0.5 L 90.75624371950911 0.5 L 90.75624371950911 3.5 L 97.75624371950911 0 L 90.75624371950911 -3.5 L 90.75624371950911 -0.5 L 84.40937185975456 -0.5 Z"/><text text-anchor="middle" pointer-events="none" font-size="8px" fill="#000000" x="61.62812185975456" y="3" font-family="sans-serif">ACTED_IN</text></g><g class="relationship" transform="translate(-208.18559214086966 -204.93054548943343) rotate(224.82171929199757)"><path class="outline" fill="#A5ABB6" stroke="none" d="M 32.5 0.5 L 37.02678411707276 0.5 L 37.02678411707276 -0.5 L 32.5 -0.5 Z M 82.58928411707276 0.5 L 87.11606823414552 0.5 L 87.11606823414552 3.5 L 94.11606823414552 0 L 87.11606823414552 -3.5 L 87.11606823414552 -0.5 L 82.58928411707276 -0.5 Z"/><text text-anchor="middle" pointer-events="none" font-size="8px" fill="#000000" x="59.80803411707276" y="3" transform="rotate(180 59.80803411707276 0)" font-family="sans-serif">ACTED_IN</text></g><g class="relationship" transform="translate(-208.18559214086966 -204.93054548943343) rotate(396.1414492596905)"><path class="outline" fill="#A5ABB6" stroke="none" d="M 32.5 0.5 L 54.62248037760692 0.5 L 54.62248037760692 -0.5 L 32.5 -0.5 Z M 100.18498037760692 0.5 L 122.30746075521384 0.5 L 122.30746075521384 3.5 L 129.30746075521384 0 L 122.30746075521384 -3.5 L 122.30746075521384 -0.5 L 100.18498037760692 -0.5 Z"/><text text-anchor="middle" pointer-events="none" font-size="8px" fill="#000000" x="77.40373037760692" y="3" font-family="sans-serif">ACTED_IN</text></g><g class="relationship" transform="translate(-208.18559214086966 -204.93054548943343) rotate(511.3932693067287)"><path class="outline" fill="#A5ABB6" stroke="none" d="M 32.5 0.5 L 41.10626426365228 0.5 L 41.10626426365228 -0.5 L 32.5 -0.5 Z M 86.66876426365228 0.5 L 95.27502852730456 0.5 L 95.27502852730456 3.5 L 102.27502852730456 0 L 95.27502852730456 -3.5 L 95.27502852730456 -0.5 L 86.66876426365228 -0.5 Z"/><text text-anchor="middle" pointer-events="none" font-size="8px" fill="#000000" x="63.88751426365228" y="3" transform="rotate(180 63.88751426365228 0)" font-family="sans-serif">ACTED_IN</text></g><g class="relationship" transform="translate(-221.55147504081648 327.23659167238515) rotate(252.47246817649506)"><path class="outline" fill="#A5ABB6" stroke="none" d="M 32.5 0.5 L 62.443433494106046 0.5 L 62.443433494106046 -0.5 L 32.5 -0.5 Z M 108.00593349410605 0.5 L 137.9493669882121 0.5 L 137.9493669882121 3.5 L 144.9493669882121 0 L 137.9493669882121 -3.5 L 137.9493669882121 -0.5 L 108.00593349410605 -0.5 Z"/><text text-anchor="middle" pointer-events="none" font-size="8px" fill="#000000" x="85.22468349410605" y="3" transform="rotate(180 85.22468349410605 0)" font-family="sans-serif">ACTED_IN</text></g><g class="relationship" transform="translate(-221.55147504081648 327.23659167238515) rotate(371.11136274000023)"><path class="outline" fill="#A5ABB6" stroke="none" d="M 32.5 0.5 L 45.635859666550814 0.5 L 45.635859666550814 -0.5 L 32.5 -0.5 Z M 91.19835966655081 0.5 L 104.33421933310163 0.5 L 104.33421933310163 3.5 L 111.33421933310163 0 L 104.33421933310163 -3.5 L 104.33421933310163 -0.5 L 91.19835966655081 -0.5 Z"/><text text-anchor="middle" pointer-events="none" font-size="8px" fill="#000000" x="68.41710966655081" y="3" font-family="sans-serif">ACTED_IN</text></g><g class="relationship" transform="translate(-221.55147504081648 327.23659167238515) rotate(495.6314635877735)"><path class="outline" fill="#A5ABB6" stroke="none" d="M 32.5 0.5 L 38.10611244742073 0.5 L 38.10611244742073 -0.5 L 32.5 -0.5 Z M 83.66861244742073 0.5 L 89.27472489484146 0.5 L 89.27472489484146 3.5 L 96.27472489484146 0 L 89.27472489484146 -3.5 L 89.27472489484146 -0.5 L 83.66861244742073 -0.5 Z"/><text text-anchor="middle" pointer-events="none" font-size="8px" fill="#000000" x="60.88736244742073" y="3" transform="rotate(180 60.88736244742073 0)" font-family="sans-serif">ACTED_IN</text></g><g class="relationship" transform="translate(-221.55147504081648 327.23659167238515) rotate(340.65751629697456)"><path class="outline" fill="#A5ABB6" stroke="none" d="M 32.5 0.5 L 44.23027897032972 0.5 L 44.23027897032972 -0.5 L 32.5 -0.5 Z M 89.79277897032972 0.5 L 101.52305794065944 0.5 L 101.52305794065944 3.5 L 108.52305794065944 0 L 101.52305794065944 -3.5 L 101.52305794065944 -0.5 L 89.79277897032972 -0.5 Z"/><text text-anchor="middle" pointer-events="none" font-size="8px" fill="#000000" x="67.01152897032972" y="3" font-family="sans-serif">ACTED_IN</text></g><g class="relationship" transform="translate(-221.55147504081648 327.23659167238515) rotate(398.92385851731217)"><path class="outline" fill="#A5ABB6" stroke="none" d="M 32.5 0.5 L 53.88942327257476 0.5 L 53.88942327257476 -0.5 L 32.5 -0.5 Z M 99.45192327257476 0.5 L 120.84134654514952 0.5 L 120.84134654514952 3.5 L 127.84134654514952 0 L 120.84134654514952 -3.5 L 120.84134654514952 -0.5 L 99.45192327257476 -0.5 Z"/><text text-anchor="middle" pointer-events="none" font-size="8px" fill="#000000" x="76.67067327257476" y="3" font-family="sans-serif">ACTED_IN</text></g><g class="relationship" transform="translate(-97.33996421016042 59.95324868795667) rotate(276.67265750013394)"><path class="outline" fill="#A5ABB6" stroke="none" d="M 32.5 0.5 L 59.02301930126525 0.5 L 59.02301930126525 -0.5 L 32.5 -0.5 Z M 104.58551930126525 0.5 L 131.1085386025305 0.5 L 131.1085386025305 3.5 L 138.1085386025305 0 L 131.1085386025305 -3.5 L 131.1085386025305 -0.5 L 104.58551930126525 -0.5 Z"/><text text-anchor="middle" pointer-events="none" font-size="8px" fill="#000000" x="81.80426930126525" y="3" font-family="sans-serif">ACTED_IN</text></g><g class="relationship" transform="translate(-97.33996421016042 59.95324868795667) rotate(422.1643687820883)"><path class="outline" fill="#A5ABB6" stroke="none" d="M 32.5 0.5 L 56.52072255653695 0.5 L 56.52072255653695 -0.5 L 32.5 -0.5 Z M 102.08322255653695 0.5 L 126.1039451130739 0.5 L 126.1039451130739 3.5 L 133.1039451130739 0 L 126.1039451130739 -3.5 L 126.1039451130739 -0.5 L 102.08322255653695 -0.5 Z"/><text text-anchor="middle" pointer-events="none" font-size="8px" fill="#000000" x="79.30197255653695" y="3" font-family="sans-serif">ACTED_IN</text></g><g class="relationship" transform="translate(-97.33996421016042 59.95324868795667) rotate(532.3162858357464)"><path class="outline" fill="#A5ABB6" stroke="none" d="M 32.5 0.5 L 42.966080600822366 0.5 L 42.966080600822366 -0.5 L 32.5 -0.5 Z M 88.52858060082237 0.5 L 98.99466120164473 0.5 L 98.99466120164473 3.5 L 105.99466120164473 0 L 98.99466120164473 -3.5 L 98.99466120164473 -0.5 L 88.52858060082237 -0.5 Z"/><text text-anchor="middle" pointer-events="none" font-size="8px" fill="#000000" x="65.74733060082237" y="3" transform="rotate(180 65.74733060082237 0)" font-family="sans-serif">ACTED_IN</text></g><g class="relationship" transform="translate(60.82619238072758 335.54217801931884) rotate(509.6132855297215)"><path class="outline" fill="#A5ABB6" stroke="none" d="M 32.5 0.5 L 65.08751287346796 0.5 L 65.08751287346796 -0.5 L 32.5 -0.5 Z M 110.65001287346796 0.5 L 143.23752574693592 0.5 L 143.23752574693592 3.5 L 150.23752574693592 0 L 143.23752574693592 -3.5 L 143.23752574693592 -0.5 L 110.65001287346796 -0.5 Z"/><text text-anchor="middle" pointer-events="none" font-size="8px" fill="#000000" x="87.86876287346796" y="3" transform="rotate(180 87.86876287346796 0)" font-family="sans-serif">ACTED_IN</text></g><g class="relationship" transform="translate(60.82619238072758 335.54217801931884) rotate(396.0771436168171)"><path class="outline" fill="#A5ABB6" stroke="none" d="M 32.5 0.5 L 55.325993966901024 0.5 L 55.325993966901024 -0.5 L 32.5 -0.5 Z M 100.88849396690102 0.5 L 123.71448793380205 0.5 L 123.71448793380205 3.5 L 130.71448793380205 0 L 123.71448793380205 -3.5 L 123.71448793380205 -0.5 L 100.88849396690102 -0.5 Z"/><text text-anchor="middle" pointer-events="none" font-size="8px" fill="#000000" x="78.10724396690102" y="3" font-family="sans-serif">ACTED_IN</text></g><g class="relationship" transform="translate(60.82619238072758 335.54217801931884) rotate(369.1018326729454)"><path class="outline" fill="#A5ABB6" stroke="none" d="M 32.5 0.5 L 40.57395192638215 0.5 L 40.57395192638215 -0.5 L 32.5 -0.5 Z M 86.13645192638215 0.5 L 94.2104038527643 0.5 L 94.2104038527643 3.5 L 101.2104038527643 0 L 94.2104038527643 -3.5 L 94.2104038527643 -0.5 L 86.13645192638215 -0.5 Z"/><text text-anchor="middle" pointer-events="none" font-size="8px" fill="#000000" x="63.35520192638215" y="3" font-family="sans-serif">ACTED_IN</text></g><g class="relationship" transform="translate(60.82619238072758 335.54217801931884) rotate(479.23286031343343)"><path class="outline" fill="#A5ABB6" stroke="none" d="M 32.5 0.5 L 43.33564686283455 0.5 L 43.33564686283455 -0.5 L 32.5 -0.5 Z M 88.89814686283455 0.5 L 99.7337937256691 0.5 L 99.7337937256691 3.5 L 106.7337937256691 0 L 99.7337937256691 -3.5 L 99.7337937256691 -0.5 L 88.89814686283455 -0.5 Z"/><text text-anchor="middle" pointer-events="none" font-size="8px" fill="#000000" x="66.11689686283455" y="3" transform="rotate(180 66.11689686283455 0)" font-family="sans-serif">ACTED_IN</text></g><g class="relationship" transform="translate(60.82619238072758 335.54217801931884) rotate(237.95545745347835)"><path class="outline" fill="#A5ABB6" stroke="none" d="M 32.5 0.5 L 49.899391841137955 0.5 L 49.899391841137955 -0.5 L 32.5 -0.5 Z M 95.46189184113796 0.5 L 112.86128368227591 0.5 L 112.86128368227591 3.5 L 119.86128368227591 0 L 112.86128368227591 -3.5 L 112.86128368227591 -0.5 L 95.46189184113796 -0.5 Z"/><text text-anchor="middle" pointer-events="none" font-size="8px" fill="#000000" x="72.68064184113796" y="3" transform="rotate(180 72.68064184113796 0)" font-family="sans-serif">ACTED_IN</text></g><g class="relationship" transform="translate(60.82619238072758 335.54217801931884) rotate(267.1984519740847)"><path class="outline" fill="#A5ABB6" stroke="none" d="M 32.5 0.5 L 67.1103668029036 0.5 L 67.1103668029036 -0.5 L 32.5 -0.5 Z M 112.6728668029036 0.5 L 147.2832336058072 0.5 L 147.2832336058072 3.5 L 154.2832336058072 0 L 147.2832336058072 -3.5 L 147.2832336058072 -0.5 L 112.6728668029036 -0.5 Z"/><text text-anchor="middle" pointer-events="none" font-size="8px" fill="#000000" x="89.8916168029036" y="3" transform="rotate(180 89.8916168029036 0)" font-family="sans-serif">ACTED_IN</text></g><g class="relationship" transform="translate(60.82619238072758 335.54217801931884) rotate(451.2114939735288)"><path class="outline" fill="#A5ABB6" stroke="none" d="M 32.5 0.5 L 53.44130332614962 0.5 L 53.44130332614962 -0.5 L 32.5 -0.5 Z M 99.00380332614962 0.5 L 119.94510665229924 0.5 L 119.94510665229924 3.5 L 126.94510665229924 0 L 119.94510665229924 -3.5 L 119.94510665229924 -0.5 L 99.00380332614962 -0.5 Z"/><text text-anchor="middle" pointer-events="none" font-size="8px" fill="#000000" x="76.22255332614962" y="3" transform="rotate(180 76.22255332614962 0)" font-family="sans-serif">ACTED_IN</text></g><g class="relationship" transform="translate(60.82619238072758 335.54217801931884) rotate(423.3727832943994)"><path class="outline" fill="#A5ABB6" stroke="none" d="M 32.5 0.5 L 48.306805493938356 0.5 L 48.306805493938356 -0.5 L 32.5 -0.5 Z M 93.86930549393836 0.5 L 109.67611098787671 0.5 L 109.67611098787671 3.5 L 116.67611098787671 0 L 109.67611098787671 -3.5 L 109.67611098787671 -0.5 L 93.86930549393836 -0.5 Z"/><text text-anchor="middle" pointer-events="none" font-size="8px" fill="#000000" x="71.08805549393836" y="3" font-family="sans-serif">ACTED_IN</text></g><g class="relationship" transform="translate(60.82619238072758 335.54217801931884) rotate(344.3966765794771)"><path class="outline" fill="#A5ABB6" stroke="none" d="M 32.5 0.5 L 76.79823569108906 0.5 L 76.79823569108906 -0.5 L 32.5 -0.5 Z M 122.36073569108906 0.5 L 166.65897138217812 0.5 L 166.65897138217812 3.5 L 173.65897138217812 0 L 166.65897138217812 -3.5 L 166.65897138217812 -0.5 L 122.36073569108906 -0.5 Z"/><text text-anchor="middle" pointer-events="none" font-size="8px" fill="#000000" x="99.57948569108906" y="3" font-family="sans-serif">ACTED_IN</text></g><g class="relationship" transform="translate(60.82619238072758 335.54217801931884) rotate(324.7037164094284)"><path class="outline" fill="#A5ABB6" stroke="none" d="M 31.26317983184346,-8.894581878976458 L 31.52199887694598,-7.92865605268739 A 111.62017278381245 111.62017278381245 0 0 1 35.73977560799604,-8.971265420005253 L 35.51874343085706,-9.946531935717346 A 112.62017278381245 112.62017278381245 0 0 0 31.26317983184346,-8.894581878976458 Z M 82.27154704380564,-10.5900743352083 L 82.0774421948037,-9.609093546612556 A 111.62017278381245 111.62017278381245 0 0 1 86.32231810483292,-8.682970793269428 L 85.62591461303793,-5.764919701082084 L 93.2471712352359,-7.54437116111235 L 87.2508560938929,-12.573705582852552 L 86.55445260209792,-9.655654490665208 A 112.62017278381245 112.62017278381245 0 0 0 82.27154704380564,-10.5900743352083"/><text text-anchor="middle" pointer-events="none" font-size="8px" fill="#000000" x="58.86826125988024" y="-9.221401049603045" font-family="sans-serif">DIRECTED</text></g><g class="relationship" transform="translate(60.82619238072758 335.54217801931884) rotate(324.7037164094284)"><path class="outline" fill="#A5ABB6" stroke="none" d="M 31.26317983184346,8.894581878976458 L 31.52199887694598,7.92865605268739 A 111.62017278381245 111.62017278381245 0 0 0 36.38495434752801,9.115479835751458 L 36.169702297076185,10.092038361788838 A 112.62017278381245 112.62017278381245 0 0 1 31.26317983184346,8.894581878976458 Z M 81.6168298331868,10.717608407741324 L 81.42853848272988,9.735495192606166 A 111.62017278381245 111.62017278381245 0 0 0 86.32231810483292,8.682970793269428 L 85.62591461303793,5.764919701082084 L 93.2471712352359,7.54437116111235 L 87.2508560938929,12.573705582852552 L 86.55445260209792,9.655654490665208 A 112.62017278381245 112.62017278381245 0 0 1 81.6168298331868,10.717608407741324"/><text text-anchor="middle" pointer-events="none" font-size="8px" fill="#000000" x="58.86826125988024" y="15.221401049603045" font-family="sans-serif">ACTED_IN</text></g><g class="relationship" transform="translate(60.82619238072758 335.54217801931884) rotate(532.1736337676606)"><path class="outline" fill="#A5ABB6" stroke="none" d="M 32.5 0.5 L 45.00258761609804 0.5 L 45.00258761609804 -0.5 L 32.5 -0.5 Z M 90.56508761609804 0.5 L 103.06767523219608 0.5 L 103.06767523219608 3.5 L 110.06767523219608 0 L 103.06767523219608 -3.5 L 103.06767523219608 -0.5 L 90.56508761609804 -0.5 Z"/><text text-anchor="middle" pointer-events="none" font-size="8px" fill="#000000" x="67.78383761609804" y="3" transform="rotate(180 67.78383761609804 0)" font-family="sans-serif">ACTED_IN</text></g><g class="relationship" transform="translate(60.82619238072758 335.54217801931884) rotate(200.22613750447908)"><path class="outline" fill="#A5ABB6" stroke="none" d="M 32.5 0.5 L 53.282287428334755 0.5 L 53.282287428334755 -0.5 L 32.5 -0.5 Z M 98.84478742833475 0.5 L 119.62707485666951 0.5 L 119.62707485666951 3.5 L 126.62707485666951 0 L 119.62707485666951 -3.5 L 119.62707485666951 -0.5 L 98.84478742833475 -0.5 Z"/><text text-anchor="middle" pointer-events="none" font-size="8px" fill="#000000" x="76.06353742833475" y="3" transform="rotate(180 76.06353742833475 0)" font-family="sans-serif">ACTED_IN</text></g></g><g class="layer nodes"><g class="node" transform="translate(-7.170053437767272,457.0434531971251)"><circle class="outline" cx="0" cy="0" r="32.5" fill="#6DCE9E" stroke="#60B58B" stroke-width="2px"/><text text-anchor="middle" pointer-events="none" y="0" font-size="10px" fill="#FFFFFF" font-family="sans-serif"> A League of</text><text text-anchor="middle" pointer-events="none" y="10" font-size="10px" fill="#FFFFFF" font-family="sans-serif"> Their Own</text></g><g class="node" transform="translate(57.455047178026255,494.951642654846)"><circle class="outline" cx="0" cy="0" r="32.5" fill="#6DCE9E" stroke="#60B58B" stroke-width="2px"/><text text-anchor="middle" pointer-events="none" y="0" font-size="10px" fill="#FFFFFF" font-family="sans-serif"> The Green</text><text text-anchor="middle" pointer-events="none" y="10" font-size="10px" fill="#FFFFFF" font-family="sans-serif"> Mile</text></g><g class="node" transform="translate(-96.80885912623062,427.97698668202287)"><circle class="outline" cx="0" cy="0" r="32.5" fill="#6DCE9E" stroke="#60B58B" stroke-width="2px"/><text text-anchor="middle" pointer-events="none" y="0" font-size="10px" fill="#FFFFFF" font-family="sans-serif"> You've Got</text><text text-anchor="middle" pointer-events="none" y="10" font-size="10px" fill="#FFFFFF" font-family="sans-serif"> Mail</text></g><g class="node" transform="translate(60.82619238072758,335.54217801931884)"><circle class="outline" cx="0" cy="0" r="32.5" fill="#68BDF6" stroke="#5CA8DB" stroke-width="2px"/><text text-anchor="middle" pointer-events="none" y="5" font-size="10px" fill="#FFFFFF" font-family="sans-serif"> Tom Hanks</text></g><g class="node" transform="translate(259.38758030124615,280.0904268437692)"><circle class="outline" cx="0" cy="0" r="32.5" fill="#6DCE9E" stroke="#60B58B" stroke-width="2px"/><text text-anchor="middle" pointer-events="none" y="5" font-size="10px" fill="#FFFFFF" font-family="sans-serif"> Cloud Atlas</text></g><g class="node" transform="translate(-88.48837586360307,280.527764794699)"><circle class="outline" cx="0" cy="0" r="32.5" fill="#6DCE9E" stroke="#60B58B" stroke-width="2px"/><text text-anchor="middle" pointer-events="none" y="0" font-size="10px" fill="#FFFFFF" font-family="sans-serif"> Sleepless in</text><text text-anchor="middle" pointer-events="none" y="10" font-size="10px" fill="#FFFFFF" font-family="sans-serif"> Seattle</text></g><g class="node" transform="translate(127.6845056078729,468.8968856298424)"><circle class="outline" cx="0" cy="0" r="32.5" fill="#6DCE9E" stroke="#60B58B" stroke-width="2px"/><text text-anchor="middle" pointer-events="none" y="0" font-size="10px" fill="#FFFFFF" font-family="sans-serif"> The Da Vinci</text><text text-anchor="middle" pointer-events="none" y="10" font-size="10px" fill="#FFFFFF" font-family="sans-serif"> Code</text></g><g class="node" transform="translate(51.696833908346726,148.98218453163585)"><circle class="outline" cx="0" cy="0" r="32.5" fill="#6DCE9E" stroke="#60B58B" stroke-width="2px"/><text text-anchor="middle" pointer-events="none" y="5" font-size="10px" fill="#FFFFFF" font-family="sans-serif"> Apollo 13</text></g><g class="node" transform="translate(-80.41350520493847,354.95582906755135)"><circle class="outline" cx="0" cy="0" r="32.5" fill="#6DCE9E" stroke="#60B58B" stroke-width="2px"/><text text-anchor="middle" pointer-events="none" y="0" font-size="10px" fill="#FFFFFF" font-family="sans-serif"> Joe Versus</text><text text-anchor="middle" pointer-events="none" y="10" font-size="10px" fill="#FFFFFF" font-family="sans-serif"> the Volcano</text></g><g class="node" transform="translate(-20.013411996603327,206.39528827966006)"><circle class="outline" cx="0" cy="0" r="32.5" fill="#6DCE9E" stroke="#60B58B" stroke-width="2px"/><text text-anchor="middle" pointer-events="none" y="5" font-size="10px" fill="#FFFFFF" font-family="sans-serif"> Cast Away</text></g><g class="node" transform="translate(162.73331493198302,263.39783663171363)"><circle class="outline" cx="0" cy="0" r="32.5" fill="#6DCE9E" stroke="#60B58B" stroke-width="2px"/><text text-anchor="middle" pointer-events="none" y="0" font-size="10px" fill="#FFFFFF" font-family="sans-serif"> That Thing</text><text text-anchor="middle" pointer-events="none" y="10" font-size="10px" fill="#FFFFFF" font-family="sans-serif"> You Do</text></g><g class="node" transform="translate(192.74019925425176,431.6549444037333)"><circle class="outline" cx="0" cy="0" r="32.5" fill="#6DCE9E" stroke="#60B58B" stroke-width="2px"/><text text-anchor="middle" pointer-events="none" y="0" font-size="10px" fill="#FFFFFF" font-family="sans-serif"> Charlie</text><text text-anchor="middle" pointer-events="none" y="10" font-size="10px" fill="#FFFFFF" font-family="sans-serif"> Wilson's War</text></g><g class="node" transform="translate(192.8530147598383,356.69378010861874)"><circle class="outline" cx="0" cy="0" r="32.5" fill="#6DCE9E" stroke="#60B58B" stroke-width="2px"/><text text-anchor="middle" pointer-events="none" y="0" font-size="10px" fill="#FFFFFF" font-family="sans-serif"> The Polar</text><text text-anchor="middle" pointer-events="none" y="10" font-size="10px" fill="#FFFFFF" font-family="sans-serif"> Express</text></g><g class="node" transform="translate(527.3306956232609,51.213244699792995)"><circle class="outline" cx="0" cy="0" r="32.5" fill="#6DCE9E" stroke="#60B58B" stroke-width="2px"/><text text-anchor="middle" pointer-events="none" y="5" font-size="10px" fill="#FFFFFF" font-family="sans-serif"> The Matrix</text></g><g class="node" transform="translate(403.13928773907674,-50.89588951718348)"><circle class="outline" cx="0" cy="0" r="32.5" fill="#68BDF6" stroke="#5CA8DB" stroke-width="2px"/><text text-anchor="middle" pointer-events="none" y="0" font-size="10px" fill="#FFFFFF" font-family="sans-serif"> Keanu</text><text text-anchor="middle" pointer-events="none" y="10" font-size="10px" fill="#FFFFFF" font-family="sans-serif"> Reeves</text></g><g class="node" transform="translate(385.5997805896735,-184.8220545349974)"><circle class="outline" cx="0" cy="0" r="32.5" fill="#6DCE9E" stroke="#60B58B" stroke-width="2px"/><text text-anchor="middle" pointer-events="none" y="0" font-size="10px" fill="#FFFFFF" font-family="sans-serif"> Johnny</text><text text-anchor="middle" pointer-events="none" y="10" font-size="10px" fill="#FFFFFF" font-family="sans-serif"> Mnemonic</text></g><g class="node" transform="translate(529.3407330449226,-99.14412761574674)"><circle class="outline" cx="0" cy="0" r="32.5" fill="#6DCE9E" stroke="#60B58B" stroke-width="2px"/><text text-anchor="middle" pointer-events="none" y="0" font-size="10px" fill="#FFFFFF" font-family="sans-serif"> The</text><text text-anchor="middle" pointer-events="none" y="10" font-size="10px" fill="#FFFFFF" font-family="sans-serif"> Replaceme…</text></g><g class="node" transform="translate(239.81219774549663,-157.12735801517618)"><circle class="outline" cx="0" cy="0" r="32.5" fill="#6DCE9E" stroke="#60B58B" stroke-width="2px"/><text text-anchor="middle" pointer-events="none" y="0" font-size="10px" fill="#FFFFFF" font-family="sans-serif"> Something's</text><text text-anchor="middle" pointer-events="none" y="10" font-size="10px" fill="#FFFFFF" font-family="sans-serif"> Gotta Give</text></g><g class="node" transform="translate(454.639795634638,68.70512934274446)"><circle class="outline" cx="0" cy="0" r="32.5" fill="#6DCE9E" stroke="#60B58B" stroke-width="2px"/><text text-anchor="middle" pointer-events="none" y="0" font-size="10px" fill="#FFFFFF" font-family="sans-serif"> The Matrix</text><text text-anchor="middle" pointer-events="none" y="10" font-size="10px" fill="#FFFFFF" font-family="sans-serif"> Reloaded</text></g><g class="node" transform="translate(383.4512855086496,92.02529076347307)"><circle class="outline" cx="0" cy="0" r="32.5" fill="#6DCE9E" stroke="#60B58B" stroke-width="2px"/><text text-anchor="middle" pointer-events="none" y="0" font-size="10px" fill="#FFFFFF" font-family="sans-serif"> The Matrix</text><text text-anchor="middle" pointer-events="none" y="10" font-size="10px" fill="#FFFFFF" font-family="sans-serif"> Revolutions</text></g><g class="node" transform="translate(469.65738842286237,-170.95526860532942)"><circle class="outline" cx="0" cy="0" r="32.5" fill="#6DCE9E" stroke="#60B58B" stroke-width="2px"/><text text-anchor="middle" pointer-events="none" y="0" font-size="10px" fill="#FFFFFF" font-family="sans-serif"> The Devil's</text><text text-anchor="middle" pointer-events="none" y="10" font-size="10px" fill="#FFFFFF" font-family="sans-serif"> Advocate</text></g><g class="node" transform="translate(46.05227277544756,-223.33641180920944)"><circle class="outline" cx="0" cy="0" r="32.5" fill="#68BDF6" stroke="#5CA8DB" stroke-width="2px"/><text text-anchor="middle" pointer-events="none" y="0" font-size="10px" fill="#FFFFFF" font-family="sans-serif"> Jack</text><text text-anchor="middle" pointer-events="none" y="10" font-size="10px" fill="#FFFFFF" font-family="sans-serif"> Nicholson</text></g><g class="node" transform="translate(-77.51580372758376,-109.49962412703039)"><circle class="outline" cx="0" cy="0" r="32.5" fill="#6DCE9E" stroke="#60B58B" stroke-width="2px"/><text text-anchor="middle" pointer-events="none" y="0" font-size="10px" fill="#FFFFFF" font-family="sans-serif"> As Good as</text><text text-anchor="middle" pointer-events="none" y="10" font-size="10px" fill="#FFFFFF" font-family="sans-serif"> It Gets</text></g><g class="node" transform="translate(125.206338242487,-336.1799494128351)"><circle class="outline" cx="0" cy="0" r="32.5" fill="#6DCE9E" stroke="#60B58B" stroke-width="2px"/><text text-anchor="middle" pointer-events="none" y="-10" font-size="10px" fill="#FFFFFF" font-family="sans-serif"> One Flew</text><text text-anchor="middle" pointer-events="none" y="0" font-size="10px" fill="#FFFFFF" font-family="sans-serif"> Over the</text><text text-anchor="middle" pointer-events="none" y="10" font-size="10px" fill="#FFFFFF" font-family="sans-serif"> Cuckoo's</text><text text-anchor="middle" pointer-events="none" y="20" font-size="10px" fill="#FFFFFF" font-family="sans-serif"> Nest</text></g><g class="node" transform="translate(21.096222367981248,-357.07923138049284)"><circle class="outline" cx="0" cy="0" r="32.5" fill="#6DCE9E" stroke="#60B58B" stroke-width="2px"/><text text-anchor="middle" pointer-events="none" y="5" font-size="10px" fill="#FFFFFF" font-family="sans-serif"> Hoffa</text></g><g class="node" transform="translate(-94.5477706908694,-182.30612913200457)"><circle class="outline" cx="0" cy="0" r="32.5" fill="#6DCE9E" stroke="#60B58B" stroke-width="2px"/><text text-anchor="middle" pointer-events="none" y="0" font-size="10px" fill="#FFFFFF" font-family="sans-serif"> A Few Good</text><text text-anchor="middle" pointer-events="none" y="10" font-size="10px" fill="#FFFFFF" font-family="sans-serif"> Men</text></g><g class="node" transform="translate(-313.60696115846184,417.28500780163256)"><circle class="outline" cx="0" cy="0" r="32.5" fill="#6DCE9E" stroke="#60B58B" stroke-width="2px"/><text text-anchor="middle" pointer-events="none" y="0" font-size="10px" fill="#FFFFFF" font-family="sans-serif"> When Harry</text><text text-anchor="middle" pointer-events="none" y="10" font-size="10px" fill="#FFFFFF" font-family="sans-serif"> Met Sally</text></g><g class="node" transform="translate(-221.55147504081648,327.23659167238515)"><circle class="outline" cx="0" cy="0" r="32.5" fill="#68BDF6" stroke="#5CA8DB" stroke-width="2px"/><text text-anchor="middle" pointer-events="none" y="5" font-size="10px" fill="#FFFFFF" font-family="sans-serif"> Meg Ryan</text></g><g class="node" transform="translate(-274.9928443211844,158.02578263833874)"><circle class="outline" cx="0" cy="0" r="32.5" fill="#6DCE9E" stroke="#60B58B" stroke-width="2px"/><text text-anchor="middle" pointer-events="none" y="5" font-size="10px" fill="#FFFFFF" font-family="sans-serif"> Top Gun</text></g><g class="node" transform="translate(507.57084559283027,311.4733628954667)"><circle class="outline" cx="0" cy="0" r="32.5" fill="#6DCE9E" stroke="#60B58B" stroke-width="2px"/><text text-anchor="middle" pointer-events="none" y="0" font-size="10px" fill="#FFFFFF" font-family="sans-serif"> V for</text><text text-anchor="middle" pointer-events="none" y="10" font-size="10px" fill="#FFFFFF" font-family="sans-serif"> Vendetta</text></g><g class="node" transform="translate(432.2265936435416,198.7320085106356)"><circle class="outline" cx="0" cy="0" r="32.5" fill="#68BDF6" stroke="#5CA8DB" stroke-width="2px"/><text text-anchor="middle" pointer-events="none" y="0" font-size="10px" fill="#FFFFFF" font-family="sans-serif"> Hugo</text><text text-anchor="middle" pointer-events="none" y="10" font-size="10px" fill="#FFFFFF" font-family="sans-serif"> Weaving</text></g><g class="node" transform="translate(134.31152845663019,-19.137157350346552)"><circle class="outline" cx="0" cy="0" r="32.5" fill="#6DCE9E" stroke="#60B58B" stroke-width="2px"/><text text-anchor="middle" pointer-events="none" y="5" font-size="10px" fill="#FFFFFF" font-family="sans-serif"> Mystic River</text></g><g class="node" transform="translate(7.852565372905849,-41.784840106483685)"><circle class="outline" cx="0" cy="0" r="32.5" fill="#68BDF6" stroke="#5CA8DB" stroke-width="2px"/><text text-anchor="middle" pointer-events="none" y="5" font-size="10px" fill="#FFFFFF" font-family="sans-serif"> Kevin Bacon</text></g><g class="node" transform="translate(103.48669621390069,-130.22013875020195)"><circle class="outline" cx="0" cy="0" r="32.5" fill="#6DCE9E" stroke="#60B58B" stroke-width="2px"/><text text-anchor="middle" pointer-events="none" y="5" font-size="10px" fill="#FFFFFF" font-family="sans-serif"> Frost/Nixon</text></g><g class="node" transform="translate(-116.79291157432849,-26.885227295599947)"><circle class="outline" cx="0" cy="0" r="32.5" fill="#6DCE9E" stroke="#60B58B" stroke-width="2px"/><text text-anchor="middle" pointer-events="none" y="5" font-size="10px" fill="#FFFFFF" font-family="sans-serif"> Mystic River</text></g><g class="node" transform="translate(-326.5081930459295,-140.40093655215802)"><circle class="outline" cx="0" cy="0" r="32.5" fill="#6DCE9E" stroke="#60B58B" stroke-width="2px"/><text text-anchor="middle" pointer-events="none" y="5" font-size="10px" fill="#FFFFFF" font-family="sans-serif"> Jerry Maguire</text></g><g class="node" transform="translate(-208.18559214086966,-204.93054548943343)"><circle class="outline" cx="0" cy="0" r="32.5" fill="#68BDF6" stroke="#5CA8DB" stroke-width="2px"/><text text-anchor="middle" pointer-events="none" y="0" font-size="10px" fill="#FFFFFF" font-family="sans-serif"> Cuba</text><text text-anchor="middle" pointer-events="none" y="10" font-size="10px" fill="#FFFFFF" font-family="sans-serif"> Gooding Jr.</text></g><g class="node" transform="translate(-297.99482232698716,-294.1826093784593)"><circle class="outline" cx="0" cy="0" r="32.5" fill="#6DCE9E" stroke="#60B58B" stroke-width="2px"/><text text-anchor="middle" pointer-events="none" y="-5" font-size="10px" fill="#FFFFFF" font-family="sans-serif"> What</text><text text-anchor="middle" pointer-events="none" y="5" font-size="10px" fill="#FFFFFF" font-family="sans-serif"> Dreams May</text><text text-anchor="middle" pointer-events="none" y="15" font-size="10px" fill="#FFFFFF" font-family="sans-serif"> Come</text></g><g class="node" transform="translate(-234.59111565684765,78.47060832471051)"><circle class="outline" cx="0" cy="0" r="32.5" fill="#6DCE9E" stroke="#60B58B" stroke-width="2px"/><text text-anchor="middle" pointer-events="none" y="5" font-size="10px" fill="#FFFFFF" font-family="sans-serif"> Twister</text></g><g class="node" transform="translate(-97.33996421016042,59.95324868795667)"><circle class="outline" cx="0" cy="0" r="32.5" fill="#68BDF6" stroke="#5CA8DB" stroke-width="2px"/><text text-anchor="middle" pointer-events="none" y="5" font-size="10px" fill="#FFFFFF" font-family="sans-serif"> Helen Hunt</text></g><g class="node" transform="translate(-236.71142811128496,-48.430750893710226)"><circle class="outline" cx="0" cy="0" r="32.5" fill="#68BDF6" stroke="#5CA8DB" stroke-width="2px"/><text text-anchor="middle" pointer-events="none" y="5" font-size="10px" fill="#FFFFFF" font-family="sans-serif"> Tom Cruise</text></g><g class="node" transform="translate(528.159815607054,159.81725050700243)"><circle class="outline" cx="0" cy="0" r="32.5" fill="#68BDF6" stroke="#5CA8DB" stroke-width="2px"/><text text-anchor="middle" pointer-events="none" y="0" font-size="10px" fill="#FFFFFF" font-family="sans-serif"> Carrie-Anne</text><text text-anchor="middle" pointer-events="none" y="10" font-size="10px" fill="#FFFFFF" font-family="sans-serif"> Moss</text></g></g></svg>