<svg xmlns="http://www.w3.org/2000/svg" width="814.4860229492188" height="826.232666015625" viewBox="-280.72637939453125 -326.7893981933594 814.4860229492188 826.232666015625"><title>Neo4j Graph Visualization</title><desc>Created using Neo4j (http://www.neo4j.com/)</desc><g class="layer relationships"><g class="relationship" transform="translate(368.4534109135187 22.19368123461649) rotate(264.03530345361537)"><path class="outline" fill="#A5ABB6" stroke="none" d="M 32.5 0.5 L 49.77795136835773 0.5 L 49.77795136835773 -0.5 L 32.5 -0.5 Z M 95.34045136835773 0.5 L 112.61840273671547 0.5 L 112.61840273671547 3.5 L 119.61840273671547 0 L 112.61840273671547 -3.5 L 112.61840273671547 -0.5 L 95.34045136835773 -0.5 Z"/><text text-anchor="middle" pointer-events="none" font-size="8px" fill="#000000" x="72.55920136835773" y="3" transform="rotate(180 72.55920136835773 0)" font-family="sans-serif">ACTED_IN</text></g><g class="relationship" transform="translate(199.09853985195298 -159.3908927191288) rotate(371.15924766220866)"><path class="outline" fill="#A5ABB6" stroke="none" d="M 32.5 0.5 L 51.971972701787934 0.5 L 51.971972701787934 -0.5 L 32.5 -0.5 Z M 97.53447270178793 0.5 L 117.00644540357587 0.5 L 117.00644540357587 3.5 L 124.00644540357587 0 L 117.00644540357587 -3.5 L 117.00644540357587 -0.5 L 97.53447270178793 -0.5 Z"/><text text-anchor="middle" pointer-events="none" font-size="8px" fill="#000000" x="74.75322270178793" y="3" font-family="sans-serif">ACTED_IN</text></g><g class="relationship" transform="translate(199.09853985195298 -159.3908927191288) rotate(534.5940738618838)"><path class="outline" fill="#A5ABB6" stroke="none" d="M 32.5 0.5 L 50.461890423193424 0.5 L 50.461890423193424 -0.5 L 32.5 -0.5 Z M 96.02439042319342 0.5 L 113.98628084638685 0.5 L 113.98628084638685 3.5 L 120.98628084638685 0 L 113.98628084638685 -3.5 L 113.98628084638685 -0.5 L 96.02439042319342 -0.5 Z"/><text text-anchor="middle" pointer-events="none" font-size="8px" fill="#000000" x="73.24314042319342" y="3" transform="rotate(180 73.24314042319342 0)" font-family="sans-serif">ACTED_IN</text></g><g class="relationship" transform="translate(199.09853985195298 -159.3908927191288) rotate(309.1415251906219)"><path class="outline" fill="#A5ABB6" stroke="none" d="M 32.5 0.5 L 39.10248524592485 0.5 L 39.10248524592485 -0.5 L 32.5 -0.5 Z M 84.66498524592485 0.5 L 91.2674704918497 0.5 L 91.2674704918497 3.5 L 98.2674704918497 0 L 91.2674704918497 -3.5 L 91.2674704918497 -0.5 L 84.66498524592485 -0.5 Z"/><text text-anchor="middle" pointer-events="none" font-size="8px" fill="#000000" x="61.88373524592485" y="3" font-family="sans-serif">ACTED_IN</text></g><g class="relationship" transform="translate(199.09853985195298 -159.3908927191288) rotate(262.41752217461016)"><path class="outline" fill="#A5ABB6" stroke="none" d="M 32.5 0.5 L 39.745347768661915 0.5 L 39.745347768661915 -0.5 L 32.5 -0.5 Z M 85.30784776866192 0.5 L 92.55319553732383 0.5 L 92.55319553732383 3.5 L 99.55319553732383 0 L 92.55319553732383 -3.5 L 92.55319553732383 -0.5 L 85.30784776866192 -0.5 Z"/><text text-anchor="middle" pointer-events="none" font-size="8px" fill="#000000" x="62.526597768661915" y="3" transform="rotate(180 62.526597768661915 0)" font-family="sans-serif">ACTED_IN</text></g><g class="relationship" transform="translate(199.09853985195298 -159.3908927191288) rotate(220.62538371961801)"><path class="outline" fill="#A5ABB6" stroke="none" d="M 32.5 0.5 L 38.60948767961402 0.5 L 38.60948767961402 -0.5 L 32.5 -0.5 Z M 84.17198767961402 0.5 L 90.28147535922804 0.5 L 90.28147535922804 3.5 L 97.28147535922804 0 L 90.28147535922804 -3.5 L 90.28147535922804 -0.5 L 84.17198767961402 -0.5 Z"/><text text-anchor="middle" pointer-events="none" font-size="8px" fill="#000000" x="61.39073767961402" y="3" transform="rotate(180 61.39073767961402 0)" font-family="sans-serif">ACTED_IN</text></g><g class="relationship" transform="translate(199.09853985195298 -159.3908927191288) rotate(399.44719530961083)"><path class="outline" fill="#A5ABB6" stroke="none" d="M 32.5 0.5 L 37.46274747408757 0.5 L 37.46274747408757 -0.5 L 32.5 -0.5 Z M 83.02524747408756 0.5 L 87.98799494817514 0.5 L 87.98799494817514 3.5 L 94.98799494817514 0 L 87.98799494817514 -3.5 L 87.98799494817514 -0.5 L 83.02524747408756 -0.5 Z"/><text text-anchor="middle" pointer-events="none" font-size="8px" fill="#000000" x="60.24399747408757" y="3" font-family="sans-serif">ACTED_IN</text></g><g class="relationship" transform="translate(199.09853985195298 -159.3908927191288) rotate(432.55852246919187)"><path class="outline" fill="#A5ABB6" stroke="none" d="M 32.5 0.5 L 41.01762592431014 0.5 L 41.01762592431014 -0.5 L 32.5 -0.5 Z M 86.58012592431014 0.5 L 95.09775184862028 0.5 L 95.09775184862028 3.5 L 102.09775184862028 0 L 95.09775184862028 -3.5 L 95.09775184862028 -0.5 L 86.58012592431014 -0.5 Z"/><text text-anchor="middle" pointer-events="none" font-size="8px" fill="#000000" x="63.79887592431014" y="3" font-family="sans-serif">ACTED_IN</text></g><g class="relationship" transform="translate(368.4534109135187 22.19368123461649) rotate(364.36797330377306)"><path class="outline" fill="#A5ABB6" stroke="none" d="M 32.5 0.5 L 38.309492276670596 0.5 L 38.309492276670596 -0.5 L 32.5 -0.5 Z M 83.8719922766706 0.5 L 89.68148455334119 0.5 L 89.68148455334119 3.5 L 96.68148455334119 0 L 89.68148455334119 -3.5 L 89.68148455334119 -0.5 L 83.8719922766706 -0.5 Z"/><text text-anchor="middle" pointer-events="none" font-size="8px" fill="#000000" x="61.090742276670596" y="3" font-family="sans-serif">ACTED_IN</text></g><g class="relationship" transform="translate(368.4534109135187 22.19368123461649) rotate(486.0434892632051)"><path class="outline" fill="#A5ABB6" stroke="none" d="M 32.5 0.5 L 59.49225861801219 0.5 L 59.49225861801219 -0.5 L 32.5 -0.5 Z M 105.05475861801219 0.5 L 132.04701723602437 0.5 L 132.04701723602437 3.5 L 139.04701723602437 0 L 132.04701723602437 -3.5 L 132.04701723602437 -0.5 L 105.05475861801219 -0.5 Z"/><text text-anchor="middle" pointer-events="none" font-size="8px" fill="#000000" x="82.27350861801219" y="3" transform="rotate(180 82.27350861801219 0)" font-family="sans-serif">ACTED_IN</text></g><g class="relationship" transform="translate(368.4534109135187 22.19368123461649) rotate(234.81755690838406)"><path class="outline" fill="#A5ABB6" stroke="none" d="M 32.5 0.5 L 35.25079962824035 0.5 L 35.25079962824035 -0.5 L 32.5 -0.5 Z M 80.81329962824034 0.5 L 83.5640992564807 0.5 L 83.5640992564807 3.5 L 90.5640992564807 0 L 83.5640992564807 -3.5 L 83.5640992564807 -0.5 L 80.81329962824034 -0.5 Z"/><text text-anchor="middle" pointer-events="none" font-size="8px" fill="#000000" x="58.03204962824035" y="3" transform="rotate(180 58.03204962824035 0)" font-family="sans-serif">ACTED_IN</text></g><g class="relationship" transform="translate(368.4534109135187 22.19368123461649) rotate(202.40013802882152)"><path class="outline" fill="#A5ABB6" stroke="none" d="M 32.5 0.5 L 43.48910619245969 0.5 L 43.48910619245969 -0.5 L 32.5 -0.5 Z M 89.05160619245969 0.5 L 100.04071238491937 0.5 L 100.04071238491937 3.5 L 107.04071238491937 0 L 100.04071238491937 -3.5 L 100.04071238491937 -0.5 L 89.05160619245969 -0.5 Z"/><text text-anchor="middle" pointer-events="none" font-size="8px" fill="#000000" x="66.27035619245969" y="3" transform="rotate(180 66.27035619245969 0)" font-family="sans-serif">ACTED_IN</text></g><g class="relationship" transform="translate(-98.8214187961067 -138.05780843167466) rotate(509.86566756048876)"><path class="outline" fill="#A5ABB6" stroke="none" d="M 32.5 0.5 L 42.012684055260635 0.5 L 42.012684055260635 -0.5 L 32.5 -0.5 Z M 87.57518405526064 0.5 L 97.08786811052127 0.5 L 97.08786811052127 3.5 L 104.08786811052127 0 L 97.08786811052127 -3.5 L 97.08786811052127 -0.5 L 87.57518405526064 -0.5 Z"/><text text-anchor="middle" pointer-events="none" font-size="8px" fill="#000000" x="64.79393405526064" y="3" transform="rotate(180 64.79393405526064 0)" font-family="sans-serif">ACTED_IN</text></g><g class="relationship" transform="translate(-98.8214187961067 -138.05780843167466) rotate(469.48795449677067)"><path class="outline" fill="#A5ABB6" stroke="none" d="M 32.5 0.5 L 37.29792922765432 0.5 L 37.29792922765432 -0.5 L 32.5 -0.5 Z M 82.86042922765432 0.5 L 87.65835845530864 0.5 L 87.65835845530864 3.5 L 94.65835845530864 0 L 87.65835845530864 -3.5 L 87.65835845530864 -0.5 L 82.86042922765432 -0.5 Z"/><text text-anchor="middle" pointer-events="none" font-size="8px" fill="#000000" x="60.07917922765432" y="3" transform="rotate(180 60.07917922765432 0)" font-family="sans-serif">ACTED_IN</text></g><g class="relationship" transform="translate(-98.8214187961067 -138.05780843167466) rotate(357.2884056478031)"><path class="outline" fill="#A5ABB6" stroke="none" d="M 32.5 0.5 L 46.35825793057988 0.5 L 46.35825793057988 -0.5 L 32.5 -0.5 Z M 91.92075793057988 0.5 L 105.77901586115976 0.5 L 105.77901586115976 3.5 L 112.77901586115976 0 L 105.77901586115976 -3.5 L 105.77901586115976 -0.5 L 91.92075793057988 -0.5 Z"/><text text-anchor="middle" pointer-events="none" font-size="8px" fill="#000000" x="69.13950793057988" y="3" font-family="sans-serif">ACTED_IN</text></g><g class="relationship" transform="translate(-98.8214187961067 -138.05780843167466) rotate(190.85492317385)"><path class="outline" fill="#A5ABB6" stroke="none" d="M 32.5 0.5 L 39.15395857598817 0.5 L 39.15395857598817 -0.5 L 32.5 -0.5 Z M 84.71645857598817 0.5 L 91.37041715197634 0.5 L 91.37041715197634 3.5 L 98.37041715197634 0 L 91.37041715197634 -3.5 L 91.37041715197634 -0.5 L 84.71645857598817 -0.5 Z"/><text text-anchor="middle" pointer-events="none" font-size="8px" fill="#000000" x="61.93520857598817" y="3" transform="rotate(180 61.93520857598817 0)" font-family="sans-serif">ACTED_IN</text></g><g class="relationship" transform="translate(-98.8214187961067 -138.05780843167466) rotate(246.70103666656405)"><path class="outline" fill="#A5ABB6" stroke="none" d="M 32.5 0.5 L 36.45938750642089 0.5 L 36.45938750642089 -0.5 L 32.5 -0.5 Z M 82.02188750642088 0.5 L 85.98127501284178 0.5 L 85.98127501284178 3.5 L 92.98127501284178 0 L 85.98127501284178 -3.5 L 85.98127501284178 -0.5 L 82.02188750642088 -0.5 Z"/><text text-anchor="middle" pointer-events="none" font-size="8px" fill="#000000" x="59.24063750642089" y="3" transform="rotate(180 59.24063750642089 0)" font-family="sans-serif">ACTED_IN</text></g><g class="relationship" transform="translate(-123.91699508769679 365.5512077725515) rotate(487.8498261777337)"><path class="outline" fill="#A5ABB6" stroke="none" d="M 32.5 0.5 L 35.388849414120045 0.5 L 35.388849414120045 -0.5 L 32.5 -0.5 Z M 80.95134941412005 0.5 L 83.84019882824009 0.5 L 83.84019882824009 3.5 L 90.84019882824009 0 L 83.84019882824009 -3.5 L 83.84019882824009 -0.5 L 80.95134941412005 -0.5 Z"/><text text-anchor="middle" pointer-events="none" font-size="8px" fill="#000000" x="58.170099414120045" y="3" transform="rotate(180 58.170099414120045 0)" font-family="sans-serif">ACTED_IN</text></g><g class="relationship" transform="translate(-123.91699508769679 365.5512077725515) rotate(347.7780853784203)"><path class="outline" fill="#A5ABB6" stroke="none" d="M 32.5 0.5 L 38.01598885088299 0.5 L 38.01598885088299 -0.5 L 32.5 -0.5 Z M 83.57848885088299 0.5 L 89.09447770176598 0.5 L 89.09447770176598 3.5 L 96.09447770176598 0 L 89.09447770176598 -3.5 L 89.09447770176598 -0.5 L 83.57848885088299 -0.5 Z"/><text text-anchor="middle" pointer-events="none" font-size="8px" fill="#000000" x="60.79723885088299" y="3" font-family="sans-serif">ACTED_IN</text></g><g class="relationship" transform="translate(-123.91699508769679 365.5512077725515) rotate(203.02022164773)"><path class="outline" fill="#A5ABB6" stroke="none" d="M 32.5 0.5 L 39.07820900992782 0.5 L 39.07820900992782 -0.5 L 32.5 -0.5 Z M 84.64070900992782 0.5 L 91.21891801985564 0.5 L 91.21891801985564 3.5 L 98.21891801985564 0 L 91.21891801985564 -3.5 L 91.21891801985564 -0.5 L 84.64070900992782 -0.5 Z"/><text text-anchor="middle" pointer-events="none" font-size="8px" fill="#000000" x="61.85945900992782" y="3" transform="rotate(180 61.85945900992782 0)" font-family="sans-serif">ACTED_IN</text></g><g class="relationship" transform="translate(-123.91699508769679 365.5512077725515) rotate(315.5433381561928)"><path class="outline" fill="#A5ABB6" stroke="none" d="M 32.5 0.5 L 43.152982980828696 0.5 L 43.152982980828696 -0.5 L 32.5 -0.5 Z M 88.7154829808287 0.5 L 99.36846596165739 0.5 L 99.36846596165739 3.5 L 106.36846596165739 0 L 99.36846596165739 -3.5 L 99.36846596165739 -0.5 L 88.7154829808287 -0.5 Z"/><text text-anchor="middle" pointer-events="none" font-size="8px" fill="#000000" x="65.9342329808287" y="3" font-family="sans-serif">ACTED_IN</text></g><g class="relationship" transform="translate(-123.91699508769679 365.5512077725515) rotate(378.4060770515488)"><path class="outline" fill="#A5ABB6" stroke="none" d="M 32.5 0.5 L 47.20774817638734 0.5 L 47.20774817638734 -0.5 L 32.5 -0.5 Z M 92.77024817638734 0.5 L 107.47799635277468 0.5 L 107.47799635277468 3.5 L 114.47799635277468 0 L 107.47799635277468 -3.5 L 107.47799635277468 -0.5 L 92.77024817638734 -0.5 Z"/><text text-anchor="middle" pointer-events="none" font-size="8px" fill="#000000" x="69.98899817638734" y="3" font-family="sans-serif">ACTED_IN</text></g><g class="relationship" transform="translate(135.6400558978154 301.70437373550334) rotate(497.44675967979373)"><path class="outline" fill="#A5ABB6" stroke="none" d="M 32.5 0.5 L 55.23520977621902 0.5 L 55.23520977621902 -0.5 L 32.5 -0.5 Z M 100.79770977621902 0.5 L 123.53291955243805 0.5 L 123.53291955243805 3.5 L 130.53291955243805 0 L 123.53291955243805 -3.5 L 123.53291955243805 -0.5 L 100.79770977621902 -0.5 Z"/><text text-anchor="middle" pointer-events="none" font-size="8px" fill="#000000" x="78.01645977621902" y="3" transform="rotate(180 78.01645977621902 0)" font-family="sans-serif">ACTED_IN</text></g><g class="relationship" transform="translate(135.6400558978154 301.70437373550334) rotate(298.0052864979917)"><path class="outline" fill="#A5ABB6" stroke="none" d="M 32.5 0.5 L 35.4661763671926 0.5 L 35.4661763671926 -0.5 L 32.5 -0.5 Z M 81.0286763671926 0.5 L 83.9948527343852 0.5 L 83.9948527343852 3.5 L 90.9948527343852 0 L 83.9948527343852 -3.5 L 83.9948527343852 -0.5 L 81.0286763671926 -0.5 Z"/><text text-anchor="middle" pointer-events="none" font-size="8px" fill="#000000" x="58.2474263671926" y="3" font-family="sans-serif">ACTED_IN</text></g><g class="relationship" transform="translate(135.6400558978154 301.70437373550334) rotate(341.85326629463975)"><path class="outline" fill="#A5ABB6" stroke="none" d="M 32.5 0.5 L 43.70591660875181 0.5 L 43.70591660875181 -0.5 L 32.5 -0.5 Z M 89.2684166087518 0.5 L 100.47433321750361 0.5 L 100.47433321750361 3.5 L 107.47433321750361 0 L 100.47433321750361 -3.5 L 100.47433321750361 -0.5 L 89.2684166087518 -0.5 Z"/><text text-anchor="middle" pointer-events="none" font-size="8px" fill="#000000" x="66.4871666087518" y="3" font-family="sans-serif">ACTED_IN</text></g><g class="relationship" transform="translate(135.6400558978154 301.70437373550334) rotate(223.7181032649013)"><path class="outline" fill="#A5ABB6" stroke="none" d="M 32.5 0.5 L 42.38768286319339 0.5 L 42.38768286319339 -0.5 L 32.5 -0.5 Z M 87.95018286319339 0.5 L 97.83786572638678 0.5 L 97.83786572638678 3.5 L 104.83786572638678 0 L 97.83786572638678 -3.5 L 97.83786572638678 -0.5 L 87.95018286319339 -0.5 Z"/><text text-anchor="middle" pointer-events="none" font-size="8px" fill="#000000" x="65.16893286319339" y="3" transform="rotate(180 65.16893286319339 0)" font-family="sans-serif">ACTED_IN</text></g><g class="relationship" transform="translate(135.6400558978154 301.70437373550334) rotate(255.5340033959522)"><path class="outline" fill="#A5ABB6" stroke="none" d="M 32.5 0.5 L 42.220505110810734 0.5 L 42.220505110810734 -0.5 L 32.5 -0.5 Z M 87.78300511081073 0.5 L 97.50351022162147 0.5 L 97.50351022162147 3.5 L 104.50351022162147 0 L 97.50351022162147 -3.5 L 97.50351022162147 -0.5 L 87.78300511081073 -0.5 Z"/><text text-anchor="middle" pointer-events="none" font-size="8px" fill="#000000" x="65.00175511081073" y="3" transform="rotate(180 65.00175511081073 0)" font-family="sans-serif">ACTED_IN</text></g><g class="relationship" transform="translate(135.6400558978154 301.70437373550334) rotate(400.3548252009066)"><path class="outline" fill="#A5ABB6" stroke="none" d="M 32.5 0.5 L 47.54193439455349 0.5 L 47.54193439455349 -0.5 L 32.5 -0.5 Z M 93.1044343945535 0.5 L 108.14636878910699 0.5 L 108.14636878910699 3.5 L 115.14636878910699 0 L 108.14636878910699 -3.5 L 108.14636878910699 -0.5 L 93.1044343945535 -0.5 Z"/><text text-anchor="middle" pointer-events="none" font-size="8px" fill="#000000" x="70.3231843945535" y="3" font-family="sans-serif">ACTED_IN</text></g><g class="relationship" transform="translate(135.6400558978154 301.70437373550334) rotate(461.1351680321637)"><path class="outline" fill="#A5ABB6" stroke="none" d="M 32.5 0.5 L 42.05829196045549 0.5 L 42.05829196045549 -0.5 L 32.5 -0.5 Z M 87.62079196045549 0.5 L 97.17908392091098 0.5 L 97.17908392091098 3.5 L 104.17908392091098 0 L 97.17908392091098 -3.5 L 97.17908392091098 -0.5 L 87.62079196045549 -0.5 Z"/><text text-anchor="middle" pointer-events="none" font-size="8px" fill="#000000" x="64.83954196045549" y="3" transform="rotate(180 64.83954196045549 0)" font-family="sans-serif">ACTED_IN</text></g><g class="relationship" transform="translate(135.6400558978154 301.70437373550334) rotate(430.1791906694191)"><path class="outline" fill="#A5ABB6" stroke="none" d="M 32.5 0.5 L 45.356122163568145 0.5 L 45.356122163568145 -0.5 L 32.5 -0.5 Z M 90.91862216356814 0.5 L 103.77474432713629 0.5 L 103.77474432713629 3.5 L 110.77474432713629 0 L 103.77474432713629 -3.5 L 103.77474432713629 -0.5 L 90.91862216356814 -0.5 Z"/><text text-anchor="middle" pointer-events="none" font-size="8px" fill="#000000" x="68.13737216356814" y="3" font-family="sans-serif">ACTED_IN</text></g><g class="relationship" transform="translate(135.6400558978154 301.70437373550334) rotate(313.1247849197023)"><path class="outline" fill="#A5ABB6" stroke="none" d="M 32.5 0.5 L 70.17665608707463 0.5 L 70.17665608707463 -0.5 L 32.5 -0.5 Z M 115.73915608707463 0.5 L 153.41581217414927 0.5 L 153.41581217414927 3.5 L 160.41581217414927 0 L 153.41581217414927 -3.5 L 153.41581217414927 -0.5 L 115.73915608707463 -0.5 Z"/><text text-anchor="middle" pointer-events="none" font-size="8px" fill="#000000" x="92.95790608707463" y="3" font-family="sans-serif">ACTED_IN</text></g><g class="relationship" transform="translate(135.6400558978154 301.70437373550334) rotate(371.35109797467453)"><path class="outline" fill="#A5ABB6" stroke="none" d="M 31.26317983184346,-8.894581878976458 L 31.52199887694598,-7.92865605268739 A 164.1122369384391 164.1122369384391 0 0 1 48.84212774889093,-11.581278813838992 L 48.68884701826792,-12.569461498174064 A 165.1122369384391 165.1122369384391 0 0 0 31.26317983184346,-8.894581878976458 Z M 95.55996721732099,-13.106621918622693 L 95.42937365087099,-12.115185929563438 A 164.1122369384391 164.1122369384391 0 0 1 112.82866329386431,-8.860460580891251 L 112.11882057852604,-5.94564955451558 L 119.74819614129726,-7.689962749497907 L 113.77512024764867,-12.74687528272548 L 113.0652775323104,-9.832064256349808 A 165.1122369384391 165.1122369384391 0 0 0 95.55996721732099,-13.106621918622693"/><text text-anchor="middle" pointer-events="none" font-size="8px" fill="#000000" x="72.11097792185777" y="-11.009835893085238" font-family="sans-serif">DIRECTED</text></g><g class="relationship" transform="translate(135.6400558978154 301.70437373550334) rotate(371.35109797467453)"><path class="outline" fill="#A5ABB6" stroke="none" d="M 31.26317983184346,8.894581878976458 L 31.52199887694598,7.92865605268739 A 164.1122369384391 164.1122369384391 0 0 0 49.49655251117588,11.681437751811302 L 49.34725944639969,12.670230743700785 A 165.1122369384391 165.1122369384391 0 0 1 31.26317983184346,8.894581878976458 Z M 94.89941831585116,13.192275378152488 L 94.77282535476947,12.200320630089578 A 164.1122369384391 164.1122369384391 0 0 0 112.82866329386431,8.860460580891251 L 112.11882057852604,5.94564955451558 L 119.74819614129726,7.689962749497907 L 113.77512024764867,12.74687528272548 L 113.0652775323104,9.832064256349808 A 165.1122369384391 165.1122369384391 0 0 1 94.89941831585116,13.192275378152488"/><text text-anchor="middle" pointer-events="none" font-size="8px" fill="#000000" x="72.11097792185775" y="17.00983589308524" font-family="sans-serif">ACTED_IN</text></g><g class="relationship" transform="translate(135.6400558978154 301.70437373550334) rotate(524.7004335290926)"><path class="outline" fill="#A5ABB6" stroke="none" d="M 32.5 0.5 L 43.11684290323339 0.5 L 43.11684290323339 -0.5 L 32.5 -0.5 Z M 88.67934290323339 0.5 L 99.29618580646678 0.5 L 99.29618580646678 3.5 L 106.29618580646678 0 L 99.29618580646678 -3.5 L 99.29618580646678 -0.5 L 88.67934290323339 -0.5 Z"/><text text-anchor="middle" pointer-events="none" font-size="8px" fill="#000000" x="65.89809290323339" y="3" transform="rotate(180 65.89809290323339 0)" font-family="sans-serif">ACTED_IN</text></g><g class="relationship" transform="translate(135.6400558978154 301.70437373550334) rotate(191.76430445261138)"><path class="outline" fill="#A5ABB6" stroke="none" d="M 32.5 0.5 L 55.657639407088325 0.5 L 55.657639407088325 -0.5 L 32.5 -0.5 Z M 101.22013940708833 0.5 L 124.37777881417665 0.5 L 124.37777881417665 3.5 L 131.37777881417665 0 L 124.37777881417665 -3.5 L 124.37777881417665 -0.5 L 101.22013940708833 -0.5 Z"/><text text-anchor="middle" pointer-events="none" font-size="8px" fill="#000000" x="78.43888940708833" y="3" transform="rotate(180 78.43888940708833 0)" font-family="sans-serif">ACTED_IN</text></g></g><g class="layer nodes"><g class="node" transform="translate(36.37927584212172,206.78869060034253)"><circle class="outline" cx="0" cy="0" r="32.5" fill="#6DCE9E" stroke="#60B58B" stroke-width="2px"/><text text-anchor="middle" pointer-events="none" y="0" font-size="10px" fill="#FFFFFF" font-family="sans-serif"> A League of</text><text text-anchor="middle" pointer-events="none" y="10" font-size="10px" fill="#FFFFFF" font-family="sans-serif"> Their Own</text></g><g class="node" transform="translate(109.24401091943953,435.8103795330029)"><circle class="outline" cx="0" cy="0" r="32.5" fill="#6DCE9E" stroke="#60B58B" stroke-width="2px"/><text text-anchor="middle" pointer-events="none" y="0" font-size="10px" fill="#FFFFFF" font-family="sans-serif"> The Green</text><text text-anchor="middle" pointer-events="none" y="10" font-size="10px" fill="#FFFFFF" font-family="sans-serif"> Mile</text></g><g class="node" transform="translate(15.541978404406752,411.95946268916094)"><circle class="outline" cx="0" cy="0" r="32.5" fill="#6DCE9E" stroke="#60B58B" stroke-width="2px"/><text text-anchor="middle" pointer-events="none" y="0" font-size="10px" fill="#FFFFFF" font-family="sans-serif"> You've Got</text><text text-anchor="middle" pointer-events="none" y="10" font-size="10px" fill="#FFFFFF" font-family="sans-serif"> Mail</text></g><g class="node" transform="translate(135.6400558978154,301.70437373550334)"><circle class="outline" cx="0" cy="0" r="32.5" fill="#68BDF6" stroke="#5CA8DB" stroke-width="2px"/><text text-anchor="middle" pointer-events="none" y="5" font-size="10px" fill="#FFFFFF" font-family="sans-serif"> Tom Hanks</text></g><g class="node" transform="translate(267.51529148551776,160.90155833218964)"><circle class="outline" cx="0" cy="0" r="32.5" fill="#6DCE9E" stroke="#60B58B" stroke-width="2px"/><text text-anchor="middle" pointer-events="none" y="5" font-size="10px" fill="#FFFFFF" font-family="sans-serif"> Cloud Atlas</text></g><g class="node" transform="translate(-24.795404754843673,268.2919605595999)"><circle class="outline" cx="0" cy="0" r="32.5" fill="#6DCE9E" stroke="#60B58B" stroke-width="2px"/><text text-anchor="middle" pointer-events="none" y="0" font-size="10px" fill="#FFFFFF" font-family="sans-serif"> Sleepless in</text><text text-anchor="middle" pointer-events="none" y="10" font-size="10px" fill="#FFFFFF" font-family="sans-serif"> Seattle</text></g><g class="node" transform="translate(184.22160142145225,436.4911898435377)"><circle class="outline" cx="0" cy="0" r="32.5" fill="#6DCE9E" stroke="#60B58B" stroke-width="2px"/><text text-anchor="middle" pointer-events="none" y="0" font-size="10px" fill="#FFFFFF" font-family="sans-serif"> The Da Vinci</text><text text-anchor="middle" pointer-events="none" y="10" font-size="10px" fill="#FFFFFF" font-family="sans-serif"> Code</text></g><g class="node" transform="translate(248.15383543653007,397.3082420177151)"><circle class="outline" cx="0" cy="0" r="32.5" fill="#6DCE9E" stroke="#60B58B" stroke-width="2px"/><text text-anchor="middle" pointer-events="none" y="5" font-size="10px" fill="#FFFFFF" font-family="sans-serif"> Apollo 13</text></g><g class="node" transform="translate(1.762888108173889,338.3279336259267)"><circle class="outline" cx="0" cy="0" r="32.5" fill="#6DCE9E" stroke="#60B58B" stroke-width="2px"/><text text-anchor="middle" pointer-events="none" y="0" font-size="10px" fill="#FFFFFF" font-family="sans-serif"> Joe Versus</text><text text-anchor="middle" pointer-events="none" y="10" font-size="10px" fill="#FFFFFF" font-family="sans-serif"> the Volcano</text></g><g class="node" transform="translate(101.41584028897259,169.04441414329867)"><circle class="outline" cx="0" cy="0" r="32.5" fill="#6DCE9E" stroke="#60B58B" stroke-width="2px"/><text text-anchor="middle" pointer-events="none" y="5" font-size="10px" fill="#FFFFFF" font-family="sans-serif"> Cast Away</text></g><g class="node" transform="translate(284.0053754345209,331.48831401049557)"><circle class="outline" cx="0" cy="0" r="32.5" fill="#6DCE9E" stroke="#60B58B" stroke-width="2px"/><text text-anchor="middle" pointer-events="none" y="0" font-size="10px" fill="#FFFFFF" font-family="sans-serif"> That Thing</text><text text-anchor="middle" pointer-events="none" y="10" font-size="10px" fill="#FFFFFF" font-family="sans-serif"> You Do</text></g><g class="node" transform="translate(193.62743788395494,192.67024062902595)"><circle class="outline" cx="0" cy="0" r="32.5" fill="#6DCE9E" stroke="#60B58B" stroke-width="2px"/><text text-anchor="middle" pointer-events="none" y="0" font-size="10px" fill="#FFFFFF" font-family="sans-serif"> Charlie</text><text text-anchor="middle" pointer-events="none" y="10" font-size="10px" fill="#FFFFFF" font-family="sans-serif"> Wilson's War</text></g><g class="node" transform="translate(268.65234713713454,258.10914075125066)"><circle class="outline" cx="0" cy="0" r="32.5" fill="#6DCE9E" stroke="#60B58B" stroke-width="2px"/><text text-anchor="middle" pointer-events="none" y="0" font-size="10px" fill="#FFFFFF" font-family="sans-serif"> The Polar</text><text text-anchor="middle" pointer-events="none" y="10" font-size="10px" fill="#FFFFFF" font-family="sans-serif"> Express</text></g><g class="node" transform="translate(352.64592709683495,-129.1011696577878)"><circle class="outline" cx="0" cy="0" r="32.5" fill="#6DCE9E" stroke="#60B58B" stroke-width="2px"/><text text-anchor="middle" pointer-events="none" y="5" font-size="10px" fill="#FFFFFF" font-family="sans-serif"> The Matrix</text></g><g class="node" transform="translate(199.09853985195298,-159.3908927191288)"><circle class="outline" cx="0" cy="0" r="32.5" fill="#68BDF6" stroke="#5CA8DB" stroke-width="2px"/><text text-anchor="middle" pointer-events="none" y="0" font-size="10px" fill="#FFFFFF" font-family="sans-serif"> Keanu</text><text text-anchor="middle" pointer-events="none" y="10" font-size="10px" fill="#FFFFFF" font-family="sans-serif"> Reeves</text></g><g class="node" transform="translate(281.6439471639277,-260.81272010622024)"><circle class="outline" cx="0" cy="0" r="32.5" fill="#6DCE9E" stroke="#60B58B" stroke-width="2px"/><text text-anchor="middle" pointer-events="none" y="0" font-size="10px" fill="#FFFFFF" font-family="sans-serif"> Johnny</text><text text-anchor="middle" pointer-events="none" y="10" font-size="10px" fill="#FFFFFF" font-family="sans-serif"> Mnemonic</text></g><g class="node" transform="translate(181.67369140927866,-290.2894072575624)"><circle class="outline" cx="0" cy="0" r="32.5" fill="#6DCE9E" stroke="#60B58B" stroke-width="2px"/><text text-anchor="middle" pointer-events="none" y="0" font-size="10px" fill="#FFFFFF" font-family="sans-serif"> The</text><text text-anchor="middle" pointer-events="none" y="10" font-size="10px" fill="#FFFFFF" font-family="sans-serif"> Replaceme…</text></g><g class="node" transform="translate(46.29493135680278,-144.9307530615461)"><circle class="outline" cx="0" cy="0" r="32.5" fill="#6DCE9E" stroke="#60B58B" stroke-width="2px"/><text text-anchor="middle" pointer-events="none" y="0" font-size="10px" fill="#FFFFFF" font-family="sans-serif"> Something's</text><text text-anchor="middle" pointer-events="none" y="10" font-size="10px" fill="#FFFFFF" font-family="sans-serif"> Gotta Give</text></g><g class="node" transform="translate(239.44172685220119,-30.981461346796287)"><circle class="outline" cx="0" cy="0" r="32.5" fill="#6DCE9E" stroke="#60B58B" stroke-width="2px"/><text text-anchor="middle" pointer-events="none" y="0" font-size="10px" fill="#FFFFFF" font-family="sans-serif"> The Matrix</text><text text-anchor="middle" pointer-events="none" y="10" font-size="10px" fill="#FFFFFF" font-family="sans-serif"> Reloaded</text></g><g class="node" transform="translate(297.54610502394263,-78.38925219492225)"><circle class="outline" cx="0" cy="0" r="32.5" fill="#6DCE9E" stroke="#60B58B" stroke-width="2px"/><text text-anchor="middle" pointer-events="none" y="0" font-size="10px" fill="#FFFFFF" font-family="sans-serif"> The Matrix</text><text text-anchor="middle" pointer-events="none" y="10" font-size="10px" fill="#FFFFFF" font-family="sans-serif"> Revolutions</text></g><g class="node" transform="translate(100.5966166354929,-243.8929783092284)"><circle class="outline" cx="0" cy="0" r="32.5" fill="#6DCE9E" stroke="#60B58B" stroke-width="2px"/><text text-anchor="middle" pointer-events="none" y="0" font-size="10px" fill="#FFFFFF" font-family="sans-serif"> The Devil's</text><text text-anchor="middle" pointer-events="none" y="10" font-size="10px" fill="#FFFFFF" font-family="sans-serif"> Advocate</text></g><g class="node" transform="translate(-98.8214187961067,-138.05780843167466)"><circle class="outline" cx="0" cy="0" r="32.5" fill="#68BDF6" stroke="#5CA8DB" stroke-width="2px"/><text text-anchor="middle" pointer-events="none" y="0" font-size="10px" fill="#FFFFFF" font-family="sans-serif"> Jack</text><text text-anchor="middle" pointer-events="none" y="10" font-size="10px" fill="#FFFFFF" font-family="sans-serif"> Nicholson</text></g><g class="node" transform="translate(-148.45288756810663,-253.3065294067138)"><circle class="outline" cx="0" cy="0" r="32.5" fill="#6DCE9E" stroke="#60B58B" stroke-width="2px"/><text text-anchor="middle" pointer-events="none" y="0" font-size="10px" fill="#FFFFFF" font-family="sans-serif"> As Good as</text><text text-anchor="middle" pointer-events="none" y="10" font-size="10px" fill="#FFFFFF" font-family="sans-serif"> It Gets</text></g><g class="node" transform="translate(-141.24255051182374,-18.18414281237967)"><circle class="outline" cx="0" cy="0" r="32.5" fill="#6DCE9E" stroke="#60B58B" stroke-width="2px"/><text text-anchor="middle" pointer-events="none" y="-10" font-size="10px" fill="#FFFFFF" font-family="sans-serif"> One Flew</text><text text-anchor="middle" pointer-events="none" y="0" font-size="10px" fill="#FFFFFF" font-family="sans-serif"> Over the</text><text text-anchor="middle" pointer-events="none" y="10" font-size="10px" fill="#FFFFFF" font-family="sans-serif"> Cuckoo's</text><text text-anchor="middle" pointer-events="none" y="20" font-size="10px" fill="#FFFFFF" font-family="sans-serif"> Nest</text></g><g class="node" transform="translate(-227.35019481019032,-162.70369697020817)"><circle class="outline" cx="0" cy="0" r="32.5" fill="#6DCE9E" stroke="#60B58B" stroke-width="2px"/><text text-anchor="middle" pointer-events="none" y="5" font-size="10px" fill="#FFFFFF" font-family="sans-serif"> Hoffa</text></g><g class="node" transform="translate(-216.9495393764517,-69.48672966567723)"><circle class="outline" cx="0" cy="0" r="32.5" fill="#6DCE9E" stroke="#60B58B" stroke-width="2px"/><text text-anchor="middle" pointer-events="none" y="0" font-size="10px" fill="#FFFFFF" font-family="sans-serif"> A Few Good</text><text text-anchor="middle" pointer-events="none" y="10" font-size="10px" fill="#FFFFFF" font-family="sans-serif"> Men</text></g><g class="node" transform="translate(497.2596852865842,32.03236171198248)"><circle class="outline" cx="0" cy="0" r="32.5" fill="#6DCE9E" stroke="#60B58B" stroke-width="2px"/><text text-anchor="middle" pointer-events="none" y="0" font-size="10px" fill="#FFFFFF" font-family="sans-serif"> V for</text><text text-anchor="middle" pointer-events="none" y="10" font-size="10px" fill="#FFFFFF" font-family="sans-serif"> Vendetta</text></g><g class="node" transform="translate(368.4534109135187,22.19368123461649)"><circle class="outline" cx="0" cy="0" r="32.5" fill="#68BDF6" stroke="#5CA8DB" stroke-width="2px"/><text text-anchor="middle" pointer-events="none" y="0" font-size="10px" fill="#FFFFFF" font-family="sans-serif"> Hugo</text><text text-anchor="middle" pointer-events="none" y="10" font-size="10px" fill="#FFFFFF" font-family="sans-serif"> Weaving</text></g><g class="node" transform="translate(-244.22635961277692,314.43279293158514)"><circle class="outline" cx="0" cy="0" r="32.5" fill="#6DCE9E" stroke="#60B58B" stroke-width="2px"/><text text-anchor="middle" pointer-events="none" y="0" font-size="10px" fill="#FFFFFF" font-family="sans-serif"> When Harry</text><text text-anchor="middle" pointer-events="none" y="10" font-size="10px" fill="#FFFFFF" font-family="sans-serif"> Met Sally</text></g><g class="node" transform="translate(-123.91699508769679,365.5512077725515)"><circle class="outline" cx="0" cy="0" r="32.5" fill="#68BDF6" stroke="#5CA8DB" stroke-width="2px"/><text text-anchor="middle" pointer-events="none" y="5" font-size="10px" fill="#FFFFFF" font-family="sans-serif"> Meg Ryan</text></g><g class="node" transform="translate(-199.59779672907644,462.9433065789123)"><circle class="outline" cx="0" cy="0" r="32.5" fill="#6DCE9E" stroke="#60B58B" stroke-width="2px"/><text text-anchor="middle" pointer-events="none" y="5" font-size="10px" fill="#FFFFFF" font-family="sans-serif"> Top Gun</text></g></g></svg>