<svg xmlns="http://www.w3.org/2000/svg" class="graphdiagram" viewBox="-581.524487348748 -366.0920932619963 1471.8203675197617 816.6558844779789"><g class="layer relationships"><g class="related-pair"><g class="relationship highlight" transform="translate(-203.22860717773438,-26.5) rotate(0)"><path class="relationship highlight" d="M 115.02830204601366 4 L 568.2003051317207 4 L 568.2003051317207 16 L 600.2003051317207 0 L 568.2003051317207 -16 L 568.2003051317207 -4 L 115.02830204601366 -4 Z" fill="rgb(0, 0, 0)" stroke="rgb(51, 51, 51)" stroke-width="0px"/><text class="type" text-anchor="middle" baseline-shift="30%" alignment-baseline="alphabetic" x="341.6143035888672" y="0" font-size="50px" font-family="&quot;Gill Sans&quot;, &quot;Gill Sans MT&quot;, Calibri, sans-serif">HAS_FLIGHT</text></g></g></g><g class="layer nodes"><circle class="node node-id-0" r="100.02830204601366" fill="rgb(255, 255, 255)" stroke="rgb(0, 0, 0)" stroke-width="8px" cx="-203.22860717773438" cy="-26.5"/><circle class="node node-id-1" r="100.02830204601366" fill="rgb(255, 255, 255)" stroke="rgb(0, 0, 0)" stroke-width="8px" cx="512" cy="-26.5"/><g class="caption"><text class="caption node" text-anchor="middle" alignment-baseline="central" x="-203.22860717773438" y="-26.5" fill="rgb(51, 51, 51)" font-size="50px" font-family="&quot;Gill Sans&quot;, &quot;Gill Sans MT&quot;, Calibri, sans-serif">Airport</text></g><g class="caption"><text class="caption node" text-anchor="middle" alignment-baseline="central" x="512" y="-26.5" fill="rgb(51, 51, 51)" font-size="50px" font-family="&quot;Gill Sans&quot;, &quot;Gill Sans MT&quot;, Calibri, sans-serif">Airport</text></g></g><g class="layer properties"><g class="speech-bubble node-speech-bubble" transform="translate(-303.25690922374804,-26.5) "><path class="speech-bubble-outline" transform="scale(-1,1) " d="M 0 0 L 20 -10 L 20 -25 A 10 10 0 0 1 30 -35 L 266.767578125 -35 A 10 10 0 0 1 276.767578125 -25 L 276.767578125 25 A 10 10 0 0 1 266.767578125 35 L 30 35 A 10 10 0 0 1 20 25 L 20 10 Z" fill="rgb(255, 255, 255)" stroke="rgb(0, 0, 0)" stroke-width="3px"/><text class="speech-bubble-content property-key" x="-142.98828125" y="0" alignment-baseline="central" text-anchor="end" font-size="50px" font-family="&quot;Gill Sans&quot;, &quot;Gill Sans MT&quot;, Calibri, sans-serif" xml:space="preserve">code: </text><text class="speech-bubble-content property-value" x="-142.98828125" y="0" alignment-baseline="central" font-size="50px" font-family="&quot;Gill Sans&quot;, &quot;Gill Sans MT&quot;, Calibri, sans-serif">string</text></g><g class="speech-bubble node-speech-bubble" transform="translate(612.0283020460137,-26.5) "><path class="speech-bubble-outline" transform="scale(1,1) " d="M 0 0 L 20 -10 L 20 -25 A 10 10 0 0 1 30 -35 L 266.767578125 -35 A 10 10 0 0 1 276.767578125 -25 L 276.767578125 25 A 10 10 0 0 1 266.767578125 35 L 30 35 A 10 10 0 0 1 20 25 L 20 10 Z" fill="rgb(255, 255, 255)" stroke="rgb(0, 0, 0)" stroke-width="3px"/><text class="speech-bubble-content property-key" x="153.779296875" y="0" alignment-baseline="central" text-anchor="end" font-size="50px" font-family="&quot;Gill Sans&quot;, &quot;Gill Sans MT&quot;, Calibri, sans-serif" xml:space="preserve">code: </text><text class="speech-bubble-content property-value" x="153.779296875" y="0" alignment-baseline="central" font-size="50px" font-family="&quot;Gill Sans&quot;, &quot;Gill Sans MT&quot;, Calibri, sans-serif">string</text></g><g class="speech-bubble relationship-speech-bubble" transform="translate(138.3856964111328,-26.5) "><path class="speech-bubble-outline" transform="scale(1,1) " d="M 0 0 L -10 20 L -205.06591796875 20 A 10 10 0 0 0 -215.06591796875 30 L -215.06591796875 230 A 10 10 0 0 0 -205.06591796875 240 L 205.06591796875 240 A 10 10 0 0 0 215.06591796875 230 L 215.06591796875 30 A 10 10 0 0 0 205.06591796875 20 L 10 20 Z" fill="rgb(255, 255, 255)" stroke="rgb(0, 0, 0)" stroke-width="3px"/><text class="speech-bubble-content property-key" x="92.07763671875" y="55" alignment-baseline="central" text-anchor="end" font-size="50px" font-family="&quot;Gill Sans&quot;, &quot;Gill Sans MT&quot;, Calibri, sans-serif" xml:space="preserve">airline: </text><text class="speech-bubble-content property-key" x="92.07763671875" y="105" alignment-baseline="central" text-anchor="end" font-size="50px" font-family="&quot;Gill Sans&quot;, &quot;Gill Sans MT&quot;, Calibri, sans-serif" xml:space="preserve">flightNumber: </text><text class="speech-bubble-content property-key" x="92.07763671875" y="155" alignment-baseline="central" text-anchor="end" font-size="50px" font-family="&quot;Gill Sans&quot;, &quot;Gill Sans MT&quot;, Calibri, sans-serif" xml:space="preserve">departure: </text><text class="speech-bubble-content property-key" x="92.07763671875" y="205" alignment-baseline="central" text-anchor="end" font-size="50px" font-family="&quot;Gill Sans&quot;, &quot;Gill Sans MT&quot;, Calibri, sans-serif" xml:space="preserve">arrival: </text><text class="speech-bubble-content property-value" x="92.07763671875" y="55" alignment-baseline="central" font-size="50px" font-family="&quot;Gill Sans&quot;, &quot;Gill Sans MT&quot;, Calibri, sans-serif">string</text><text class="speech-bubble-content property-value" x="92.07763671875" y="105" alignment-baseline="central" font-size="50px" font-family="&quot;Gill Sans&quot;, &quot;Gill Sans MT&quot;, Calibri, sans-serif">string</text><text class="speech-bubble-content property-value" x="92.07763671875" y="155" alignment-baseline="central" font-size="50px" font-family="&quot;Gill Sans&quot;, &quot;Gill Sans MT&quot;, Calibri, sans-serif">long</text><text class="speech-bubble-content property-value" x="92.07763671875" y="205" alignment-baseline="central" font-size="50px" font-family="&quot;Gill Sans&quot;, &quot;Gill Sans MT&quot;, Calibri, sans-serif">long</text></g></g><g class="layer overlay"><circle class="node overlay" r="104.02830204601366" stroke="none" fill="rgba(255, 255, 255, 0)" cx="-203.22860717773438" cy="-26.5"/><circle class="node overlay" r="104.02830204601366" stroke="none" fill="rgba(255, 255, 255, 0)" cx="512" cy="-26.5"/><circle class="node ring" r="109.02830204601366" fill="none" stroke="rgba(255, 255, 255, 0)" stroke-width="10px" cx="-203.22860717773438" cy="-26.5"/><circle class="node ring" r="109.02830204601366" fill="none" stroke="rgba(255, 255, 255, 0)" stroke-width="10px" cx="512" cy="-26.5"/><path class="relationship overlay" fill="rgba(255, 255, 255, 0)" stroke="rgba(255, 255, 255, 0)" stroke-width="10px" transform="translate(-203.22860717773438,-26.5) rotate(0)" d="M 115.02830204601366 4 L 568.2003051317207 4 L 568.2003051317207 16 L 600.2003051317207 0 L 568.2003051317207 -16 L 568.2003051317207 -4 L 115.02830204601366 -4 Z"/></g></svg>