<svg xmlns="http://www.w3.org/2000/svg" width="639.2565307617188" height="404.33544921875" viewBox="-292.71954345703125 -87.43240356445312 639.2565307617188 404.33544921875"><title>Neo4j Graph Visualization</title><desc>Created using Neo4j (http://www.neo4j.com/)</desc><g class="layer relationships"><g class="relationship" transform="translate(89.07713110099682 84.10363241979093) rotate(470.48087437996236)"><path class="outline" fill="#A5ABB6" stroke="none" d="M 40 0.5 L 54.70889570143882 0.5 L 54.70889570143882 -0.5 L 40 -0.5 Z M 139.82998945143882 0.5 L 154.53888515287764 0.5 L 154.53888515287764 3.5 L 161.53888515287764 0 L 154.53888515287764 -3.5 L 154.53888515287764 -0.5 L 139.82998945143882 -0.5 Z"/><text text-anchor="middle" pointer-events="none" font-size="8px" fill="#000000" x="97.26944257643882" y="3" transform="rotate(180 97.26944257643882 0)" font-family="sans-serif">IN_NEIGHBORHOOD</text></g><g class="relationship" transform="translate(-78.01869264107215 -43.432401567187924) rotate(397.352715582467)"><path class="outline" fill="#A5ABB6" stroke="none" d="M 40 0.5 L 84.82357449059164 0.5 L 84.82357449059164 -0.5 L 40 -0.5 Z M 118.38216824059164 0.5 L 163.20574273118328 0.5 L 163.20574273118328 3.5 L 170.20574273118328 0 L 163.20574273118328 -3.5 L 163.20574273118328 -0.5 L 118.38216824059164 -0.5 Z"/><text text-anchor="middle" pointer-events="none" font-size="8px" fill="#000000" x="101.60287136559164" y="3" font-family="sans-serif">HOSTS</text></g><g class="relationship" transform="translate(-66.61624425787785 98.12798415196279) rotate(354.8528739077449)"><path class="outline" fill="#A5ABB6" stroke="none" d="M 40 0.5 L 53.21460099189177 0.5 L 53.21460099189177 -0.5 L 40 -0.5 Z M 96.10913224189177 0.5 L 109.32373323378354 0.5 L 109.32373323378354 3.5 L 116.32373323378354 0 L 109.32373323378354 -3.5 L 109.32373323378354 -0.5 L 96.10913224189177 -0.5 Z"/><text text-anchor="middle" pointer-events="none" font-size="8px" fill="#000000" x="74.66186661689177" y="3" font-family="sans-serif">REVIEWS</text></g><g class="relationship" transform="translate(-248.7195296611785 124.29767204340658) rotate(351.8221312399819)"><path class="outline" fill="#A5ABB6" stroke="none" d="M 40 0.5 L 70.60031718307532 0.5 L 70.60031718307532 -0.5 L 40 -0.5 Z M 106.37375468307532 0.5 L 136.97407186615064 0.5 L 136.97407186615064 3.5 L 143.97407186615064 0 L 136.97407186615064 -3.5 L 136.97407186615064 -0.5 L 106.37375468307532 -0.5 Z"/><text text-anchor="middle" pointer-events="none" font-size="8px" fill="#000000" x="88.48703593307532" y="3" font-family="sans-serif">WROTE</text></g><g class="relationship" transform="translate(89.07713110099682 84.10363241979093) rotate(344.5081194370564)"><path class="outline" fill="#A5ABB6" stroke="none" d="M 40 0.5 L 96.02918752967203 0.5 L 96.02918752967203 -0.5 L 40 -0.5 Z M 118.47840627967203 0.5 L 174.50759380934406 0.5 L 174.50759380934406 3.5 L 181.50759380934406 0 L 174.50759380934406 -3.5 L 174.50759380934406 -0.5 L 118.47840627967203 -0.5 Z"/><text text-anchor="middle" pointer-events="none" font-size="8px" fill="#000000" x="107.25379690467203" y="3" font-family="sans-serif">HAS</text></g></g><g class="layer nodes"><g class="node" transform="translate(302.53698059339047,24.938551756531353)"><circle class="outline" cx="0" cy="0" r="40" fill="#FB95AF" stroke="#E0849B" stroke-width="2px"/><text text-anchor="middle" pointer-events="none" font-family="sans-serif" dy="2.5" font-size="40" fill="#FFFFFF"/><text text-anchor="middle" pointer-events="none" y="5" font-size="10px" fill="#FFFFFF" font-family="sans-serif"> Amenity</text></g><g class="node" transform="translate(-248.7195296611785,124.29767204340658)"><circle class="outline" cx="0" cy="0" r="40" fill="#DE9BF9" stroke="#BF85D6" stroke-width="2px"/><text text-anchor="middle" pointer-events="none" font-family="sans-serif" dy="2.5" font-size="40" fill="#FFFFFF"/><text text-anchor="middle" pointer-events="none" y="5" font-size="10px" fill="#FFFFFF" font-family="sans-serif"> User</text></g><g class="node" transform="translate(89.07713110099682,84.10363241979093)"><circle class="outline" cx="0" cy="0" r="40" fill="#6DCE9E" stroke="#60B58B" stroke-width="2px"/><text text-anchor="middle" pointer-events="none" font-family="sans-serif" dy="2.5" font-size="40" fill="#FFFFFF"/><text text-anchor="middle" pointer-events="none" y="5" font-size="10px" fill="#FFFFFF" font-family="sans-serif"> Listing</text></g><g class="node" transform="translate(-78.01869264107215,-43.432401567187924)"><circle class="outline" cx="0" cy="0" r="40" fill="#68BDF6" stroke="#5CA8DB" stroke-width="2px"/><text text-anchor="middle" pointer-events="none" font-family="sans-serif" dy="2.5" font-size="40" fill="#FFFFFF"/><text text-anchor="middle" pointer-events="none" y="5" font-size="10px" fill="#FFFFFF" font-family="sans-serif"> Host</text></g><g class="node" transform="translate(-66.61624425787785,98.12798415196279)"><circle class="outline" cx="0" cy="0" r="40" fill="#FF756E" stroke="#E06760" stroke-width="2px"/><text text-anchor="middle" pointer-events="none" font-family="sans-serif" dy="2.5" font-size="40" fill="#FFFFFF"/><text text-anchor="middle" pointer-events="none" y="5" font-size="10px" fill="#FFFFFF" font-family="sans-serif"> Review</text></g><g class="node" transform="translate(18.55974417736698,272.90305077198786)"><circle class="outline" cx="0" cy="0" r="40" fill="#FFD86E" stroke="#EDBA39" stroke-width="2px"/><text text-anchor="middle" pointer-events="none" font-family="sans-serif" dy="2.5" font-size="40" fill="#604A0E"/><text text-anchor="middle" pointer-events="none" y="5" font-size="10px" fill="#604A0E" font-family="sans-serif"> Neighborhood</text></g></g></svg>